<svg width="236" height="40" viewBox="0 0 236 40" fill="none" xmlns="http://www.w3.org/2000/svg">
<path d="M146.446 2.55279H146.462L151.169 9.51223H152.626V1.05257H151.483V8.00661H151.461L146.798 1.05257H145.293V9.51223H146.446V2.55279Z" fill="#8C1515"/>
<path d="M156.531 7.41627H160.56L161.41 9.50682H162.737L159.13 1.04716H158.08L154.353 9.50682H155.691L156.531 7.41627ZM158.54 2.53112H158.567L160.143 6.41975H156.942L158.54 2.53112Z" fill="#8C1515"/>
<path d="M165.461 9.51223H166.599V2.11951H169.334V1.05257H162.737V2.11951H165.461V9.51223Z" fill="#8C1515"/>
<path d="M172.638 1.05257H171.5V9.51223H172.638V1.05257Z" fill="#8C1515"/>
<path d="M183.924 5.28782C183.924 2.77484 182.105 0.835938 179.527 0.835938C176.938 0.835938 175.123 2.77484 175.123 5.28782C175.123 7.78997 176.938 9.73428 179.527 9.73428C182.105 9.72887 183.924 7.78997 183.924 5.28782ZM179.527 8.65652C177.593 8.65652 176.337 7.14006 176.337 5.28782C176.337 3.42475 177.593 1.91371 179.527 1.91371C181.466 1.91371 182.717 3.42475 182.717 5.28782C182.711 7.13465 181.46 8.65652 179.527 8.65652Z" fill="#8C1515"/>
<path d="M187.472 2.55279H187.499L192.2 9.51223H193.657V1.05257H192.509V8.00661H192.487L187.835 1.05257H186.329V9.51223H187.472V2.55279Z" fill="#8C1515"/>
<path d="M200.275 1.05257H199.241L195.509 9.51223H196.841L197.681 7.42169H201.705L202.555 9.51223H203.893L200.275 1.05257ZM198.087 6.41975L199.69 2.53112H199.706L201.293 6.41975H198.087Z" fill="#8C1515"/>
<path d="M210.961 8.43447H207.083V1.05257H205.935V9.51223H210.961V8.43447Z" fill="#8C1515"/>
<path d="M152.604 24.2219L148.986 15.7784H147.941L144.215 24.2219H145.553L146.387 22.1367H150.416L151.25 24.2219H152.604ZM146.798 21.1348L148.401 17.257H148.423L150.01 21.1348H146.798Z" fill="#8C1515"/>
<path d="M157.787 23.3716C155.821 23.3716 154.64 21.8551 154.64 20.0679C154.64 18.1506 155.892 16.6233 157.787 16.6233C158.567 16.6233 159.363 16.9699 159.829 17.5928L160.793 16.8725C160.111 15.9734 158.941 15.5564 157.825 15.5564C155.22 15.5564 153.416 17.4411 153.416 20.0679C153.416 22.1963 155.079 24.4385 157.76 24.4385C159.704 24.4385 160.706 23.3066 160.966 22.9599L159.997 22.2288C159.499 22.9383 158.757 23.3716 157.787 23.3716Z" fill="#8C1515"/>
<path d="M166.328 16.6287C167.102 16.6287 167.888 16.9754 168.364 17.5982L169.323 16.8779C168.641 15.9788 167.476 15.5618 166.361 15.5618C163.761 15.5618 161.952 17.4465 161.952 20.0733C161.952 22.2017 163.609 24.4439 166.301 24.4439C168.234 24.4439 169.253 23.312 169.502 22.9654L168.532 22.2342C168.034 22.9437 167.292 23.3824 166.323 23.3824C164.357 23.3824 163.165 21.8659 163.165 20.0787C163.171 18.1506 164.427 16.6287 166.328 16.6287Z" fill="#8C1515"/>
<path d="M177.019 16.8508V15.7784H171.56V24.2219H177.236V23.1495H172.703V20.4415H176.721V19.3692H172.703V16.8508H177.019Z" fill="#8C1515"/>
<path d="M180.036 15.7784V24.2219H185.067V23.1495H181.178V15.7784H180.036Z" fill="#8C1515"/>
<path d="M192.758 16.8508V15.7784H187.293V24.2219H192.974V23.1495H188.441V20.4415H192.454V19.3692H188.441V16.8508H192.758Z" fill="#8C1515"/>
<path d="M201.461 18.1344C201.461 17.0728 200.914 15.7784 198.748 15.7784H195.774V24.2219H196.923V20.5011H198.201L200.356 24.2219H201.791L199.381 20.3711C200.659 20.2303 201.461 19.2176 201.461 18.1344ZM198.423 19.4938H196.917V16.775H198.423C199.327 16.775 200.242 16.9862 200.242 18.1344C200.242 19.2825 199.327 19.4938 198.423 19.4938Z" fill="#8C1515"/>
<path d="M206.785 15.7784L203.064 24.2219H204.396L205.236 22.1367H209.255L210.105 24.2219H211.437L207.825 15.7784H206.785ZM205.637 21.1348L207.234 17.257H207.262L208.848 21.1348H205.637Z" fill="#8C1515"/>
<path d="M214.275 24.2219H215.423V16.8508H218.142V15.7784H211.546V16.8508H214.275V24.2219Z" fill="#8C1515"/>
<path d="M227.652 19.9974C227.652 17.4845 225.833 15.5564 223.249 15.5564C220.671 15.5564 218.846 17.4845 218.846 19.9974C218.846 22.505 220.671 24.4385 223.249 24.4385C225.833 24.4385 227.652 22.505 227.652 19.9974ZM220.059 19.9974C220.059 18.1506 221.31 16.6233 223.244 16.6233C225.177 16.6233 226.434 18.1452 226.434 19.9974C226.434 21.8551 225.177 23.3716 223.244 23.3716C221.31 23.3716 220.059 21.8551 220.059 19.9974Z" fill="#8C1515"/>
<path d="M233.502 20.3766C234.78 20.2303 235.581 19.2176 235.581 18.1398C235.581 17.0783 235.034 15.7839 232.868 15.7839H229.895V24.2273H231.043V20.5065H232.321L234.471 24.2273H235.912L233.502 20.3766ZM231.043 19.4938V16.775H232.548C233.453 16.775 234.368 16.9862 234.368 18.1344C234.368 19.2825 233.453 19.4938 232.548 19.4938H231.043Z" fill="#8C1515"/>
<path d="M165.202 34.4904V34.4688C166.052 34.1763 166.653 33.5751 166.653 32.6003C166.653 31.1705 165.554 30.4881 164.086 30.4881H161.15V38.9531H164.048C165.689 38.9531 167.021 38.1137 167.021 36.5864C167.027 35.4599 166.209 34.5608 165.202 34.4904ZM162.293 31.5008H164.102C165.017 31.5008 165.429 32.0641 165.429 32.7357C165.429 33.6564 164.73 34.003 163.858 34.003H162.293V31.5008ZM163.978 37.9458H162.293V35.0104H163.988C165.104 35.0104 165.803 35.5032 165.803 36.5106C165.803 37.7075 164.671 37.9458 163.978 37.9458Z" fill="#8C1515"/>
<path d="M173.212 30.2823C170.634 30.2823 168.792 32.2157 168.792 34.7233C168.792 37.2309 170.634 39.1644 173.212 39.1644C175.784 39.1644 177.615 37.2309 177.615 34.7233C177.615 32.2103 175.784 30.2823 173.212 30.2823ZM173.212 38.092C171.273 38.092 170.022 36.5701 170.022 34.7233C170.022 32.8711 171.273 31.36 173.212 31.36C175.134 31.36 176.396 32.8765 176.396 34.7233C176.396 36.5647 175.129 38.092 173.212 38.092Z" fill="#8C1515"/>
<path d="M185.62 32.8602C185.62 31.7987 185.067 30.4881 182.906 30.4881H179.933V38.9531H181.076V35.2162H182.354L184.509 38.9531H185.939L183.545 35.0862C184.818 34.9508 185.62 33.9326 185.62 32.8602ZM181.076 34.2196V31.4954H182.581C183.486 31.4954 184.396 31.7012 184.396 32.8602C184.396 34.003 183.486 34.2196 182.581 34.2196H181.076Z" fill="#8C1515"/>
<path d="M190.943 30.4881L187.217 38.9531H188.555L189.384 36.8572H193.413L194.263 38.9531H195.596L191.978 30.4881H190.943ZM189.795 35.8552L191.398 31.9666H191.42L192.996 35.8552H189.795Z" fill="#8C1515"/>
<path d="M195.704 31.5713H198.434V38.9531H199.576V31.5713H202.301V30.4881H195.704V31.5713Z" fill="#8C1515"/>
<path d="M207.413 30.2823C204.835 30.2823 202.994 32.2157 202.994 34.7233C202.994 37.2309 204.83 39.1644 207.413 39.1644C209.991 39.1644 211.822 37.2309 211.822 34.7233C211.822 32.2103 209.991 30.2823 207.413 30.2823ZM207.413 38.092C205.485 38.092 204.223 36.5701 204.223 34.7233C204.223 32.8711 205.485 31.36 207.413 31.36C209.341 31.36 210.598 32.8765 210.598 34.7233C210.598 36.5647 209.341 38.092 207.413 38.092Z" fill="#8C1515"/>
<path d="M219.864 32.8602C219.864 31.7987 219.317 30.4881 217.151 30.4881H214.172V38.9531H215.32V35.2162H216.604L218.759 38.9531H220.189L217.79 35.0862C219.052 34.9508 219.864 33.9326 219.864 32.8602ZM215.315 34.2196V31.4954H216.826C217.725 31.4954 218.63 31.7012 218.63 32.8602C218.63 34.003 217.725 34.2196 216.826 34.2196H215.315Z" fill="#8C1515"/>
<path d="M225.356 34.2034L223.043 30.4881H221.587L224.782 35.3353V38.9531H225.925V35.3353L229.142 30.4881H227.734L225.356 34.2034Z" fill="#8C1515"/>
<path d="M146.446 30.4881H145.293V38.9531H150.329V37.87H146.446V30.4881Z" fill="#8C1515"/>
<path d="M154.738 30.4881L151.012 38.9531H152.35L153.189 36.8572H157.218L158.058 38.9531H159.401L155.783 30.4881H154.738ZM153.601 35.8552L155.198 31.9666H155.22L156.796 35.8552H153.601Z" fill="#8C1515"/>
<path d="M40.2619 18.6162H31.981V21.3729H40.2619V18.6162Z" fill="#8C1515"/>
<path d="M40.2619 24.1296H31.981V38.8176H59.0281V31.2949H40.2619V24.1296Z" fill="#8C1515"/>
<path d="M40.2619 1.1824H31.981V15.8595H40.2619V1.1824Z" fill="#8C1515"/>
<path d="M84.4558 0.917024H76.8248L70.4665 15.8541H90.8141L84.4558 0.917024Z" fill="#8C1515"/>
<path d="M66.9461 24.1296L60.6907 38.8176H69.1341L72.5787 30.3796H88.4906L91.9352 38.8176H100.59L94.3398 24.1296H66.9461Z" fill="#8C1515"/>
<path d="M91.9947 18.6162H69.2912L68.1214 21.3729H93.1646L91.9947 18.6162Z" fill="#8C1515"/>
<path d="M111.118 19.9865C111.118 22.8406 113.431 25.1532 116.285 25.1532C119.139 25.1532 121.452 22.8406 121.452 19.9865C121.452 17.1323 119.139 14.8197 116.285 14.8197C113.431 14.8143 111.118 17.1323 111.118 19.9865Z" fill="#8C1515"/>
<path d="M104.484 21.3729C104.43 20.918 104.403 20.4631 104.403 20.0027C104.403 19.5315 104.44 19.0712 104.489 18.6162H96.8149C96.7878 19.0766 96.7607 19.5369 96.7607 20.0027C96.7607 20.4631 96.777 20.9234 96.8149 21.3729H104.484Z" fill="#8C1515"/>
<path d="M116.258 8.14727C120.082 8.14727 123.467 9.96702 125.633 12.7725L130.702 6.90702C127.139 2.97507 121.983 0.5 116.258 0.5C106.91 0.5 99.1058 7.07492 97.1994 15.8541H105.161C106.851 11.3535 111.172 8.14727 116.258 8.14727Z" fill="#8C1515"/>
<path d="M125.795 27.0217C123.64 29.9463 120.174 31.8527 116.263 31.8527C111.172 31.8527 106.845 28.6411 105.161 24.1296H97.2048C99.1058 32.9142 106.905 39.5 116.263 39.5C122.275 39.5 127.648 36.7758 131.228 32.4972L125.795 27.0217Z" fill="#8C1515"/>
<path d="M16.2044 15.8541C11.0755 14.4676 9.72698 13.5903 9.72698 11.2777C9.72698 9.40918 11.4005 7.95229 14.5688 7.95229C17.748 7.95229 21.0246 9.3496 24.3608 11.6622L28.661 5.42306C24.8374 2.35766 20.1689 0.635398 14.6825 0.635398C6.99195 0.640814 1.50562 5.17393 1.50562 12.0359C1.50562 13.5361 1.69518 14.7763 2.0418 15.8541H16.2044Z" fill="#8C1515"/>
<path d="M15.9228 24.1296C20.5371 25.4674 21.5608 26.5343 21.5608 28.4461C21.5608 30.7046 19.519 32.0423 16.134 32.0423C11.8338 32.0423 8.28093 30.2659 4.89599 27.4712L0 33.3313C4.51146 37.3661 10.2686 39.3592 15.9715 39.3592C24.0846 39.3592 29.7929 35.1618 29.7929 27.6337C29.7929 26.2906 29.6196 25.1478 29.2947 24.1296H15.9228Z" fill="#8C1515"/>
<path d="M3.54742 18.6162C4.49521 19.759 5.76253 20.6364 7.30065 21.3729H27.7891C26.9008 20.2843 25.7202 19.3853 24.2687 18.6162H3.54742Z" fill="#8C1515"/>
</svg>
