<svg width="107" height="48" viewBox="0 0 107 48" fill="none" xmlns="http://www.w3.org/2000/svg">
<path d="M28.0614 22.1348C24.2634 22.1348 23.9731 19.2681 23.9731 18.3852C23.9731 17.345 24.2392 15.5185 26.6583 14.6235C29.15 13.7042 29.6822 13.6075 31.3997 13.0632V12.6156C31.3997 11.7811 31.3997 11.5875 31.2304 11.0674C30.9038 10.0877 29.9604 9.45874 28.6662 9.45874C27.3841 9.45874 26.3197 10.1724 25.8479 11.2005L25.1464 10.7892C25.5939 9.20473 27.1784 7.63233 29.9241 7.63233C31.8715 7.63233 33.1536 8.18872 33.9277 9.37407C34.5204 10.3175 34.5687 11.6359 34.5687 13.0027C34.5687 14.2122 34.5325 15.5427 34.5083 16.6313C34.4841 17.3812 34.472 18.0223 34.472 18.4094C34.472 19.3891 34.6292 20.1511 35.4517 20.1511C35.7904 20.1511 35.863 20.0664 36.1532 19.8245L36.6008 20.3446C35.863 21.3123 35.0526 22.0985 33.6858 22.0985C32.5851 22.0985 31.811 21.5663 31.557 20.6833C30.9401 21.3485 29.8273 22.1348 28.0614 22.1348ZM31.4118 14.7928C29.5612 15.3492 28.9202 15.6637 28.3517 15.954C27.5413 16.3531 27.1301 17.1756 27.1301 18.1433C27.1301 18.8932 27.3962 20.1632 29.2105 20.1632C29.8152 20.1632 30.674 20.0422 31.4118 19.51V14.7928ZM0.108859 21.3848C0.108859 19.9818 0.120954 18.7843 0 17.345H0.834585C0.84668 18.24 1.08859 18.8932 1.47564 19.3286C2.06832 19.9939 3.4351 20.4051 4.71722 20.4051C7.37821 20.4051 8.61195 19.4012 8.61195 17.2361C8.61195 15.3855 7.46288 14.6114 5.87838 13.5349L5.63647 13.3656L3.9673 12.2528C1.64498 10.7167 0.459627 9.48293 0.459627 7.01546C0.459627 5.81801 0.919253 1.887 6.77344 1.887C8.24909 1.887 10.1965 2.04424 11.3576 2.26196C11.3455 2.44339 11.3213 3.35055 11.3213 4.10046C11.3213 4.98343 11.3213 5.27372 11.3576 6.35021H10.644C10.6198 5.40677 10.3658 4.802 9.95454 4.39075C9.38606 3.83436 8.14023 3.56826 6.82182 3.56826C3.7133 3.56826 3.35043 5.15276 3.35043 6.35021C3.35043 7.99519 4.19711 8.55158 6.03562 9.77322L8.16442 11.1763C9.96664 12.3737 11.6721 13.5107 11.6721 16.5104C11.6721 21.5784 6.95487 22.1227 4.92284 22.1227C3.08434 22.1106 1.60869 21.8807 0.108859 21.3848ZM37.8587 8.57577C38.5723 8.63625 39.6367 8.56368 40.6769 8.38225C41.5599 8.225 41.8744 8.10405 42.5396 7.77747L42.8178 7.94681V9.05959C43.5194 8.53949 44.9466 7.717 46.8698 7.717C49.3857 7.717 51.0306 8.89025 51.5024 11.0311C51.6354 11.5633 51.6838 12.8455 51.6838 13.5349V17.6111C51.6838 19.9213 51.7805 20.5623 52.2039 20.9736C52.4216 21.1671 52.9417 21.3727 53.5586 21.3727V22.0259C52.6635 21.9775 51.0669 21.8928 50.0993 21.8928C48.8172 21.8928 47.3778 21.9533 46.6037 22.038V21.3969C47.2931 21.3244 47.7649 21.1187 48.0189 20.8889C48.418 20.4898 48.4906 19.6794 48.5511 17.9376C48.5632 17.4175 48.5874 16.3289 48.5874 15.5185C48.5874 14.4783 48.5873 13.3898 48.4664 12.3254C48.2608 10.511 47.3052 9.67646 45.503 9.67646C44.2451 9.67646 43.471 9.96675 42.8783 10.257V17.599C42.8783 19.9092 42.9751 20.5502 43.4105 20.9615C43.6282 21.155 44.1725 21.3727 44.7531 21.3606V22.0138C43.5919 21.9533 42.2131 21.8807 41.318 21.8807C39.4553 21.8807 38.8747 21.917 37.7982 22.0259V21.3606C38.403 21.3485 38.9836 21.1429 39.3102 20.768C39.7335 20.2841 39.7577 19.0988 39.7577 16.716V12.7245C39.7577 10.9949 39.7214 10.2691 39.4795 9.89417C39.286 9.60388 38.8142 9.37407 37.8466 9.38617V8.57577H37.8587ZM55.2156 21.3485C55.7841 21.3606 56.401 21.1429 56.7397 20.7559C57.1751 20.2721 57.1993 19.0867 57.1993 16.716V9.78532H55.3729V8.99911C56.147 8.69673 56.8122 8.35805 57.1993 8.05567C57.1993 6.82193 57.2356 5.22534 57.4049 4.35447C57.9492 1.47575 59.8361 0.012207 63.0051 0.012207C64.3961 0.012207 65.7266 0.483929 66.5249 1.17337L66.5733 1.46366L65.1823 3.38683H64.8436C64.3719 2.22567 63.6583 1.56042 62.4124 1.56042C61.977 1.56042 61.3722 1.69347 61.0094 2.06843C60.4167 2.6732 60.3078 3.56826 60.3078 5.34629V8.04357H63.4285V9.77322H60.3078V17.5264C60.3078 19.3649 60.3683 20.26 60.6102 20.6228C60.9973 21.2034 62.231 21.276 62.8358 21.2518V21.9896C61.8077 21.9291 60.2111 21.8566 59.0257 21.8566C57.2961 21.8566 56.1591 21.9049 55.2277 22.0017V21.3485H55.2156ZM71.3026 22.2557C67.0329 22.2557 64.4928 19.5947 64.4928 15.1557C64.4928 11.6964 66.3555 7.66861 71.605 7.66861C75.8625 7.66861 78.4147 10.3175 78.4147 14.7686C78.3905 18.2158 76.5399 22.2557 71.3026 22.2557ZM71.4719 9.27731C70.6373 9.27731 69.9842 9.49503 69.4883 9.90627C68.3755 10.8497 67.807 12.5552 67.807 14.9864C67.807 15.9298 67.9763 20.6228 71.4235 20.6228C72.246 20.6228 72.9113 20.4051 73.3951 19.9939C74.52 19.0504 75.0884 17.3329 75.0884 14.9017C75.0763 13.9824 74.907 9.27731 71.4719 9.27731ZM79.8057 8.52739C80.7491 8.57577 81.7893 8.46691 82.8658 8.27339C83.7004 8.12824 84.2205 7.94681 84.5229 7.80166L84.7769 7.92262V9.13216C85.4542 8.5032 86.5065 7.83795 88.0064 7.83795C89.0949 7.83795 89.8207 8.14034 90.4375 8.69673V9.13216L89.2643 11.2851H88.6958C88.3208 10.632 87.6193 10.0272 86.3735 10.0272C85.7808 10.0272 85.2849 10.1724 84.8494 10.4748V17.5264C84.8494 19.3649 84.9099 20.2358 85.1518 20.5986C85.5389 21.1913 86.7001 21.2518 87.3653 21.2276V22.0017C86.4098 21.9533 84.7527 21.8687 83.5673 21.8687C82.2126 21.8687 80.8821 21.8928 79.7694 22.0138V21.3123C80.5435 21.276 80.991 21.0583 81.2934 20.7196C81.7288 20.2358 81.753 19.0867 81.753 16.7039V12.7124C81.753 10.9828 81.7409 10.2328 81.4748 9.88208C81.245 9.5676 80.737 9.38617 79.8419 9.37407V8.52739H79.8057ZM99.4607 0.810505C100.307 0.810505 101.408 0.653265 102.739 0.423452C103.501 0.290402 104.009 0.157352 104.251 0.0605887L104.492 0.205734C104.371 1.3548 104.371 3.95532 104.371 5.79382V17.1877C104.371 18.8932 104.396 19.9455 104.638 20.2841C104.855 20.5986 105.375 20.8163 106.246 20.8163V21.5663C105.363 21.5663 104.323 21.6751 103.247 21.8566C102.533 21.9775 101.964 22.0864 101.698 22.2436L101.311 22.1106V20.9373C100.622 21.4453 99.243 22.2557 97.4166 22.2557C93.5824 22.2557 91.1028 19.5947 91.1028 15.4823C91.1028 14.1034 91.3689 12.8092 91.8527 11.7206C93.026 9.18054 95.4571 7.72909 98.5294 7.72909C99.6543 7.72909 100.658 7.87424 101.251 7.99519V4.99552C101.251 3.25378 101.227 2.32243 100.973 1.95957C100.779 1.66928 100.489 1.53623 99.4486 1.45156V0.810505H99.4607ZM98.9769 20.2237C99.9324 20.2237 100.574 20.0785 101.275 19.6552V10.2933C101.045 10.0756 100.199 9.36197 98.4931 9.36197C95.7716 9.36197 94.4532 11.2247 94.4532 15.0589C94.4411 16.6676 94.9249 20.2237 98.9769 20.2237ZM22.5822 20.6228C22.1588 21.1308 21.0702 22.2194 18.7963 22.2194C16.6433 22.2194 15.4338 21.4453 14.9016 19.7157C14.6839 19.0262 14.6839 17.6836 14.6839 16.8732C14.6839 14.6356 14.708 12.8455 14.7322 10.7771L14.7443 9.79741H12.9058V9.25312C13.6557 8.96283 14.1638 8.66044 14.6597 8.28548C15.7362 7.4509 16.4377 6.3986 17.2602 4.92295H17.877V8.05567H22.6185V9.78532H17.877V17.1151C17.877 19.3044 18.2762 20.5623 20.3445 20.5623C21.3122 20.5623 21.9532 20.2479 22.3524 20.0422L22.5822 20.6228Z" fill="white"/>
<path d="M89.1555 33.7341C88.9136 33.7341 88.6233 33.8188 88.4298 33.9639C88.2726 34.0849 88.2363 34.2784 88.2363 34.3993C88.2363 34.6292 88.321 34.8469 88.4782 35.2702L89.7845 38.7416C89.978 39.2617 90.1232 39.6971 90.2199 39.9995L91.8165 35.246C92.0101 34.7017 92.0343 34.5687 92.0343 34.3631C92.0343 34.2421 91.9617 34.1091 91.877 34.0123C91.7198 33.8671 91.4537 33.7825 91.1271 33.7583V33.2503C91.3206 33.2503 91.744 33.2745 91.9375 33.2866C92.1189 33.2987 92.506 33.3229 92.8084 33.3229C93.401 33.3229 94.2235 33.2745 94.5864 33.2382V33.7583C94.3445 33.7946 93.7881 33.7099 93.3527 35.0646L89.9417 44.1966C89.4458 45.515 88.829 47.1479 86.4341 47.1479C85.4785 47.1479 84.7891 46.9181 84.2932 46.4343V46.1924L85.1399 45.1643H85.3818C85.6358 45.7207 86.0954 45.9505 86.7365 45.9505C87.825 45.9505 88.2968 45.0191 89.0467 43.0476L89.2523 42.5033L86.3494 35.0646C86.3252 35.0162 86.2889 34.9074 86.2405 34.7864C86.1559 34.5808 85.9986 34.2421 85.9986 34.2421C85.8293 33.8913 85.5027 33.7341 85.1278 33.7583V33.2261C85.6842 33.2745 86.6276 33.3108 87.1114 33.3108C87.438 33.3108 87.9218 33.2866 88.3452 33.2624C88.5871 33.2503 88.9862 33.2261 89.1676 33.2261V33.7341H89.1555ZM57.3929 33.5769C57.9977 33.6131 58.6509 33.5406 59.3403 33.4196C59.8725 33.3229 60.2112 33.214 60.3926 33.1172L60.5498 33.2019V33.976C60.9732 33.5769 61.6505 33.1535 62.6061 33.1535C63.3076 33.1535 63.7672 33.347 64.1543 33.6978V33.976L63.4044 35.3549H63.0415C62.7996 34.9436 62.3521 34.5445 61.5538 34.5445C61.1788 34.5445 60.8643 34.6413 60.574 34.8227V39.3222C60.574 40.4954 60.6103 41.0518 60.7676 41.2816C61.0095 41.6566 61.7473 41.6929 62.1827 41.6808V42.1767C61.5659 42.1404 60.5136 42.092 59.7515 42.092C58.8928 42.092 58.034 42.1041 57.3325 42.1888V41.7413C57.8284 41.7171 58.1066 41.584 58.3001 41.3663C58.5783 41.0518 58.5904 40.3261 58.5904 38.8021V36.2499C58.5904 35.1493 58.5783 34.6654 58.421 34.4356C58.2759 34.23 57.9493 34.1212 57.3808 34.1091V33.5769H57.3929ZM17.3571 42.3098C14.817 42.3098 13.3656 41.5236 12.7729 39.8302C12.4826 38.9593 12.4826 37.9433 12.4826 37.0362V32.2585C12.4826 30.807 12.4221 30.5893 12.1439 30.3474C12.023 30.2385 11.7085 30.0934 11.2852 30.0813V29.5854C11.8899 29.6458 12.8818 29.6821 13.4986 29.6821C14.5388 29.6821 15.0952 29.6579 15.7726 29.5854V30.0934C15.3734 30.0813 15.0347 30.1901 14.817 30.4441C14.5388 30.7586 14.5267 31.3029 14.5267 32.8148V37.0482C14.5267 39.5399 14.7445 41.1849 17.6111 41.1849C20.4656 41.1849 20.6833 39.5036 20.6833 36.9394V32.2585C20.6833 30.807 20.6107 30.5893 20.3446 30.3474C20.1874 30.2022 19.8366 30.0934 19.4859 30.0813V29.5975C20.0422 29.6096 20.768 29.6821 21.4574 29.6821C22.1227 29.6821 22.7879 29.67 23.5741 29.5854V30.0934C23.1508 30.0813 22.8363 30.1901 22.6186 30.4441C22.3404 30.7586 22.3162 31.3029 22.3162 32.8148V36.3951C22.3162 37.5321 22.3162 38.8263 21.9533 39.8302C21.3244 41.5236 19.8729 42.3098 17.3571 42.3098ZM34.4842 41.7655C34.9922 41.705 35.2946 41.6566 35.5244 41.3905C35.8026 41.076 35.8147 40.3503 35.8147 38.8142V36.262C35.8147 35.1614 35.7905 34.6171 35.6333 34.3752C35.4881 34.1695 35.2462 34.0849 34.6172 34.0365V33.5285C34.9922 33.589 35.9115 33.4922 36.6614 33.347C37.0484 33.2866 37.4113 33.1535 37.6411 33.0326L37.8346 33.2261C37.7742 33.7946 37.7621 35.0888 37.7621 36.758V39.3585C37.7621 40.5317 37.7983 41.076 37.9556 41.3058C38.1128 41.5477 38.512 41.705 39.0442 41.7292V42.1525C38.4999 42.1162 37.5927 42.0679 36.7944 42.0679C35.8994 42.0679 34.9559 42.1041 34.4721 42.1646V41.7655H34.4842ZM36.6977 31.5206C35.9961 31.5206 35.5365 31.0731 35.5365 30.4079C35.5365 29.7184 36.0203 29.2588 36.7339 29.2588C37.4355 29.2588 37.9072 29.7063 37.9072 30.3716C37.9072 31.0489 37.4234 31.5206 36.6977 31.5206ZM72.4638 41.7655C72.9598 41.705 73.2621 41.6566 73.5041 41.3905C73.7822 41.076 73.7943 40.3503 73.7943 38.8142V36.262C73.7943 35.1614 73.7702 34.6171 73.6129 34.3752C73.4678 34.1695 73.2259 34.0849 72.5969 34.0365V33.5285C72.9719 33.589 73.9032 33.4922 74.641 33.347C75.0281 33.2866 75.3909 33.1535 75.6208 33.0326L75.8143 33.2261C75.7538 33.7946 75.7417 35.0888 75.7417 36.758V39.3585C75.7417 40.5317 75.778 41.076 75.9352 41.3058C76.0925 41.5477 76.4916 41.705 77.0238 41.7292V42.1525C76.4916 42.1162 75.5724 42.0679 74.7741 42.0679C73.879 42.0679 72.9356 42.1041 72.4518 42.1646V41.7655H72.4638ZM74.6652 31.5206C73.9637 31.5206 73.5041 31.0731 73.5041 30.4079C73.5041 29.7184 73.9879 29.2588 74.7015 29.2588C75.3909 29.2588 75.8627 29.7063 75.8627 30.3716C75.8748 31.0489 75.3909 31.5206 74.6652 31.5206ZM65.1945 41.8622C65.1945 40.943 65.1461 39.9874 65.0856 39.5036H65.6783C65.6904 40.0116 65.8114 40.3745 66.0654 40.6769C66.4161 41.1123 66.8516 41.2696 67.6378 41.2696H67.7466C68.7264 41.2696 69.2344 40.8583 69.2344 40.0358C69.2344 39.3706 68.811 39.0924 68.0974 38.6448L66.8274 37.8586C66.15 37.4474 65.3759 36.8184 65.3759 35.5968C65.3759 34.5566 65.7993 33.8188 66.658 33.3954C67.2144 33.1172 68.0127 33.0809 68.4361 33.0809C69.1739 33.0809 70.202 33.1777 70.7947 33.3108C70.7584 33.5527 70.7342 34.1816 70.7342 34.3872C70.7342 34.5687 70.7463 35.4154 70.7705 35.5726H70.1899C70.1899 35.1976 70.0931 34.8469 69.8512 34.5445C69.6335 34.2663 69.1013 34.0365 68.4361 34.0365C67.5289 34.0365 67.0693 34.4235 67.0693 35.1735C67.0693 35.8024 67.5531 36.0927 67.9764 36.3467L68.0248 36.3709L69.2223 37.0845C70.0327 37.5563 71.0366 38.1368 71.0366 39.5762C71.0366 41.9227 68.8957 42.2856 67.6257 42.2856C66.779 42.2735 66.017 42.1646 65.1945 41.8622ZM84.0513 41.2816C83.7852 41.6082 83.0836 42.2977 81.6443 42.2977C80.2654 42.2977 79.5034 41.8138 79.1647 40.7011C79.0196 40.2656 79.0196 39.4069 79.0196 38.8868C79.0196 37.4595 79.0317 36.3225 79.0438 34.992V34.3752H77.8705V34.0244C78.3543 33.843 78.6688 33.6494 78.9954 33.4075C79.6848 32.8753 80.1203 32.198 80.6525 31.2666H81.0395V33.2745H84.0634V34.3872H81.0395V39.0682C81.0395 40.4713 81.2935 41.2696 82.6119 41.2696C83.2288 41.2696 83.64 41.0639 83.894 40.9309L84.0513 41.2816ZM43.4106 33.2503C43.2292 33.2503 42.83 33.2745 42.5881 33.2866C42.1285 33.3108 41.6205 33.3349 41.2818 33.3349C40.6287 33.3349 39.661 33.2745 39.3587 33.2503V33.7825C39.4554 33.7825 39.9755 33.7341 40.2295 34.3026C40.3384 34.5324 40.4351 34.7501 40.4593 34.8227C40.5077 34.9436 40.5561 35.0767 40.5803 35.1372L43.4469 42.3581L44.3299 42.2009L47.4868 35.1009C47.511 35.0525 47.5473 34.9799 47.5956 34.8832C47.6319 34.7985 47.6803 34.6896 47.8859 34.3147C48.0916 33.9518 48.4786 33.7583 48.8173 33.7825L48.8415 33.2382C48.4786 33.2624 47.6924 33.3229 47.1118 33.3229C46.8094 33.3229 46.495 33.2987 46.1926 33.2866C45.9749 33.2745 45.5999 33.2503 45.3822 33.2503V33.7583C45.6725 33.7462 45.999 33.8792 46.1321 34.0002C46.2047 34.0607 46.2893 34.2179 46.2893 34.3389C46.2893 34.5324 46.253 34.7017 46.0474 35.2339L44.3299 39.4915C44.2452 39.2375 44.1363 38.8868 43.967 38.4392L42.7454 35.2339C42.5639 34.7501 42.5277 34.5566 42.5277 34.3389C42.5277 34.2179 42.5518 34.1212 42.6486 34.0123C42.8179 33.8309 43.1082 33.7341 43.4227 33.7341L43.4106 33.2503ZM23.7797 33.6131C24.2273 33.6494 24.9167 33.601 25.582 33.4922C26.1383 33.3954 26.344 33.3108 26.7673 33.1051L26.9487 33.214V33.9276C27.3963 33.601 28.3034 33.0688 29.5372 33.0688C31.1459 33.0688 32.1861 33.8188 32.4884 35.1856C32.5731 35.5242 32.6094 36.3346 32.6094 36.7821V39.3827C32.6094 40.8583 32.6699 41.2575 32.9481 41.5236C33.0932 41.6445 33.4198 41.7776 33.8189 41.7776V42.1888C33.2384 42.1646 32.2223 42.1041 31.6176 42.1041C30.8072 42.1041 29.8758 42.1404 29.3799 42.2009V41.7897C29.8275 41.7413 30.1298 41.6082 30.275 41.4631C30.529 41.2091 30.5774 40.689 30.6137 39.5883C30.6258 39.2617 30.6378 38.5602 30.6378 38.0401C30.6378 37.3748 30.6378 36.6854 30.5653 36.008C30.4322 34.8469 29.8275 34.3147 28.6784 34.3147C27.8801 34.3147 27.3842 34.4961 27.0092 34.6896V39.3706C27.0092 40.8462 27.0697 41.2454 27.3479 41.5115C27.4809 41.6324 27.8317 41.7655 28.2067 41.7655V42.1767C27.4688 42.1404 26.5859 42.092 26.0174 42.092C24.832 42.092 24.4571 42.1162 23.7676 42.1888V41.7655C24.1547 41.7655 24.5297 41.6203 24.7353 41.3905C25.0014 41.0881 25.0256 40.3261 25.0256 38.8021V36.2499C25.0256 35.1493 25.0014 34.6775 24.8441 34.4356C24.7232 34.2542 24.4087 34.1091 23.8039 34.1091V33.6131H23.7797ZM53.0144 42.2977C50.3292 42.2977 48.8536 40.7494 48.8536 37.9312C48.8536 37.4353 48.9745 33.093 53.0507 33.093C54.2723 33.093 55.3125 33.601 55.8326 34.4356C56.3527 35.2702 56.4253 36.1169 56.4253 36.8547V37.3264H50.8251C50.8251 37.7861 50.8614 38.1368 50.9098 38.4513C51.2122 40.1689 52.1677 41.0035 53.849 41.0035C54.7924 41.0035 55.3972 40.7978 55.9657 40.4833L56.2318 40.9309C55.6149 41.7292 54.4054 42.2977 53.0144 42.2977ZM50.8493 36.3346H54.357C54.357 35.2823 54.1514 34.0728 52.6031 34.0728C51.1638 34.0728 50.8735 35.4154 50.8493 36.3346Z" fill="white"/>
</svg>
