<svg width="16" height="13" viewBox="0 0 16 13" fill="none" xmlns="http://www.w3.org/2000/svg">
<path d="M15.805 6.79084C15.82 6.74751 15.83 6.70584 15.8383 6.66084C15.8467 6.61917 15.8542 6.58001 15.8558 6.53751C15.8567 6.52084 15.8658 6.50584 15.8658 6.48917C15.8658 6.47251 15.8567 6.45751 15.8558 6.44084C15.8533 6.39834 15.8458 6.35834 15.8375 6.31667C15.8292 6.2725 15.8192 6.23084 15.8042 6.18834C15.7933 6.15667 15.7825 6.12584 15.7683 6.09584C15.75 6.05751 15.7258 6.025 15.7025 5.99001C15.6875 5.96667 15.6825 5.93917 15.665 5.91667C15.6542 5.90251 15.6375 5.89667 15.6258 5.88334C15.6025 5.85751 15.58 5.835 15.5542 5.81167C15.5408 5.8 15.5358 5.78417 15.5217 5.77251L9.21332 0.728339C8.81749 0.410839 8.24082 0.477506 7.92582 0.871672C7.60999 1.26751 7.67332 1.84417 8.06916 2.16001L12.335 5.57167H1.05082C0.544989 5.57167 0.134155 5.98251 0.134155 6.48834C0.134155 6.99417 0.544989 7.40501 1.05082 7.40501H12.3367L8.06999 10.8167C7.67416 11.1333 7.60999 11.71 7.92666 12.105C8.10749 12.3317 8.37416 12.4492 8.64332 12.4492C8.84332 12.4492 9.04582 12.3842 9.21499 12.2492L15.5225 7.205C15.5367 7.19417 15.5425 7.17751 15.555 7.16584C15.5817 7.14167 15.605 7.1175 15.6292 7.09084C15.64 7.07834 15.6558 7.07417 15.6667 7.06167C15.685 7.03917 15.6892 7.01084 15.705 6.98667C15.7283 6.95167 15.7517 6.91917 15.77 6.8825C15.7833 6.85334 15.7942 6.82334 15.805 6.79084Z" fill="#000"/>
</svg>
