<svg width="1269" height="342" viewBox="0 0 1269 342" fill="none" xmlns="http://www.w3.org/2000/svg">
<g opacity="0.5">
<path d="M173.084 300.462C122.96 335.816 28.8992 349.368 15.2852 353.492L782.003 353.492C754.156 347.6 722.981 345.473 681.89 324.332C660.617 313.388 629.773 297.94 598.213 269.657C566.653 241.375 558.962 225.968 529.259 188.847C498.964 150.987 490.273 134.302 462.426 107.787C434.579 81.272 417.871 75.7161 395.594 73.9484C373.316 72.1807 352.895 88.0897 334.596 107.787C312.03 132.077 295.61 157.282 277.046 182.029C258.481 206.776 215.239 270.73 173.084 300.462Z" stroke="white" stroke-width="2"/>
<path d="M224.798 50.9688C217.452 73.9484 208.708 99.285 204.376 112.837C194.475 139.941 177.774 180.136 171.226 196.17C158.231 227.988 143.379 261.574 121.101 291.624C88.3404 335.816 14.6645 348.779 4.14453 353.492L605.637 353.492C577.171 347.6 525.221 335.779 501.087 321.416C476.953 307.054 454.766 291.624 433.847 255.806C415.027 223.583 393.735 176.473 380.74 139.352C367.745 102.231 332.738 11.2724 321.599 -14.182C312.317 -35.3939 297.199 -45.9999 284.47 -45.9999C270.955 -45.9999 260.07 -32.1115 252.644 -17.9701C245.219 -3.82881 232.143 27.9892 224.798 50.9688Z" stroke="white" stroke-width="2"/>
<path d="M-214.919 318.139C-269.022 343.897 -342.396 349.368 -382 353.492L505.387 353.492C471.971 349.368 419.651 340.87 390.513 331.622C373.805 326.319 343.875 318.139 306.746 291.624C298.966 286.068 265.638 261.574 249.196 243.897C230.733 224.048 187.933 173.191 158.229 148.443C128.526 123.696 98.5571 107.787 67.2629 107.787C35.2155 107.787 14.751 119.908 -5.40449 134.302C-24.0133 147.592 -62.6892 189.1 -81.2537 210.312C-99.8183 231.524 -166.651 295.159 -214.919 318.139Z" stroke="white" stroke-width="2"/>
</g>
<g opacity="0.5">
<path d="M954.084 295.462C903.96 330.816 809.899 344.368 796.285 348.492L1563 348.492C1535.16 342.6 1503.98 340.473 1462.89 319.332C1441.62 308.388 1410.77 292.94 1379.21 264.657C1347.65 236.375 1339.96 220.968 1310.26 183.847C1279.96 145.987 1271.27 129.302 1243.43 102.787C1215.58 76.272 1198.87 70.7161 1176.59 68.9484C1154.32 67.1807 1133.9 83.0897 1115.6 102.787C1093.03 127.077 1076.61 152.282 1058.05 177.029C1039.48 201.776 996.239 265.73 954.084 295.462Z" stroke="white" stroke-width="2"/>
<path d="M1005.8 45.9688C998.452 68.9484 989.708 94.285 985.376 107.837C975.475 134.941 958.774 175.136 952.226 191.17C939.231 222.988 924.379 256.574 902.101 286.624C869.34 330.816 795.664 343.779 785.145 348.492L1386.64 348.492C1358.17 342.6 1306.22 330.779 1282.09 316.416C1257.95 302.054 1235.77 286.624 1214.85 250.806C1196.03 218.583 1174.74 171.473 1161.74 134.352C1148.74 97.2311 1113.74 6.27245 1102.6 -19.182C1093.32 -40.3939 1078.2 -50.9999 1065.47 -50.9999C1051.95 -50.9999 1041.07 -37.1115 1033.64 -22.9701C1026.22 -8.82881 1013.14 22.9892 1005.8 45.9688Z" stroke="white" stroke-width="2"/>
<path d="M566.081 313.139C511.978 338.897 438.604 344.368 399 348.492L1286.39 348.492C1252.97 344.368 1200.65 335.87 1171.51 326.622C1154.81 321.319 1124.88 313.139 1087.75 286.624C1079.97 281.068 1046.64 256.574 1030.2 238.897C1011.73 219.048 968.933 168.191 939.229 143.443C909.526 118.696 879.557 102.787 848.263 102.787C816.216 102.787 795.751 114.908 775.596 129.302C756.987 142.592 718.311 184.1 699.746 205.312C681.182 226.524 614.349 290.159 566.081 313.139Z" stroke="white" stroke-width="2"/>
</g>
</svg>
