<svg width="70" height="71" viewBox="0 0 70 71" fill="none" xmlns="http://www.w3.org/2000/svg">
<path fill-rule="evenodd" clip-rule="evenodd" d="M9.11294 31.125H17.6252C18.0155 24.3595 19.3037 18.1272 21.2907 13.11C14.9516 16.9996 10.3912 23.5058 9.11294 31.125ZM35 0.5C15.67 0.5 0 16.17 0 35.5C0 54.83 15.67 70.5 35 70.5C54.33 70.5 70 54.83 70 35.5C70 16.17 54.33 0.5 35 0.5ZM35 9.25C34.6673 9.25 33.9844 9.3888 32.9643 10.3956C31.9254 11.4209 30.7891 13.1215 29.7405 15.5683C28.04 19.5361 26.7965 24.9369 26.3916 31.125H43.6084C43.2035 24.9369 41.96 19.5361 40.2595 15.5683C39.2109 13.1215 38.0746 11.4209 37.0357 10.3956C36.0156 9.3888 35.3327 9.25 35 9.25ZM52.3748 31.125C51.9845 24.3595 50.6963 18.1272 48.7093 13.11C55.0484 16.9996 59.6088 23.5058 60.8871 31.125H52.3748ZM43.6084 39.875H26.3916C26.7965 46.0631 28.04 51.4639 29.7405 55.4317C30.7891 57.8785 31.9254 59.5791 32.9643 60.6044C33.9844 61.6112 34.6673 61.75 35 61.75C35.3327 61.75 36.0156 61.6112 37.0357 60.6044C38.0746 59.5791 39.2109 57.8785 40.2595 55.4317C41.96 51.4639 43.2035 46.0631 43.6084 39.875ZM48.7093 57.89C50.6963 52.8728 51.9845 46.6405 52.3748 39.875H60.8871C59.6088 47.4942 55.0484 54.0004 48.7093 57.89ZM21.2907 57.89C19.3037 52.8728 18.0155 46.6405 17.6253 39.875H9.11294C10.3912 47.4942 14.9516 54.0004 21.2907 57.89Z" fill="#2E2D29"/>
</svg>
