<svg width="13" height="20" viewBox="0 0 13 20" fill="none" xmlns="http://www.w3.org/2000/svg">
<path d="M0.321624 8.001L5.52162 13.201C5.95162 13.631 6.64762 13.631 7.07762 13.201L12.2776 8.001C12.7076 7.571 12.7076 6.875 12.2776 6.445C11.8476 6.015 11.1516 6.015 10.7216 6.445L7.39962 9.767L7.39963 1.1C7.39963 0.492999 6.90663 5.30656e-08 6.29963 0C5.69263 -5.30656e-08 5.19963 0.492 5.19963 1.1L5.19962 9.768L1.87662 6.445C1.66263 6.23 1.38062 6.123 1.09962 6.123C0.818624 6.123 0.536626 6.23 0.322626 6.445C-0.107374 6.875 -0.107375 7.571 0.321624 8.001Z" fill="#fff"/>
<path d="M10.7 17H2.1C1.493 17 1 17.492 1 18.1C1 18.708 1.493 19.2 2.1 19.2H10.7C11.307 19.2 11.8 18.708 11.8 18.1C11.8 17.492 11.307 17 10.7 17Z" fill="#fff"/>
</svg>
