<?xml version="1.0" encoding="UTF-8" standalone="no"?>
<svg
   width="1440"
   height="398.97159"
   viewBox="0 0 1440 398.97159"
   fill="none"
   version="1.1"
   id="svg27"
   xmlns="http://www.w3.org/2000/svg"
   xmlns:svg="http://www.w3.org/2000/svg">
  <defs
     id="defs31" />
  <mask
     id="mask0_4886_64093"
     maskUnits="userSpaceOnUse"
     x="-1"
     y="-69"
     width="1440"
     height="468">
    <rect
       x="-1"
       y="-69"
       width="1440"
       height="468"
       fill="#c4c4c4"
       id="rect2" />
  </mask>
  <g
     id="g271"
     transform="translate(1,-0.02841913)">
    <g
       mask="url(#mask0_4886_64093)"
       id="g25">
      <path
         d="m 1651.14,77.4045 c -1.49,0.3077 -2.59,1.4434 -2.93,2.8448 l -44.62,-3.0198 c -0.01,-0.1996 -0.02,-0.3796 -0.06,-0.5785 -0.5,-2.4454 -2.88,-4.0403 -5.33,-3.5418 -2.46,0.4985 -4.04,2.8904 -3.54,5.3358 0.04,0.2486 0.13,0.4761 0.21,0.6938 l -52.15,28.4262 c -1.42,-2.086 -3.99,-3.225 -6.61,-2.701 -2.28,0.463 -4.01,2.078 -4.75,4.113 l -43.43,-9.2707 c 0.02,-0.511 0.02,-1.0311 -0.09,-1.558 -0.34,-1.6799 -1.36,-3.0482 -2.71,-3.8957 l 17.24,-30.8549 c 0.64,0.2198 1.32,0.2978 2.03,0.1553 2.05,-0.4158 3.38,-2.4087 2.95,-4.4662 -0.41,-2.0478 -2.4,-3.3751 -4.46,-2.9593 -2.06,0.4158 -3.38,2.4189 -2.96,4.4667 0.19,0.9044 0.68,1.659 1.35,2.188 l -17.27,30.9162 c -1.02,-0.3679 -2.13,-0.4926 -3.26,-0.2664 -3.27,0.6542 -5.38,3.833 -4.71,7.094 0.01,0.069 0.04,0.128 0.06,0.188 l -47.53,19.074 c -1.79,-3.245 -5.49,-5.138 -9.32,-4.366 -4.1,0.832 -6.94,4.434 -6.96,8.457 l -48.1,4.144 c 0,-0.03 0,-0.06 -0.01,-0.089 -0.69,-3.41 -3.28,-5.919 -6.46,-6.698 l 5.49,-39.6154 c 0.37,-0.0018 0.75,-0.0337 1.13,-0.1058 3.26,-0.6642 5.36,-3.8327 4.7,-7.0935 -0.27,-1.332 -0.97,-2.4502 -1.9,-3.2808 l 17.27,-24.003 c 0.89,0.472 1.93,0.6691 3.01,0.4548 2.44,-0.4982 4.02,-2.8698 3.54,-5.3158 l 20.87,-7.1887 c 0.9,1.7724 2.88,2.81 4.92,2.3948 2.46,-0.4985 4.04,-2.8901 3.54,-5.3455 -0.2,-0.9641 -0.7,-1.7889 -1.37,-2.4079 l 15.76,-22.50298 c 0.71,0.33751 1.53,0.47119 2.37,0.3045 2.04,-0.41546 3.37,-2.41887 2.96,-4.46668 -0.42,-2.0478 -2.42,-3.374739 -4.46,-2.9596 -2.06,0.415775 -3.39,2.41918 -2.97,4.46699 0.15,0.77546 0.54,1.44362 1.06,1.94711 L 1417.9,29.0217 c -0.87,-0.4523 -1.9,-0.6397 -2.95,-0.4261 -2.45,0.4982 -4.02,2.8693 -3.55,5.3153 l -20.87,7.1887 c -0.89,-1.7723 -2.88,-2.8095 -4.93,-2.394 -2.44,0.4882 -4.04,2.8899 -3.54,5.3353 0.19,0.9444 0.67,1.7596 1.32,2.3792 l -17.28,23.9927 c -1.22,-0.6914 -2.67,-0.9954 -4.16,-0.6977 -0.88,0.1779 -1.66,0.5432 -2.33,1.0346 l -10.86,-12.12 c 0.75,-0.9144 1.11,-2.1364 0.85,-3.3888 -0.45,-2.2167 -2.61,-3.6488 -4.81,-3.1983 -2.21,0.4505 -3.65,2.6075 -3.2,4.8143 0.45,2.2168 2.61,3.6489 4.81,3.1983 0.53,-0.1068 0.99,-0.3117 1.42,-0.5853 l 10.86,12.1201 c -1.24,1.3701 -1.85,3.2704 -1.46,5.2189 0.46,2.2667 2.13,3.9442 4.2,4.5585 l -5.49,39.6256 c -0.66,-0.019 -1.34,0.012 -2.03,0.144 -4.71,0.951 -7.74,5.54 -6.79,10.242 0.38,1.859 1.33,3.449 2.63,4.638 l -29.36,39.106 c -2.14,-1.333 -4.78,-1.899 -7.44,-1.354 -1.31,0.262 -2.5,0.77 -3.56,1.454 l -20.12,-25.762 c 1.31,-1.372 1.95,-3.323 1.54,-5.322 -0.65,-3.26 -3.83,-5.37 -7.09,-4.706 -3.26,0.654 -5.37,3.833 -4.71,7.093 0.66,3.251 3.85,5.361 7.1,4.707 0.63,-0.12 1.22,-0.379 1.75,-0.676 l 20.14,25.771 c -2.52,2.352 -3.79,5.904 -3.07,9.523 1.01,4.99 5.49,8.379 10.42,8.202 l 10.27,64.516 c -5.1,1.463 -8.29,6.597 -7.22,11.876 0.42,2.077 1.44,3.876 2.84,5.262 l -30.3,39.235 c -1.7,-0.946 -3.73,-1.352 -5.8,-0.936 -0.61,0.12 -1.2,0.319 -1.75,0.566 l -14.49,-22.799 c 2.83,-2.332 4.31,-6.111 3.54,-9.948 -0.9,-4.434 -4.53,-7.61 -8.78,-8.134 l 0.98,-26.846 c 0.23,-0.027 0.47,-0.025 0.71,-0.072 3.68,-0.748 6.07,-4.335 5.32,-8.013 -0.75,-3.679 -4.34,-6.066 -8.01,-5.318 -1,0.202 -1.89,0.62 -2.66,1.185 l -13.11,-13.749 c 0.87,-1.179 1.28,-2.692 0.96,-4.233 -0.45,-2.197 -2.19,-3.802 -4.26,-4.186 l 1.97,-35.361 c 0.23,-0.017 0.46,-0.024 0.69,-0.072 2.88,-0.582 4.75,-3.393 4.17,-6.286 -0.58,-2.883 -3.4,-4.754 -6.28,-4.162 -2.9,0.582 -4.76,3.403 -4.18,6.286 0.45,2.197 2.19,3.792 4.27,4.176 l -1.98,35.372 c -0.23,0.017 -0.46,0.014 -0.7,0.062 -2.1,0.427 -3.66,2.038 -4.12,4.003 l -18.68,-2.016 c -0.01,-0.239 -0.03,-0.479 -0.07,-0.718 -0.5,-2.455 -2.89,-4.04 -5.34,-3.542 -2.46,0.499 -4.04,2.89 -3.54,5.336 0.5,2.455 2.88,4.04 5.34,3.551 1.75,-0.355 3.05,-1.687 3.47,-3.302 l 18.67,2.007 c 0,0.32 0.03,0.639 0.09,0.967 0.59,2.883 3.41,4.754 6.3,4.171 0.72,-0.142 1.37,-0.423 1.94,-0.812 l 13.11,13.739 c -1.21,1.52 -1.8,3.53 -1.38,5.587 0.57,2.834 2.83,4.883 5.52,5.337 l -0.98,26.835 c -0.5,0.026 -1.01,0.073 -1.52,0.179 -3.74,0.759 -6.57,3.451 -7.7,6.828 l -19.4,-4.584 c 0.06,-0.662 0.07,-1.332 -0.08,-2.028 -0.74,-3.678 -4.33,-6.055 -8.01,-5.308 -3.68,0.748 -6.06,4.325 -5.31,8.013 0.75,3.678 4.34,6.065 8.02,5.318 2.37,-0.476 4.18,-2.145 4.99,-4.252 l 19.39,4.585 c -0.16,1.136 -0.16,2.316 0.09,3.509 1.12,5.547 6.53,9.137 12.07,8.019 0.85,-0.167 1.63,-0.452 2.37,-0.795 l 14.5,22.829 c -2.23,1.942 -3.4,4.951 -2.77,8.052 0.07,0.388 0.21,0.744 0.33,1.11 l -8.76,3.882 c -0.97,-1.54 -2.82,-2.401 -4.71,-2.021 -2.45,0.498 -4.04,2.89 -3.55,5.345 0.5,2.456 2.9,4.04 5.35,3.542 2.46,-0.489 4.04,-2.891 3.55,-5.336 -0.02,-0.109 -0.06,-0.198 -0.09,-0.297 l 8.77,-3.882 c 1.47,2.715 4.31,4.465 7.43,4.456 l 7.09,46.748 c -4.3,1.217 -7.24,5.103 -7.33,9.458 l -32.32,2.171 c -0.01,-0.07 0,-0.15 -0.02,-0.229 -0.93,-4.563 -5.38,-7.513 -9.94,-6.597 -1.65,0.332 -3.08,1.139 -4.19,2.225 l -21.06,-17.509 c 0.9,-1.429 1.28,-3.182 0.92,-4.972 -0.75,-3.678 -4.33,-6.054 -8.01,-5.317 -3.68,0.748 -6.06,4.335 -5.31,8.013 0.74,3.679 4.33,6.066 8,5.318 1.28,-0.26 2.37,-0.866 3.25,-1.684 l 21.06,17.508 c -1.2,1.799 -1.71,4.056 -1.25,6.353 0.27,1.322 0.86,2.484 1.64,3.49 l -15.93,13.784 c -1.06,-0.927 -2.53,-1.38 -4.02,-1.073 -2.54,0.512 -4.2,2.996 -3.67,5.55 0.52,2.545 2.99,4.197 5.55,3.676 2.54,-0.522 4.18,-3.006 3.67,-5.551 -0.12,-0.586 -0.36,-1.119 -0.65,-1.589 l 15.94,-13.805 c 1.92,1.789 4.63,2.673 7.41,2.104 3.89,-0.784 6.58,-4.131 6.74,-7.938 l 32.33,-2.162 c 0.02,0.15 0.04,0.299 0.06,0.439 0.42,2.077 1.46,3.875 2.88,5.251 l -39.8,53.125 c -1.67,-0.907 -3.64,-1.285 -5.65,-0.871 -3.49,0.702 -6.02,3.474 -6.62,6.775 l -59.66,-1.74 c -0.03,-0.34 -0.08,-0.688 -0.16,-1.036 -0.71,-3.529 -3.19,-6.231 -6.33,-7.422 l 2.75,-9.082 c 0.5,0.054 1.02,0.057 1.55,-0.049 2.77,-0.569 4.56,-3.268 4.01,-6.041 -0.04,-0.159 -0.1,-0.297 -0.15,-0.456 l 9.37,-5.591 c 0.71,0.868 1.84,1.332 3.01,1.095 1.68,-0.344 2.76,-1.979 2.43,-3.66 -0.33,-1.68 -1.98,-2.768 -3.66,-2.424 -1.68,0.343 -2.77,1.979 -2.43,3.659 0.01,0.05 0.03,0.089 0.04,0.129 l -9.32,5.559 c -1.1,-1.766 -3.2,-2.769 -5.36,-2.33 -0.37,0.072 -0.72,0.193 -1.07,0.344 l -9.6,-17.042 c 1.52,-1.15 2.35,-3.107 1.96,-5.105 -0.57,-2.774 -3.27,-4.569 -6.05,-4.01 -2.77,0.558 -4.56,3.267 -4,6.041 0.56,2.773 3.26,4.578 6.04,4.01 0.3,-0.06 0.6,-0.16 0.89,-0.279 l 9.64,17.091 c -1.43,1.166 -2.2,3.042 -1.81,4.981 0.36,1.779 1.62,3.15 3.19,3.76 l -2.72,8.991 c -1.36,-0.317 -2.8,-0.361 -4.25,-0.065 -1.86,0.38 -3.48,1.242 -4.77,2.423 l -64.11,-54.965 c 1,-1.532 1.59,-3.332 1.63,-5.234 l 11.69,-0.733 c 0.7,3.179 3.8,5.231 7,4.579 3.23,-0.653 5.32,-3.791 4.66,-7.022 -0.65,-3.231 -3.79,-5.312 -7.02,-4.658 -2.65,0.534 -4.5,2.754 -4.73,5.323 l -11.72,0.724 c -0.02,-0.17 -0.04,-0.34 -0.07,-0.508 -0.31,-1.541 -0.96,-2.911 -1.85,-4.083 l 33.73,-28.87 c 1.93,1.819 4.66,2.713 7.46,2.143 4.21,-0.854 7.01,-4.725 6.69,-8.907 l 24.47,-3.712 c 0.65,2.261 2.92,3.679 5.27,3.214 2.46,-0.499 4.07,-2.901 3.57,-5.376 -0.5,-2.466 -2.91,-4.06 -5.38,-3.561 -2.17,0.439 -3.67,2.358 -3.65,4.489 l -24.44,3.711 c -0.96,-4.152 -4.82,-6.87 -8.99,-6.487 l -4.84,-23.898 c 2.38,-0.917 3.84,-3.445 3.32,-6.029 -0.24,-1.163 -0.85,-2.154 -1.66,-2.889 l 11.96,-17.13 c 1.44,0.815 3.16,1.161 4.91,0.815 3.85,-0.784 6.36,-4.545 5.57,-8.402 -0.09,-0.468 -0.24,-0.923 -0.42,-1.348 l 21.08,-10.446 c 0.98,1.559 2.84,2.44 4.76,2.059 2.46,-0.499 4.07,-2.901 3.57,-5.377 -0.5,-2.465 -2.91,-4.059 -5.38,-3.57 -2.47,0.499 -4.06,2.911 -3.57,5.376 0.06,0.248 0.13,0.476 0.22,0.703 l -21.1,10.468 c -1.37,-2.387 -4.06,-3.802 -6.89,-3.502 l -4.55,-22.486 c 2.5,-0.851 4.08,-3.432 3.54,-6.096 -0.33,-1.61 -1.35,-2.869 -2.69,-3.597 l 7.91,-30.116 c 0.29,0.02 0.58,0.011 0.89,-0.049 1.86,-0.38 3.07,-2.199 2.69,-4.058 -0.38,-1.869 -2.2,-3.071 -4.07,-2.691 -1.86,0.379 -3.07,2.188 -2.69,4.057 0.22,1.094 0.94,1.951 1.87,2.402 l -7.85,29.955 c -0.75,-0.196 -1.56,-0.24 -2.37,-0.075 -2.89,0.583 -4.76,3.404 -4.18,6.297 0.55,2.684 3.02,4.466 5.69,4.231 l 4.5,22.488 c -3.49,1.052 -5.68,4.563 -4.95,8.202 0.33,1.63 1.21,2.993 2.39,3.996 l -11.97,17.14 c -1.04,-0.547 -2.27,-0.778 -3.51,-0.529 -2.9,0.583 -4.77,3.404 -4.19,6.287 0.53,2.594 2.85,4.351 5.4,4.27 l 4.84,23.888 c -4.07,1.28 -6.6,5.413 -5.74,9.668 0.24,1.153 0.69,2.199 1.32,3.109 l -33.78,28.891 c -1.73,-1.586 -3.99,-2.554 -6.41,-2.646 l -1.26,-37.69 c 0.16,-0.025 0.34,-0.01 0.5,-0.046 4.57,-0.926 7.52,-5.372 6.6,-9.935 -0.92,-4.563 -5.37,-7.523 -9.93,-6.597 -1.24,0.25 -2.35,0.775 -3.3,1.476 l -20.19,-22.168 c 1.3,-1.532 1.92,-3.603 1.49,-5.711 -0.59,-2.882 -2.92,-4.939 -5.67,-5.352 l 1.54,-27.533 c 0.15,-0.015 0.3,-0.019 0.45,-0.044 2.29,-0.463 3.77,-2.681 3.3,-4.967 -0.06,-0.319 -0.16,-0.616 -0.3,-0.901 l 23.03,-14.902 c 0.97,1.09 2.46,1.662 3.99,1.354 2.29,-0.464 3.77,-2.692 3.3,-4.968 -0.25,-1.253 -1.05,-2.248 -2.08,-2.825 l 7.53,-19.88 c 0.36,0.058 0.73,0.056 1.11,-0.016 1.68,-0.343 2.77,-1.979 2.43,-3.659 -0.34,-1.68 -1.97,-2.769 -3.66,-2.425 -1.68,0.344 -2.77,1.98 -2.43,3.66 0.18,0.864 0.69,1.558 1.39,1.997 l -7.53,19.86 c -0.57,-0.123 -1.15,-0.134 -1.74,-0.015 -2.27,0.463 -3.75,2.691 -3.3,4.967 0.07,0.318 0.18,0.615 0.3,0.902 l -23.05,14.902 c -0.96,-1.09 -2.46,-1.673 -3.98,-1.354 -0.36,0.071 -0.69,0.202 -1,0.352 l -15.5,-22.648 c 1.04,-0.963 1.57,-2.421 1.27,-3.913 -0.34,-1.679 -1.63,-2.919 -3.2,-3.279 l 1.45,-20.047 c 0.07,-0.012 0.14,-0.004 0.21,-0.016 1.68,-0.344 2.77,-1.979 2.43,-3.659 -0.35,-1.68 -1.98,-2.769 -3.66,-2.425 -1.68,0.334 -2.77,1.969 -2.43,3.659 0.24,1.183 1.13,2.056 2.2,2.362 l -1.45,20.056 c -0.17,0.015 -0.33,0.01 -0.51,0.046 -1.55,0.31 -2.72,1.457 -3.16,2.862 l -22.39,-3.548 c 0,-0.16 -0.02,-0.32 -0.04,-0.479 -0.35,-1.68 -1.98,-2.769 -3.66,-2.425 -1.68,0.334 -2.77,1.979 -2.43,3.659 0.34,1.681 1.98,2.759 3.66,2.425 1.09,-0.225 1.92,-0.982 2.28,-1.953 l 22.38,3.548 c 0,0.29 0.01,0.58 0.07,0.878 0.47,2.286 2.69,3.756 4.97,3.303 0.36,-0.071 0.69,-0.201 1,-0.351 l 15.5,22.647 c -1.04,0.974 -1.57,2.432 -1.28,3.913 0.35,1.71 1.69,2.958 3.28,3.297 l -1.53,27.503 c -0.37,0.012 -0.73,0.033 -1.11,0.115 -3.68,0.738 -6.06,4.335 -5.32,8.014 0.74,3.678 4.34,6.065 8.02,5.317 0.94,-0.19 1.79,-0.567 2.52,-1.081 l 20.18,22.148 c -1.69,1.915 -2.53,4.553 -1.98,7.247 0.77,3.808 3.99,6.446 7.67,6.709 l 1.3,37.718 c -0.22,0.037 -0.45,0.054 -0.67,0.101 -2.33,0.475 -4.31,1.719 -5.72,3.415 l -19.05,-13.25 c 0.56,-1.149 0.79,-2.466 0.51,-3.798 -0.65,-3.231 -3.79,-5.313 -7.02,-4.669 -3.22,0.653 -5.31,3.801 -4.66,7.032 0.66,3.22 3.81,5.311 7.03,4.658 1.25,-0.25 2.32,-0.884 3.13,-1.751 l 19.03,13.251 c -0.9,1.569 -1.37,3.386 -1.31,5.265 l -74.21,12.52 c -1.04,-3.478 -3.84,-6.031 -7.22,-6.863 l 2.839,-17.95 c 0.191,-0.006 0.401,-0.012 0.591,-0.058 2.28,-0.464 3.76,-2.692 3.3,-4.969 -0.15,-0.755 -0.51,-1.414 -0.99,-1.949 l 12.43,-15.144 c 0.87,0.503 1.9,0.721 2.95,0.507 2.29,-0.463 3.77,-2.692 3.3,-4.968 -0.03,-0.149 -0.09,-0.287 -0.13,-0.426 l 11.73,-5.126 c 0.67,1.069 1.94,1.669 3.24,1.407 1.68,-0.344 2.77,-1.979 2.42,-3.659 -0.34,-1.68 -1.98,-2.768 -3.66,-2.425 -1.68,0.344 -2.76,1.979 -2.42,3.659 0.01,0.07 0.04,0.139 0.07,0.199 l -11.75,5.126 c -0.71,-1.258 -2.02,-2.066 -3.49,-2.12 l -2.57,-21.209 c 1.43,-0.505 2.31,-1.994 2.01,-3.525 -0.17,-0.835 -0.66,-1.52 -1.32,-1.959 l 10.54,-21.977 c 0.48,0.155 0.99,0.198 1.53,0.091 1.68,-0.344 2.77,-1.979 2.43,-3.659 -0.35,-1.68 -1.98,-2.768 -3.65,-2.425 -1.68,0.344 -2.77,1.979 -2.44,3.66 0.18,0.834 0.66,1.519 1.32,1.959 l -10.54,21.976 c -0.47,-0.145 -1.01,-0.198 -1.53,-0.091 -1.68,0.334 -2.77,1.979 -2.44,3.66 0.28,1.372 1.43,2.325 2.75,2.453 l 2.59,21.209 c -2.08,0.607 -3.41,2.71 -2.97,4.867 0.16,0.755 0.52,1.404 0.98,1.939 l -12.42,15.154 c -0.87,-0.503 -1.893,-0.72 -2.947,-0.507 -0.506,0.107 -0.97,0.311 -1.392,0.565 l -10.218,-11.69 c 0.509,-0.677 0.731,-1.554 0.552,-2.449 -0.344,-1.68 -1.979,-2.769 -3.659,-2.425 -1.68,0.334 -2.768,1.979 -2.424,3.659 0.343,1.68 1.979,2.769 3.658,2.425 0.319,-0.06 0.595,-0.179 0.871,-0.328 l 10.217,11.701 c -0.79,0.945 -1.169,2.218 -0.908,3.52 0.297,1.462 1.323,2.589 2.61,3.089 l -2.82,17.949 c -0.872,-0.063 -1.771,-0.014 -2.676,0.165 -1.789,0.357 -3.363,1.188 -4.648,2.319 l -46.855,-41.468 c 1.482,-2.168 2.125,-4.9 1.556,-7.683 -0.69,-3.42 -3.045,-6.077 -6.046,-7.322 l 9.343,-30.163 c 0.714,0.118 1.445,0.124 2.2,-0.03 3.361,-0.677 5.527,-3.957 4.85,-7.318 -0.048,-0.248 -0.146,-0.485 -0.224,-0.723 l 26.154,-13.17 c 0.958,1.18 2.509,1.811 4.1,1.49 2.286,-0.463 3.756,-2.691 3.303,-4.968 -0.463,-2.276 -2.691,-3.756 -4.977,-3.293 -2.277,0.463 -3.767,2.692 -3.304,4.968 0.013,0.08 0.045,0.139 0.067,0.218 l -26.134,13.159 c -1.373,-1.957 -3.818,-3.029 -6.304,-2.53 -0.894,0.179 -1.693,0.554 -2.397,1.057 l -13.098,-13.52 c 0.602,-0.899 0.856,-2.028 0.629,-3.181 -0.462,-2.277 -2.691,-3.757 -4.967,-3.294 -2.286,0.463 -3.766,2.691 -3.303,4.968 0.463,2.286 2.681,3.757 4.967,3.293 0.507,-0.096 0.971,-0.301 1.383,-0.554 l 13.118,13.539 c -1.057,1.374 -1.56,3.171 -1.191,5 0.403,1.989 1.723,3.537 3.42,4.354 l -9.354,30.163 c -1.319,-0.288 -2.711,-0.314 -4.112,-0.029 -4.772,0.972 -8.07,5.16 -8.071,9.852 l -48.445,5.937 c -0.588,-2.133 -1.954,-3.87 -3.74,-4.944 l 10.341,-22.131 c 1.614,0.439 3.404,0.082 4.747,-1.111 2.121,-1.879 2.317,-5.127 0.429,-7.257 -1.474,-1.654 -3.77,-2.122 -5.726,-1.349 l -9.655,-15.7 c 1.76,-1.917 1.845,-4.881 0.081,-6.866 -0.301,-0.341 -0.65,-0.62 -1.018,-0.858 l 9.265,-25.738 c 0.29,0 0.599,-0.02 0.898,-0.079 2.286,-0.463 3.766,-2.681 3.303,-4.968 -0.453,-2.277 -2.681,-3.766 -4.977,-3.293 -2.277,0.463 -3.757,2.691 -3.304,4.968 0.273,1.352 1.177,2.403 2.336,2.957 l -9.155,25.434 c -1.572,-0.37 -3.292,-0.005 -4.586,1.147 -2.12,1.889 -2.327,5.127 -0.438,7.258 1.587,1.79 4.141,2.189 6.179,1.143 l 9.55,15.534 c -2.121,1.879 -2.318,5.127 -0.429,7.247 0.27,0.312 0.568,0.563 0.895,0.793 l -10.35,22.14 c -1.366,-0.476 -2.871,-0.628 -4.402,-0.319 -2.833,0.57 -5.033,2.501 -6.095,4.976 l -13.538,-4.12 c 0.038,-0.392 0.036,-0.782 -0.047,-1.18 -0.463,-2.276 -2.691,-3.756 -4.978,-3.293 -2.286,0.464 -3.756,2.691 -3.303,4.968 0.463,2.287 2.691,3.757 4.967,3.294 1.253,-0.25 2.248,-1.053 2.835,-2.082 l 13.539,4.121 c -0.197,1.046 -0.212,2.148 0.014,3.261 0.343,1.68 1.16,3.125 2.276,4.26 l -28.144,37.655 c -2.038,-1.165 -4.484,-1.628 -6.97,-1.128 -5.447,1.104 -8.97,6.419 -7.876,11.867 0.083,0.398 0.185,0.774 0.307,1.151 L 762.48,435.5 c -1.439,-2.135 -3.814,-3.5 -6.421,-3.677 l -0.721,-31.082 c 1.725,-0.195 3.414,-0.89 4.805,-2.125 2.685,-2.387 3.549,-6.056 2.486,-9.264 l 17.141,-7.459 c 0.147,0.215 0.284,0.44 0.461,0.645 1.889,2.121 5.127,2.318 7.248,0.44 2.121,-1.879 2.317,-5.127 0.439,-7.248 -1.879,-2.121 -5.136,-2.318 -7.258,-0.44 -1.508,1.339 -2.023,3.367 -1.525,5.202 l -17.151,7.46 c -0.308,-0.56 -0.665,-1.109 -1.112,-1.615 -0.695,-0.789 -1.515,-1.383 -2.38,-1.856 l 15.166,-35.2 c 2.841,0.93 6.086,0.406 8.48,-1.722 2.52,-2.231 3.403,-5.601 2.625,-8.657 l 22.132,-7.819 c 0.182,0.354 0.402,0.687 0.672,0.988 1.888,2.121 5.136,2.318 7.258,0.439 2.121,-1.878 2.317,-5.136 0.429,-7.257 -1.879,-2.121 -5.127,-2.318 -7.248,-0.429 -1.411,1.245 -1.942,3.083 -1.617,4.804 l -22.152,7.83 c -0.345,-0.77 -0.779,-1.506 -1.36,-2.168 -1.837,-2.073 -4.438,-3.02 -7.005,-2.878 l -6.283,-42.982 c 1.092,-0.275 2.136,-0.779 3.031,-1.578 3.007,-2.667 3.29,-7.278 0.623,-10.284 -2.678,-3.017 -7.278,-3.29 -10.295,-0.623 -3.016,2.677 -3.29,7.279 -0.612,10.295 1.505,1.703 3.631,2.495 5.74,2.418 l 6.292,42.982 c -1.35,0.323 -2.651,0.934 -3.771,1.921 -3.59,3.186 -3.925,8.689 -0.729,12.279 0.696,0.788 1.515,1.383 2.381,1.855 l -15.166,35.201 c -2.841,-0.93 -6.086,-0.406 -8.48,1.721 -0.759,0.675 -1.334,1.463 -1.808,2.299 L 721.393,376.64 c 0.801,-2.487 0.341,-5.314 -1.507,-7.406 -1.982,-2.228 -4.977,-2.993 -7.686,-2.267 l -11.704,-30.382 c 0.335,-0.191 0.658,-0.411 0.95,-0.671 2.238,-1.982 2.448,-5.42 0.466,-7.658 -1.983,-2.238 -5.421,-2.439 -7.659,-0.456 -2.238,1.982 -2.438,5.42 -0.456,7.658 1.359,1.528 3.388,2.083 5.266,1.663 l 11.714,30.402 c -0.571,0.289 -1.12,0.626 -1.616,1.072 -3.133,2.782 -3.43,7.603 -0.638,10.746 0.083,0.097 0.185,0.154 0.278,0.251 l -15.363,15.217 c -1.51,-1.242 -3.521,-1.848 -5.588,-1.432 -3.639,0.736 -5.997,4.283 -5.261,7.921 0.737,3.639 4.283,5.987 7.922,5.251 3.638,-0.737 5.986,-4.283 5.25,-7.922 -0.215,-1.103 -0.726,-2.067 -1.383,-2.877 l 15.421,-15.279 c 2.826,2.011 6.754,1.906 9.459,-0.492 0.633,-0.56 1.122,-1.226 1.53,-1.929 l 25.412,11.276 c -0.979,2.862 -0.464,6.148 1.694,8.57 1.577,1.781 3.73,2.763 5.935,2.902 l 0.721,31.083 c -0.239,0.028 -0.469,0.025 -0.708,0.073 -1.888,0.39 -3.487,1.392 -4.655,2.75 l -6.846,-4.485 c 0.355,-0.781 0.478,-1.655 0.299,-2.56 -0.474,-2.296 -2.702,-3.776 -4.999,-3.313 -2.286,0.463 -3.775,2.702 -3.312,4.988 0.463,2.297 2.691,3.777 4.988,3.313 0.915,-0.179 1.7,-0.664 2.28,-1.303 l 6.784,4.436 c -0.456,0.745 -0.811,1.547 -1.034,2.404 l -0.148,1.636 -34.801,3.33 c -1.133,-5.396 -6.417,-8.89 -11.844,-7.786 -3.4,0.688 -6.057,3.024 -7.303,5.995 l -33.989,-9.792 0.156,-1.686 c -0.023,-0.409 -0.036,-0.819 -0.119,-1.226 -0.926,-4.563 -5.372,-7.513 -9.935,-6.597 -0.318,0.07 -0.614,0.19 -0.921,0.289 l -6.478,-15.521 c 3.329,-1.657 5.281,-5.371 4.509,-9.189 -0.32,-1.57 -1.074,-2.927 -2.079,-4.016 l 5.583,-9.432 c 0.607,0.21 1.279,0.28 1.955,0.148 2.028,-0.415 3.346,-2.388 2.931,-4.426 -0.415,-2.028 -2.398,-3.345 -4.426,-2.931 -2.028,0.405 -3.336,2.388 -2.93,4.426 0.178,0.895 0.682,1.629 1.339,2.159 l -5.379,9.206 c -1.88,-1.521 -4.384,-2.242 -6.939,-1.72 -1.68,0.334 -3.144,1.161 -4.279,2.298 l -20.231,-18.235 c 0.592,-0.9 0.846,-2.028 0.62,-3.162 -0.345,-1.73 -1.727,-2.996 -3.367,-3.304 l 0.656,-19.271 c 0.07,-0.002 0.13,-0.004 0.2,-0.016 1.918,-0.391 3.169,-2.262 2.778,-4.181 -0.391,-1.918 -2.262,-3.169 -4.181,-2.778 -1.918,0.392 -3.169,2.262 -2.778,4.181 0.286,1.431 1.4,2.477 2.739,2.764 l -0.666,19.271 c -0.119,0.014 -0.23,0.007 -0.349,0.031 -1.958,0.392 -3.305,2.086 -3.374,4 l -17.753,2.076 c -0.525,-1.724 -2.281,-2.818 -4.08,-2.451 -1.919,0.382 -3.16,2.262 -2.779,4.181 0.392,1.918 2.262,3.159 4.181,2.778 1.611,-0.321 2.727,-1.698 2.828,-3.262 l 17.762,-2.087 c 0.578,2.133 2.702,3.476 4.889,3.036 0.696,-0.142 1.316,-0.462 1.833,-0.889 l 20.282,18.273 c -1.371,1.854 -2.016,4.237 -1.517,6.682 0.925,4.563 5.372,7.522 9.935,6.596 0.328,-0.06 0.614,-0.189 0.921,-0.289 l 6.478,15.521 c -3.329,1.667 -5.282,5.371 -4.51,9.189 0.049,0.268 0.156,0.495 0.234,0.753 l -55.105,26.139 c -1.485,-2.334 -3.878,-3.959 -6.586,-4.483 l 1.903,-15.328 c 0.44,0.006 0.889,-0.028 1.347,-0.113 3.4,-0.688 5.595,-4 4.907,-7.39 -0.688,-3.39 -4,-5.585 -7.4,-4.907 -3.39,0.689 -5.596,4 -4.907,7.4 0.499,2.475 2.408,4.306 4.717,4.852 l -1.902,15.349 c -0.842,-0.043 -1.701,-0.006 -2.566,0.172 -2.206,0.45 -4.091,1.591 -5.492,3.156 l -41.961,-31.389 c 1.035,-1.734 1.478,-3.829 1.04,-5.966 -0.926,-4.563 -5.372,-7.512 -9.935,-6.597 -0.418,0.084 -0.803,0.226 -1.189,0.369 l -16.316,-33.518 c 2.027,-1.375 3.148,-3.882 2.626,-6.437 -0.428,-2.137 -1.912,-3.801 -3.797,-4.561 l 7.622,-26.096 c 0.533,0.083 1.084,0.095 1.64,-0.023 2.545,-0.511 4.207,-3.005 3.685,-5.549 -0.521,-2.545 -3.005,-4.207 -5.56,-3.686 -2.545,0.522 -4.206,3.006 -3.685,5.551 0.32,1.55 1.369,2.768 2.719,3.365 l -7.633,26.087 c -0.765,-0.146 -1.576,-0.161 -2.401,0.006 -2.197,0.45 -3.879,1.994 -4.616,3.959 l -24.671,-6.517 c 0.064,-0.502 0.069,-1.003 -0.038,-1.52 -0.521,-2.544 -3.005,-4.206 -5.56,-3.685 -2.545,0.512 -4.207,3.006 -3.685,5.561 0.512,2.555 3.006,4.196 5.56,3.685 1.601,-0.322 2.847,-1.422 3.422,-2.821 l 24.66,6.518 c -0.117,0.724 -0.123,1.474 0.032,2.23 0.688,3.389 3.999,5.585 7.39,4.907 0.228,-0.048 0.436,-0.134 0.663,-0.211 l 16.327,33.536 c -2.894,1.814 -4.524,5.267 -3.802,8.796 0.926,4.563 5.373,7.513 9.936,6.597 1.799,-0.368 3.34,-1.288 4.491,-2.545 l 41.951,31.38 c -0.923,1.5 -1.458,3.238 -1.5,5.06 l -22.654,1.492 c -0.706,-3.319 -3.956,-5.466 -7.296,-4.79 -1.918,0.392 -3.429,1.641 -4.259,3.248 l -10.598,-4.164 c 0.132,-0.575 0.153,-1.176 0.034,-1.783 -0.463,-2.276 -2.681,-3.756 -4.968,-3.293 -2.286,0.463 -3.756,2.691 -3.303,4.968 0.463,2.286 2.691,3.766 4.967,3.293 1.233,-0.249 2.219,-1.021 2.797,-2.03 l 10.598,4.175 c -0.251,0.918 -0.339,1.902 -0.138,2.896 0.119,0.566 0.325,1.089 0.581,1.582 l -20.82,14.77 c -0.958,-0.869 -2.303,-1.307 -3.674,-1.023 -2.287,0.463 -3.756,2.691 -3.304,4.968 0.464,2.286 2.691,3.756 4.968,3.293 2.276,-0.463 3.756,-2.691 3.293,-4.967 -0.059,-0.288 -0.148,-0.556 -0.256,-0.823 l 20.81,-14.76 c 1.418,1.496 3.544,2.248 5.711,1.809 2.773,-0.559 4.71,-2.901 4.924,-5.59 l 22.684,-1.493 c 0.025,0.149 0.04,0.298 0.064,0.448 0.417,2.088 1.465,3.885 2.889,5.251 l -28.154,37.676 c -1.669,-0.898 -3.632,-1.275 -5.64,-0.871 -3.927,0.796 -6.64,4.194 -6.748,8.039 l -48.435,5.936 c -1.306,-5.191 -6.454,-8.488 -11.743,-7.419 -1.799,0.367 -3.373,1.188 -4.658,2.319 l -46.855,-41.468 c 1.482,-2.168 2.125,-4.9 1.566,-7.674 -0.132,-0.686 -0.342,-1.32 -0.602,-1.942 l 10.349,-5.232 c 1.09,1.576 3.049,2.434 5.047,2.03 2.674,-0.535 4.402,-3.142 3.857,-5.815 -0.536,-2.675 -3.142,-4.403 -5.816,-3.857 -2.674,0.535 -4.402,3.152 -3.867,5.816 0.047,0.219 0.123,0.416 0.19,0.614 l -10.378,5.244 c -0.941,-1.581 -2.293,-2.879 -3.881,-3.729 l 8.848,-20.602 c 0.908,0.241 1.881,0.31 2.865,0.109 3.4,-0.689 5.595,-4 4.907,-7.39 -0.166,-0.825 -0.491,-1.576 -0.932,-2.232 l 12.261,-10.215 c 0.957,0.829 2.261,1.238 3.593,0.966 2.276,-0.463 3.756,-2.692 3.303,-4.978 -0.463,-2.277 -2.691,-3.757 -4.968,-3.294 -2.286,0.463 -3.756,2.691 -3.303,4.968 0.095,0.477 0.289,0.911 0.522,1.304 l -12.261,10.216 c -1.435,-1.395 -3.508,-2.08 -5.605,-1.653 -0.368,0.072 -0.725,0.194 -1.061,0.324 l -9.5,-18.056 c 1.448,-1.047 2.239,-2.883 1.86,-4.741 -0.298,-1.492 -1.286,-2.661 -2.566,-3.29 l 6.071,-21.395 c 0.543,0.093 1.114,0.095 1.691,-0.014 2.545,-0.521 4.206,-2.995 3.685,-5.55 -0.522,-2.545 -3.006,-4.206 -5.56,-3.685 -1.005,0.203 -1.859,0.72 -2.507,1.421 L 393.94,355.692 c 0.301,-0.6 0.418,-1.294 0.276,-1.989 -0.343,-1.68 -1.979,-2.769 -3.659,-2.425 -1.68,0.344 -2.768,1.979 -2.424,3.659 0.343,1.68 1.979,2.758 3.659,2.425 0.586,-0.119 1.107,-0.416 1.515,-0.799 l 24.018,17.754 c -0.55,0.958 -0.793,2.106 -0.546,3.279 0.321,1.6 1.421,2.846 2.83,3.421 l -6.044,21.304 c -0.635,-0.15 -1.306,-0.179 -1.992,-0.037 -2.545,0.511 -4.196,3.005 -3.685,5.56 0.512,2.545 3.006,4.196 5.561,3.685 0.218,-0.047 0.426,-0.124 0.633,-0.2 l 9.501,18.056 c -2.047,1.376 -3.178,3.893 -2.656,6.448 0.367,1.779 1.453,3.215 2.891,4.09 l -8.848,20.602 c -1.597,-0.529 -3.352,-0.663 -5.132,-0.306 -1.849,0.369 -3.462,1.241 -4.765,2.423 l -5.977,-5.763 c 0.926,-1.1 1.378,-2.595 1.069,-4.126 -0.535,-2.664 -3.131,-4.383 -5.795,-3.847 -2.665,0.535 -4.383,3.131 -3.848,5.796 0.536,2.664 3.142,4.382 5.796,3.847 0.666,-0.132 1.278,-0.401 1.806,-0.768 l 6.028,5.8 c -1.59,1.892 -2.473,4.342 -2.36,6.919 l -74.179,12.52 c -0.789,-2.776 -2.68,-4.987 -5.111,-6.22 l 12.586,-32.638 c 1.222,0.331 2.525,0.42 3.847,0.158 4.564,-0.916 7.523,-5.373 6.597,-9.936 -0.226,-1.133 -0.669,-2.159 -1.288,-3.05 l 10.864,-9.161 c 1.349,1.188 3.208,1.759 5.096,1.379 3.221,-0.653 5.312,-3.802 4.659,-7.022 -0.522,-2.575 -2.631,-4.389 -5.092,-4.711 l 0.359,-17.3 c 0.129,-0.014 0.269,-0.019 0.408,-0.043 2.545,-0.521 4.207,-3.005 3.685,-5.55 -0.511,-2.545 -3.005,-4.207 -5.56,-3.685 -2.545,0.511 -4.206,3.006 -3.685,5.55 0.404,1.989 2.01,3.408 3.9,3.708 l -0.359,17.3 c -0.229,0.017 -0.449,0.025 -0.678,0.072 -3.221,0.653 -5.312,3.791 -4.658,7.022 0.142,0.706 0.423,1.347 0.781,1.916 l -10.863,9.171 c -1.93,-1.84 -4.69,-2.752 -7.504,-2.182 -1.133,0.226 -2.179,0.679 -3.08,1.298 l -19.261,-22.657 c 1.959,-1.934 2.949,-4.777 2.356,-7.669 -0.712,-3.519 -3.514,-6.052 -6.844,-6.626 l 4.765,-36.01 c 0.35,-0.001 0.709,-0.032 1.067,-0.104 2.774,-0.558 4.568,-3.267 4.01,-6.041 -0.559,-2.773 -3.267,-4.568 -6.041,-4.009 -0.845,0.167 -1.583,0.56 -2.207,1.071 l -21.756,-20.868 c 0.419,-0.653 0.594,-1.459 0.428,-2.264 -0.344,-1.68 -1.979,-2.769 -3.659,-2.425 -1.68,0.344 -2.768,1.979 -2.425,3.659 0.334,1.68 1.979,2.768 3.659,2.425 0.428,-0.084 0.813,-0.256 1.145,-0.487 l 21.746,20.868 c -0.844,1.127 -1.238,2.581 -0.94,4.072 0.403,1.988 1.901,3.451 3.746,3.922 l -4.773,36.071 c -0.61,-0.011 -1.229,0.029 -1.846,0.158 -4.284,0.867 -7.109,4.849 -6.673,9.108 l -14.705,2.579 c -0.722,-2.258 -3.029,-3.675 -5.405,-3.199 -2.555,0.512 -4.206,3.016 -3.684,5.561 0.511,2.545 3.005,4.196 5.55,3.684 2.306,-0.463 3.851,-2.534 3.768,-4.812 l 14.675,-2.589 c 1.099,4.327 5.389,7.092 9.813,6.19 1.043,-0.213 1.981,-0.623 2.834,-1.16 l 19.324,22.726 c -1.83,1.929 -2.732,4.679 -2.163,7.472 0.523,2.615 2.23,4.662 4.427,5.802 l -12.578,32.607 c -1.545,-0.461 -3.219,-0.567 -4.909,-0.223 -1.859,0.379 -3.492,1.252 -4.795,2.444 l -64.103,-54.956 c 1.422,-2.146 2.027,-4.827 1.47,-7.551 -1.104,-5.447 -6.419,-8.98 -11.867,-7.875 -4.245,0.855 -7.317,4.275 -7.949,8.327 l -59.695,-1.739 c -0.027,-0.219 -0.024,-0.439 -0.072,-0.668 -0.926,-4.562 -5.372,-7.522 -9.935,-6.597 -0.149,0.025 -0.277,0.089 -0.426,0.124 l -9.594,-25.687 c 1.827,-1.079 2.87,-3.214 2.429,-5.411 -0.286,-1.441 -1.173,-2.603 -2.327,-3.327 l 13.425,-33.645 c 0.958,0.24 1.981,0.307 3.005,0.095 3.688,-0.748 6.065,-4.336 5.317,-8.014 -0.024,-0.109 -0.066,-0.198 -0.1,-0.307 l 24.442,-9.744 c 1.097,1.766 3.2,2.77 5.367,2.33 2.774,-0.558 4.568,-3.267 4.01,-6.04 -0.559,-2.774 -3.268,-4.568 -6.041,-4 -2.774,0.559 -4.568,3.257 -4.009,6.041 0,0.01 0,0.02 0.011,0.03 l -24.433,9.733 c -1.41,-2.506 -4.288,-3.955 -7.25,-3.35 -3.678,0.747 -6.065,4.335 -5.318,8.013 0.405,2.018 1.686,3.618 3.347,4.556 l -13.425,33.644 c -0.655,-0.139 -1.355,-0.146 -2.061,-0.004 -1.551,0.31 -2.78,1.309 -3.469,2.592 L 106.968,363.36 c 0.164,-0.836 0.175,-1.727 -0.003,-2.622 -0.748,-3.678 -4.336,-6.055 -8.0138,-5.317 -0.3182,0.06 -0.6145,0.179 -0.9212,0.289 L 86.358,332.921 c 1.5142,-1.149 2.3424,-3.097 1.9388,-5.085 -0.5586,-2.773 -3.267,-4.568 -6.0407,-4.009 -2.7736,0.558 -4.5681,3.267 -4.0095,6.04 0.5586,2.774 3.2671,4.569 6.0407,4.01 0.169,-0.035 0.3169,-0.1 0.4753,-0.155 l 11.6713,22.769 c -2.1732,1.5 -3.3582,4.19 -2.8002,6.943 0.0232,0.1 0.0664,0.198 0.0896,0.297 l -24.6108,9.78 c -1.0969,-1.766 -3.1999,-2.77 -5.367,-2.33 -2.7737,0.558 -4.5682,3.267 -4.0095,6.041 0.5586,2.773 3.267,4.567 6.0407,4.009 2.7736,-0.559 4.5681,-3.268 4.0095,-6.041 -3e-4,-0.01 -3e-4,-0.01 -0.0107,-0.02 l 24.6111,-9.779 c 1.4005,2.507 4.2881,3.956 7.2504,3.361 2.157,-0.439 3.853,-1.864 4.745,-3.703 l 34.956,11.582 c -0.082,0.563 -0.093,1.154 0.036,1.75 0.558,2.743 3.206,4.52 5.951,4.022 l 9.593,25.678 c -3.318,1.666 -5.281,5.371 -4.509,9.188 0.333,1.67 1.16,3.125 2.277,4.25 l -39.779,53.104 c -2.038,-1.166 -4.494,-1.637 -6.98,-1.138 -1.879,0.38 -3.521,1.272 -4.833,2.485 L 83.6027,458.342 c 1.1584,-1.638 1.6821,-3.726 1.2544,-5.843 -0.688,-3.38 -3.5348,-5.74 -6.8146,-5.996 l -1.4047,-33.712 c 0.0597,-0.012 0.1198,-0.004 0.1795,-0.016 3.6784,-0.738 6.0651,-4.335 5.3175,-8.013 -0.7476,-3.678 -4.3353,-6.055 -8.0136,-5.318 -3.678,0.748 -6.065,4.336 -5.3174,8.014 0.6063,3.012 3.1349,5.123 6.0549,5.39 l 1.3952,33.722 c -0.0996,0.014 -0.1899,0.006 -0.2892,0.03 -3.0718,0.618 -5.3262,3.031 -5.9045,5.921 l -42.0661,-3.292 c -0.0189,-0.279 -0.0282,-0.569 -0.0875,-0.858 -0.6899,-3.439 -4.0526,-5.663 -7.4823,-4.974 -3.4394,0.7 -5.6637,4.053 -4.9638,7.492 0.3206,1.581 1.2228,2.893 2.4222,3.795 l -8.73921,15.857 c -0.57539,-0.162 -1.18742,-0.213 -1.8136,-0.083 -2.10745,0.428 -3.48262,2.482 -3.05495,4.6 0.08265,0.397 0.23428,0.763 0.42507,1.097 l -19.74151,17.838 c -1.1387,-0.884 -2.633,-1.307 -4.154,-0.998 -2.0975,0.427 -3.6259,2.067 -4.0132,4.04 l -19.1086,-0.592 c -0.0064,-0.2 -0.0225,-0.389 -0.0585,-0.578 -0.4277,-2.118 -2.4819,-3.473 -4.5997,-3.055 -2.1075,0.427 -3.4726,2.482 -3.045,4.599 0.4274,2.108 2.4919,3.473 4.5994,3.045 1.4813,-0.297 2.5766,-1.402 2.9634,-2.765 l 19.1784,0.589 c 0.008,0.249 0.026,0.499 0.074,0.748 0.4618,2.246 2.3129,3.828 4.4814,4.059 l -0.5181,19.837 c -0.0896,0.013 -0.17,0.005 -0.2493,0.028 -2.1174,0.427 -3.4826,2.482 -3.0549,4.599 0.4273,2.108 2.4919,3.473 4.5993,3.045 2.1075,-0.427 3.4727,-2.482 3.045,-4.599 -0.3212,-1.601 -1.5791,-2.771 -3.0988,-3.053 l 0.5268,-19.877 c 0.1096,-0.013 0.21,-0.006 0.3193,-0.03 2.7736,-0.559 4.5681,-3.267 4.0095,-6.041 -0.1197,-0.616 -0.3679,-1.189 -0.694,-1.689 L 5.89323,477.488 c 0.83896,0.584 1.90771,0.839 2.99139,0.625 0.63619,-0.131 1.18758,-0.408 1.65548,-0.793 l 20.7477,18.738 c -0.7752,1.105 -1.1306,2.517 -0.8448,3.949 0.5586,2.773 3.2673,4.568 6.041,4.01 2.2367,-0.452 3.8181,-2.313 4.0595,-4.472 l 19.0209,-0.276 c 10e-4,0.03 0.0019,0.06 0.0029,0.09 0.4273,2.107 2.4819,3.472 4.5993,3.045 2.1075,-0.428 3.4723,-2.492 3.0453,-4.59 -0.4277,-2.117 -2.4822,-3.482 -4.5994,-3.045 -1.6502,0.333 -2.838,1.672 -3.0679,3.25 l -19.0306,0.286 c -0.0135,-0.109 -0.0067,-0.21 -0.0302,-0.319 -0.5586,-2.774 -3.2671,-4.568 -6.0407,-4.01 -0.9045,0.189 -1.6814,0.615 -2.3242,1.165 L 11.3714,476.403 c 0.534,-0.828 0.7616,-1.846 0.5482,-2.889 -0.1777,-0.865 -0.631,-1.591 -1.2488,-2.142 l 8.7505,-15.816 c 1.0837,0.415 2.2886,0.547 3.5213,0.298 2.535,-0.511 4.4036,-2.472 4.928,-4.85 l 42.0665,3.301 c 0.0124,0.39 0.0351,0.79 0.1177,1.187 0.8306,4.086 4.8068,6.721 8.8924,5.89 1.3323,-0.262 2.4829,-0.89 3.4369,-1.721 l 19.5119,17.638 c -1.68,2.214 -2.4386,5.11 -1.845,8.053 0.986,4.871 5.334,8.194 10.133,8.061 l 7.094,46.788 c -3.32,1.016 -5.608,3.91 -5.921,7.272 l -26.8733,0.336 c -0.0238,-0.119 -0.0179,-0.249 -0.0418,-0.368 -0.7475,-3.678 -4.3352,-6.056 -8.0136,-5.318 -0.8051,0.166 -1.5451,0.49 -2.2127,0.891 l -8.3089,-10.821 c 0.5783,-0.688 0.8589,-1.618 0.6583,-2.572 -0.3331,-1.66 -1.9582,-2.739 -3.6185,-2.406 -1.6603,0.333 -2.739,1.958 -2.4059,3.618 0.3331,1.661 1.9582,2.74 3.6182,2.397 0.2386,-0.048 0.4662,-0.125 0.6829,-0.232 l 8.2986,10.811 c -1.6713,1.554 -2.527,3.902 -2.04,6.308 0.108,0.567 0.3149,1.09 0.5507,1.583 l -27.2553,17.838 c -1.0862,-1.116 -2.6748,-1.676 -4.305,-1.344 -1.9385,0.392 -3.3407,1.918 -3.6925,3.75 L 10.7699,570.84 c -6e-4,-0.02 -0.0016,-0.05 -0.0122,-0.07 -0.3331,-1.66 -1.95828,-2.739 -3.61855,-2.406 -1.66027,0.333 -2.73904,1.958 -2.40595,3.619 0.3331,1.66 1.95826,2.739 3.61853,2.406 1.18297,-0.238 2.05537,-1.127 2.35077,-2.217 l 25.658,1.104 c 0.0148,0.149 0.0099,0.309 0.045,0.468 0.5213,2.545 2.9952,4.197 5.5499,3.676 2.5447,-0.522 4.1968,-2.996 3.6851,-5.551 -0.0596,-0.298 -0.1484,-0.575 -0.2673,-0.852 L 72.6388,553.18 c 1.5582,1.801 3.9897,2.754 6.4747,2.245 2.9426,-0.594 5.0264,-3.022 5.3763,-5.855 l 26.8732,-0.336 c 0.027,0.229 0.024,0.459 0.072,0.688 0.332,1.63 1.128,3.056 2.204,4.172 l -30.3053,39.245 c -2.111,-1.253 -4.6585,-1.762 -7.2532,-1.24 -5.5468,1.128 -9.1365,6.535 -8.0196,12.072 l -40.0431,12.462 c -0.0216,-0.049 -0.0229,-0.089 -0.0445,-0.138 -1.7039,-3.548 -5.9636,-5.043 -9.5214,-3.349 -1.2022,0.579 -2.1445,1.47 -2.8319,2.502 l -43.123,-21.377 c 0.4439,-1.455 0.3924,-3.074 -0.3251,-4.552 -1.5003,-3.124 -5.2439,-4.435 -8.3681,-2.945 -3.1241,1.49 -4.4448,5.254 -2.9448,8.368 0.0645,0.138 0.1582,0.255 0.2323,0.383 l -31.7835,24.565 c -1.8314,-1.582 -4.4973,-2.038 -6.823,-0.923 -3.1238,1.5 -4.4451,5.244 -2.9448,8.368 1.5003,3.124 5.254,4.435 8.3681,2.945 3.1238,-1.5 4.4348,-5.254 2.9448,-8.368 -0.1075,-0.237 -0.2641,-0.442 -0.401,-0.658 l 31.7248,-24.523 c 1.8371,1.763 4.6161,2.314 7.0501,1.146 1.0541,-0.514 1.8896,-1.29 2.4906,-2.21 l 43.0722,21.348 c -0.5955,1.72 -0.5439,3.659 0.3028,5.423 0.5142,1.064 1.2616,1.911 2.1431,2.573 L 3.91652,648.368 c -1.11248,-0.375 -2.36217,-0.345 -3.505365,0.201 -2.305955,1.104 -3.277735,3.887 -2.173675,6.193 1.10438,2.316 3.87686,3.288 6.18251,2.174 2.31564,-1.115 3.28807,-3.877 2.17369,-6.192 -0.279,-0.592 -0.67519,-1.09 -1.1383,-1.495 L 18.7747,626.103 c 1.8153,0.762 3.9175,0.795 5.8291,-0.126 2.9464,-1.415 4.4557,-4.594 3.9075,-7.668 l 40.0438,-12.453 c 0.6757,1.74 1.7931,3.215 3.2091,4.32 l -8.4561,13.437 c -1.1547,-0.444 -2.4753,-0.442 -3.6778,0.127 -2.3056,1.114 -3.2779,3.886 -2.1739,6.192 1.1041,2.306 3.8869,3.288 6.1929,2.184 2.3056,-1.114 3.2877,-3.887 2.1736,-6.193 -0.257,-0.532 -0.6015,-0.981 -1.0037,-1.358 l 8.4373,-13.396 c 1.5676,0.841 3.3522,1.264 5.2109,1.195 l 10.2707,64.515 c -4.3721,1.26 -7.3372,5.227 -7.4159,9.661 -3.3248,0.216 -6.5796,0.43 -9.216,0.584 -0.011,-0.029 -0.0016,-0.049 -0.0129,-0.089 -0.654,-3.251 -3.8327,-5.361 -7.0935,-4.707 -3.2609,0.655 -5.3709,3.833 -4.7066,7.094 0.6643,3.26 3.8333,5.371 7.0941,4.717 2.6243,-0.534 4.4761,-2.704 4.7556,-5.235 2.6866,-0.145 5.9816,-0.361 9.3064,-0.577 0.0244,0.14 0.039,0.289 0.0635,0.429 0.4521,2.256 1.6236,4.17 3.2097,5.59 l -29.3588,39.105 c -1.7951,-1.073 -3.9714,-1.544 -6.1881,-1.093 -4.0759,0.82 -6.8939,4.382 -6.9566,8.376 l -48.12269,4.135 c 0,0 1e-5,0 -3.1e-4,-0.01 -0.95035,-4.702 -5.5297,-7.747 -10.2418,-6.797 -1.5507,0.32 -2.898,1.053 -4.0075,2.029 l -21.9154,-20.222 c 0.8794,-1.289 1.2577,-2.921 0.9249,-4.572 -0.6543,-3.261 -3.833,-5.37 -7.0935,-4.706 -3.2605,0.664 -5.3603,3.842 -4.7063,7.093 0.6543,3.261 3.833,5.371 7.0935,4.707 0.974,-0.201 1.8304,-0.639 2.5519,-1.232 l 21.9257,20.232 c -1.4296,1.916 -2.0914,4.378 -1.5803,6.913 0.0589,0.279 0.1568,0.526 0.245,0.783 l -47.5168,19.064 c -1.2591,-2.151 -3.7697,-3.382 -6.3643,-2.859 -2.1075,0.427 -3.7211,1.909 -4.4215,3.793 l -43.4266,-9.262 c 0.042,-0.571 0.033,-1.151 -0.086,-1.738 -0.701,-3.489 -4.105,-5.752 -7.594,-5.04 -3.489,0.711 -5.742,4.105 -5.041,7.594 0.084,0.438 0.217,0.854 0.38,1.249 l -52.151,28.426 c -1.014,-1.378 -2.748,-2.114 -4.528,-1.757 -1.829,0.369 -3.184,1.803 -3.54,3.515 l -44.609,-3.021 c -0.014,-0.129 -0.008,-0.249 -0.042,-0.378 -0.415,-2.048 -2.408,-3.375 -4.466,-2.96 -2.048,0.416 -3.375,2.409 -2.959,4.467 0.415,2.048 2.408,3.375 4.466,2.959 1.491,-0.297 2.595,-1.443 2.921,-2.844 l 44.619,3.02 c 0.016,0.189 0.022,0.379 0.058,0.568 0.498,2.455 2.89,4.04 5.335,3.542 2.456,-0.498 4.041,-2.89 3.542,-5.336 -0.048,-0.248 -0.125,-0.466 -0.212,-0.693 l 52.151,-28.426 c 1.417,2.085 3.985,3.235 6.609,2.691 2.276,-0.463 4.016,-2.079 4.761,-4.114 l 43.4274,9.261 c -0.0335,0.521 -0.0168,1.041 0.09,1.568 0.3338,1.68 1.358,3.048 2.7053,3.885 l -17.2359,30.855 c -0.6276,-0.23 -1.32,-0.298 -2.0257,-0.155 -2.0479,0.415 -3.3751,2.408 -2.9591,4.466 0.415,2.048 2.4183,3.375 4.4662,2.96 2.0478,-0.416 3.3847,-2.42 2.9593,-4.467 -0.179,-0.905 -0.6832,-1.659 -1.3608,-2.198 l 17.2738,-30.916 c 1.0122,0.368 2.127,0.503 3.2604,0.276 3.2605,-0.664 5.3709,-3.833 4.7066,-7.093 -0.0123,-0.07 -0.0442,-0.129 -0.0561,-0.188 l 47.5263,-19.074 c 1.7743,3.245 5.4866,5.137 9.314,4.365 4.10556,-0.831 6.94218,-4.433 6.96405,-8.456 l 48.10265,-4.135 c 9e-4,0.03 0.0019,0.06 0.0029,0.09 0.6886,3.4 3.2902,5.918 6.4563,6.688 l -5.4906,39.615 c -0.3701,0.002 -0.7494,0.034 -1.1273,0.106 -3.2605,0.664 -5.3706,3.833 -4.7063,7.093 0.2725,1.332 0.9686,2.451 1.9055,3.281 l -17.274,24.003 c -0.8855,-0.472 -1.9323,-0.669 -2.996,-0.455 -2.4453,0.498 -4.0306,2.87 -3.5424,5.316 l -20.87197,7.178 c -0.89689,-1.772 -2.88077,-2.809 -4.91863,-2.394 -2.4553,0.498 -4.0402,2.89 -3.542,5.335 0.2008,0.964 0.6973,1.789 1.3677,2.418 l -15.7409,22.503 c -0.7214,-0.347 -1.5359,-0.471 -2.381,-0.304 -2.0479,0.415 -3.3748,2.409 -2.9591,4.467 0.4155,2.047 2.409,3.384 4.4664,2.958 2.0479,-0.415 3.3748,-2.418 2.9593,-4.466 -0.1547,-0.775 -0.5362,-1.443 -1.0625,-1.947 l 15.7509,-22.503 c 0.8749,0.452 1.90094,0.629 2.94472,0.416 2.44533,-0.498 4.02085,-2.87 3.54265,-5.316 l 20.87143,-7.188 c 0.8965,1.762 2.881,2.809 4.9288,2.394 2.4554,-0.499 4.04,-2.89 3.5415,-5.346 -0.1902,-0.944 -0.6661,-1.749 -1.3161,-2.369 L 40.419,800.082 c 1.2226,0.691 2.683,0.995 4.1642,0.697 0.8748,-0.178 1.6538,-0.543 2.3284,-1.034 l 10.8716,12.119 c -0.7513,0.915 -1.1124,2.137 -0.8624,3.389 0.4509,2.217 2.6076,3.649 4.8143,3.199 2.2067,-0.451 3.6389,-2.608 3.1983,-4.815 -0.4408,-2.217 -2.6078,-3.648 -4.8145,-3.198 -0.5169,0.107 -0.9901,0.322 -1.412,0.585 l -10.8617,-12.12 c 1.237,-1.37 1.8465,-3.28 1.4546,-5.219 -0.4621,-2.256 -2.1367,-3.943 -4.2074,-4.558 l 5.4899,-39.635 c 0.6613,0.029 1.3404,-0.013 2.0265,-0.144 4.7021,-0.951 7.7477,-5.53 6.797,-10.242 -0.3794,-1.859 -1.3302,-3.44 -2.6291,-4.639 l 29.359,-39.105 c 2.1436,1.332 4.7729,1.899 7.4468,1.353 1.3024,-0.262 2.4969,-0.77 3.5456,-1.454 l 20.1309,25.762 c -1.307,1.373 -1.945,3.334 -1.541,5.322 0.654,3.261 3.833,5.361 7.094,4.716 3.26,-0.664 5.36,-3.842 4.706,-7.093 -0.654,-3.261 -3.833,-5.361 -7.093,-4.707 -0.637,0.121 -1.219,0.37 -1.75,0.677 L 98.5339,694.166 c 2.5161,-2.352 3.7941,-5.904 3.0681,-9.532 -1.009,-4.981 -5.49,-8.38 -10.417,-8.203 L 80.9043,611.916 c 5.0963,-1.453 8.2841,-6.597 7.2154,-11.876 -0.4161,-2.068 -1.4444,-3.876 -2.8393,-5.262 l 30.3056,-39.236 c 1.701,0.947 3.725,1.353 5.783,0.937 0.616,-0.13 1.2,-0.329 1.752,-0.576 l 14.484,22.8 c -2.827,2.331 -4.318,6.11 -3.535,9.957 0.902,4.424 4.535,7.6 8.784,8.135 l -0.985,26.844 c -0.239,0.028 -0.47,0.026 -0.708,0.073 -3.678,0.748 -6.065,4.326 -5.318,8.014 0.748,3.678 4.336,6.064 8.014,5.317 0.994,-0.202 1.881,-0.62 2.654,-1.185 l 13.124,13.739 c -0.873,1.178 -1.285,2.692 -0.966,4.232 0.44,2.198 2.192,3.803 4.266,4.187 l -1.985,35.361 c -0.229,0.017 -0.449,0.024 -0.688,0.062 -2.883,0.582 -4.754,3.403 -4.172,6.286 0.583,2.893 3.403,4.754 6.286,4.172 2.883,-0.582 4.755,-3.393 4.172,-6.286 -0.45,-2.197 -2.192,-3.802 -4.265,-4.176 l 1.984,-35.362 c 0.23,-0.017 0.46,-0.024 0.688,-0.072 2.108,-0.427 3.657,-2.037 4.125,-4.003 l 18.673,2.006 c 0.008,0.24 0.025,0.479 0.073,0.708 0.498,2.455 2.89,4.04 5.345,3.541 2.456,-0.498 4.04,-2.889 3.542,-5.335 -0.498,-2.455 -2.89,-4.04 -5.345,-3.541 -1.75,0.346 -3.048,1.678 -3.467,3.302 l -18.674,-2.017 c -0.01,-0.319 -0.03,-0.639 -0.1,-0.957 -0.582,-2.883 -3.403,-4.753 -6.296,-4.171 -0.716,0.143 -1.357,0.433 -1.926,0.802 l -13.124,-13.739 c 1.222,-1.52 1.808,-3.53 1.383,-5.587 -0.571,-2.833 -2.837,-4.882 -5.523,-5.347 l 0.985,-26.825 c 0.5,-0.026 1.008,-0.072 1.515,-0.178 3.738,-0.75 6.584,-3.462 7.696,-6.839 l 19.406,4.584 c -0.069,0.663 -0.067,1.333 0.075,2.019 0.737,3.678 4.335,6.055 8.013,5.317 3.678,-0.737 6.065,-4.325 5.318,-8.003 -0.738,-3.689 -4.336,-6.065 -8.014,-5.318 -2.366,0.476 -4.183,2.145 -4.987,4.251 l -19.385,-4.574 c 0.163,-1.146 0.156,-2.327 -0.092,-3.519 -1.128,-5.547 -6.535,-9.137 -12.082,-8.019 -0.835,0.166 -1.627,0.442 -2.366,0.795 l -14.505,-22.829 c 2.23,-1.942 3.404,-4.951 2.775,-8.052 -0.082,-0.388 -0.214,-0.744 -0.345,-1.11 l 8.76,-3.881 c 0.98,1.529 2.828,2.401 4.717,2.02 2.456,-0.498 4.04,-2.89 3.542,-5.345 -0.499,-2.456 -2.89,-4.04 -5.336,-3.542 -2.455,0.499 -4.04,2.88 -3.542,5.336 0.023,0.099 0.067,0.198 0.09,0.297 l -8.771,3.881 c -1.467,-2.714 -4.294,-4.465 -7.416,-4.455 l -7.093,-46.748 c 4.304,-1.218 7.241,-5.103 7.333,-9.459 l 32.317,-2.16 c 0.012,0.069 0.005,0.149 0.017,0.219 0.926,4.573 5.372,7.513 9.935,6.597 1.651,-0.333 3.076,-1.139 4.202,-2.225 l 21.058,17.508 c -0.895,1.429 -1.279,3.182 -0.922,4.962 0.747,3.678 4.335,6.065 8.013,5.317 3.679,-0.737 6.065,-4.335 5.318,-8.013 -0.738,-3.679 -4.336,-6.055 -8.014,-5.318 -1.272,0.261 -2.364,0.866 -3.248,1.685 L 167.55,484.531 c 1.203,-1.799 1.711,-4.067 1.248,-6.353 -0.262,-1.322 -0.86,-2.494 -1.632,-3.49 l 15.929,-13.785 c 1.06,0.927 2.525,1.38 4.016,1.073 2.545,-0.512 4.196,-3.005 3.685,-5.55 -0.521,-2.545 -2.995,-4.197 -5.55,-3.685 -2.545,0.511 -4.197,3.005 -3.675,5.55 0.118,0.586 0.356,1.119 0.651,1.589 l -15.939,13.796 c -1.918,-1.79 -4.637,-2.674 -7.411,-2.115 -3.887,0.784 -6.581,4.142 -6.731,7.938 l -32.327,2.161 c -0.025,-0.149 -0.039,-0.289 -0.064,-0.438 -0.417,-2.088 -1.454,-3.876 -2.878,-5.241 l 39.797,-53.125 c 1.67,0.897 3.643,1.285 5.651,0.871 3.489,-0.702 6.022,-3.474 6.617,-6.775 l 59.666,1.74 c 0.031,0.339 0.082,0.688 0.153,1.036 0.713,3.529 3.201,6.241 6.33,7.422 l -2.742,9.082 c -0.502,-0.054 -1.023,-0.057 -1.55,0.049 -2.773,0.559 -4.568,3.267 -4.009,6.041 0.035,0.159 0.089,0.297 0.135,0.456 l -9.367,5.591 c -0.708,-0.868 -1.843,-1.332 -3.016,-1.094 -1.68,0.343 -2.769,1.979 -2.425,3.659 0.344,1.68 1.979,2.768 3.659,2.425 1.68,-0.344 2.768,-1.98 2.424,-3.66 -0.011,-0.039 -0.032,-0.079 -0.043,-0.128 l 9.317,-5.56 c 1.097,1.766 3.2,2.76 5.357,2.321 0.378,-0.072 0.734,-0.194 1.069,-0.355 l 9.608,17.043 c -1.524,1.149 -2.363,3.097 -1.959,5.105 0.559,2.774 3.268,4.568 6.041,4.009 2.774,-0.558 4.569,-3.267 4.01,-6.04 -0.559,-2.774 -3.267,-4.569 -6.041,-4.01 -0.308,0.07 -0.605,0.169 -0.892,0.279 l -9.639,-17.092 c 1.434,-1.166 2.194,-3.052 1.802,-4.98 -0.357,-1.78 -1.611,-3.15 -3.191,-3.76 l 2.715,-8.991 c 1.361,0.317 2.803,0.36 4.254,0.064 1.849,-0.369 3.472,-1.241 4.775,-2.423 l 64.104,54.965 c -1.002,1.533 -1.584,3.342 -1.634,5.235 l -11.693,0.733 c -0.691,-3.18 -3.798,-5.232 -6.999,-4.59 -3.221,0.653 -5.312,3.792 -4.659,7.023 0.653,3.22 3.801,5.311 7.022,4.658 2.654,-0.535 4.504,-2.755 4.733,-5.323 l 11.713,-0.724 c 0.025,0.169 0.04,0.339 0.076,0.508 0.309,1.541 0.963,2.911 1.851,4.083 l -33.737,28.87 c -1.929,-1.82 -4.659,-2.713 -7.453,-2.154 -4.215,0.855 -7.013,4.726 -6.7,8.898 l -24.474,3.712 c -0.652,-2.26 -2.919,-3.689 -5.265,-3.214 -2.465,0.498 -4.07,2.901 -3.57,5.376 0.498,2.466 2.91,4.06 5.376,3.561 2.167,-0.439 3.667,-2.348 3.649,-4.489 l 24.444,-3.71 c 0.953,4.152 4.821,6.869 8.981,6.477 l 4.833,23.898 c -2.382,0.916 -3.842,3.444 -3.319,6.029 0.237,1.163 0.849,2.144 1.663,2.888 l -11.96,17.13 c -1.447,-0.814 -3.159,-1.16 -4.908,-0.804 -3.858,0.773 -6.359,4.545 -5.576,8.392 0.095,0.467 0.24,0.923 0.413,1.347 l -21.068,10.447 c -0.98,-1.56 -2.849,-2.451 -4.758,-2.059 -2.465,0.498 -4.069,2.91 -3.57,5.376 0.499,2.465 2.911,4.059 5.376,3.56 2.465,-0.499 4.07,-2.901 3.571,-5.366 -0.048,-0.249 -0.135,-0.476 -0.223,-0.703 l 21.097,-10.468 c 1.377,2.387 4.054,3.803 6.896,3.502 l 4.548,22.487 c -2.504,0.85 -4.073,3.431 -3.537,6.096 0.321,1.61 1.352,2.868 2.686,3.606 l -7.905,30.107 c -0.29,-0.011 -0.59,-0.011 -0.889,0.048 -1.869,0.37 -3.071,2.199 -2.692,4.058 0.379,1.859 2.189,3.072 4.058,2.692 1.859,-0.379 3.071,-2.199 2.692,-4.057 -0.215,-1.094 -0.942,-1.942 -1.877,-2.402 l 7.859,-29.956 c 0.747,0.197 1.559,0.241 2.364,0.075 2.893,-0.582 4.764,-3.404 4.182,-6.286 -0.546,-2.684 -3.024,-4.466 -5.689,-4.241 l -4.498,-22.489 c 3.488,-1.051 5.687,-4.573 4.951,-8.201 -0.332,-1.641 -1.216,-3.003 -2.399,-4.006 l 11.96,-17.139 c 1.048,0.546 2.276,0.777 3.529,0.527 2.893,-0.582 4.764,-3.403 4.181,-6.296 -0.523,-2.595 -2.85,-4.341 -5.409,-4.27 l -4.833,-23.888 c 4.061,-1.28 6.601,-5.403 5.734,-9.678 -0.236,-1.153 -0.69,-2.189 -1.319,-3.099 l 33.777,-28.891 c 1.732,1.595 3.993,2.554 6.417,2.647 l 1.252,37.689 c -0.17,0.025 -0.33,0.02 -0.499,0.056 -4.563,0.926 -7.522,5.372 -6.596,9.935 0.925,4.563 5.372,7.523 9.945,6.597 1.242,-0.25 2.346,-0.775 3.304,-1.476 l 20.187,22.168 c -1.292,1.521 -1.917,3.593 -1.489,5.71 0.582,2.883 2.919,4.939 5.663,5.352 l -1.533,27.533 c -0.15,0.015 -0.299,0.019 -0.449,0.044 -2.286,0.463 -3.756,2.692 -3.303,4.968 0.07,0.318 0.17,0.625 0.298,0.901 l -23.036,14.902 c -0.966,-1.09 -2.455,-1.663 -3.986,-1.354 -2.276,0.463 -3.756,2.681 -3.293,4.978 0.25,1.252 1.043,2.247 2.082,2.824 l -7.541,19.881 c -0.362,-0.048 -0.732,-0.067 -1.11,0.015 -1.68,0.344 -2.768,1.979 -2.425,3.659 0.344,1.68 1.979,2.759 3.659,2.425 1.681,-0.334 2.769,-1.979 2.425,-3.659 -0.177,-0.865 -0.69,-1.559 -1.385,-2.007 l 7.531,-19.86 c 0.555,0.122 1.136,0.134 1.732,0.015 2.286,-0.463 3.756,-2.681 3.303,-4.968 -0.07,-0.318 -0.169,-0.615 -0.299,-0.901 l 23.047,-14.902 c 0.966,1.09 2.455,1.663 3.986,1.354 0.357,-0.071 0.683,-0.202 0.999,-0.352 l 15.499,22.648 c -1.039,0.963 -1.573,2.431 -1.276,3.912 0.344,1.68 1.644,2.919 3.216,3.269 l -1.452,20.047 c -0.07,0.012 -0.14,0.005 -0.209,0.027 -1.68,0.334 -2.769,1.979 -2.435,3.659 0.344,1.68 1.979,2.768 3.659,2.424 1.68,-0.333 2.769,-1.979 2.425,-3.659 -0.238,-1.173 -1.116,-2.045 -2.197,-2.361 l 1.452,-20.056 c 0.17,-0.015 0.34,-0.011 0.509,-0.047 1.551,-0.309 2.725,-1.447 3.17,-2.862 l 22.385,3.549 c 0.005,0.159 0.02,0.309 0.045,0.478 0.344,1.68 1.98,2.769 3.659,2.425 1.68,-0.344 2.769,-1.969 2.425,-3.649 -0.344,-1.68 -1.979,-2.768 -3.659,-2.434 -1.083,0.224 -1.91,0.991 -2.279,1.953 l -22.365,-3.549 c 0.001,-0.29 -0.028,-0.58 -0.078,-0.878 -0.462,-2.277 -2.69,-3.747 -4.967,-3.294 -0.358,0.072 -0.684,0.202 -0.99,0.342 l -15.489,-22.648 c 1.04,-0.963 1.574,-2.421 1.276,-3.913 -0.345,-1.7 -1.675,-2.958 -3.277,-3.297 l 1.535,-27.503 c 0.359,-0.021 0.729,-0.033 1.097,-0.104 3.678,-0.748 6.055,-4.326 5.317,-8.004 -0.747,-3.678 -4.335,-6.065 -8.013,-5.318 -0.934,0.19 -1.793,0.568 -2.527,1.081 L 326.25,547.296 c 1.7,-1.915 2.526,-4.553 1.98,-7.247 -0.771,-3.797 -3.977,-6.446 -7.667,-6.709 l -1.303,-37.717 c 0.219,-0.027 0.439,-0.054 0.667,-0.102 2.336,-0.474 4.308,-1.708 5.724,-3.414 l 19.042,13.25 c -0.564,1.139 -0.792,2.457 -0.519,3.799 0.653,3.23 3.801,5.311 7.022,4.658 3.221,-0.653 5.312,-3.791 4.658,-7.021 -0.653,-3.221 -3.801,-5.312 -7.021,-4.659 -1.253,0.25 -2.323,0.894 -3.136,1.751 l -19.032,-13.241 c 0.901,-1.569 1.373,-3.385 1.323,-5.265 l 74.209,-12.53 c 1.041,3.478 3.844,6.03 7.222,6.873 l -2.839,17.95 c -0.2,0.006 -0.4,0.023 -0.599,0.059 -2.286,0.463 -3.756,2.691 -3.293,4.967 0.154,0.756 0.505,1.405 0.983,1.95 l -12.434,15.143 c -0.857,-0.503 -1.894,-0.719 -2.948,-0.496 -2.276,0.463 -3.756,2.681 -3.293,4.968 0.025,0.149 0.089,0.287 0.134,0.426 l -11.733,5.126 c -0.664,-1.069 -1.934,-1.669 -3.236,-1.407 -1.681,0.333 -2.769,1.979 -2.425,3.658 0.334,1.681 1.979,2.759 3.659,2.425 1.68,-0.334 2.769,-1.969 2.425,-3.649 -0.012,-0.069 -0.044,-0.139 -0.066,-0.198 l 11.732,-5.126 c 0.721,1.257 2.027,2.066 3.49,2.119 l 2.586,21.199 c -1.434,0.506 -2.317,1.995 -2.008,3.536 0.166,0.835 0.659,1.52 1.313,1.959 l -10.535,21.977 c -0.485,-0.155 -1.007,-0.198 -1.534,-0.092 -1.68,0.344 -2.768,1.98 -2.424,3.66 0.343,1.679 1.978,2.758 3.659,2.424 1.68,-0.333 2.768,-1.969 2.425,-3.649 -0.167,-0.835 -0.659,-1.519 -1.314,-1.959 l 10.536,-21.977 c 0.485,0.155 1.006,0.198 1.533,0.091 1.68,-0.333 2.769,-1.979 2.425,-3.659 -0.274,-1.372 -1.415,-2.326 -2.74,-2.464 l -2.587,-21.208 c 2.092,-0.597 3.406,-2.7 2.977,-4.867 -0.155,-0.756 -0.516,-1.404 -0.983,-1.95 l 12.424,-15.144 c 0.866,0.503 1.893,0.721 2.947,0.507 0.507,-0.106 0.971,-0.311 1.393,-0.565 l 10.218,11.69 c -0.509,0.687 -0.741,1.555 -0.553,2.449 0.344,1.68 1.98,2.769 3.659,2.425 1.68,-0.344 2.769,-1.979 2.425,-3.659 -0.334,-1.68 -1.979,-2.768 -3.659,-2.425 -0.318,0.07 -0.594,0.19 -0.86,0.328 l -10.218,-11.7 c 0.79,-0.956 1.17,-2.219 0.908,-3.521 -0.296,-1.462 -1.323,-2.589 -2.609,-3.089 l 2.829,-17.949 c 0.872,0.052 1.771,0.013 2.676,-0.165 1.79,-0.358 3.364,-1.188 4.649,-2.32 l 46.854,41.459 c -1.481,2.168 -2.125,4.9 -1.566,7.683 0.69,3.42 3.046,6.087 6.047,7.322 l -9.354,30.163 c -0.714,-0.118 -1.445,-0.124 -2.19,0.029 -3.36,0.678 -5.527,3.949 -4.85,7.309 0.048,0.249 0.146,0.486 0.224,0.723 l -26.154,13.17 c -0.958,-1.17 -2.509,-1.811 -4.1,-1.49 -2.286,0.463 -3.756,2.691 -3.293,4.967 0.453,2.277 2.681,3.757 4.967,3.294 2.287,-0.463 3.766,-2.692 3.304,-4.968 -0.013,-0.08 -0.045,-0.138 -0.067,-0.218 l 26.134,-13.159 c 1.373,1.957 3.818,3.03 6.303,2.52 0.895,-0.178 1.703,-0.554 2.398,-1.057 l 13.097,13.52 c -0.602,0.9 -0.866,2.028 -0.629,3.181 0.463,2.277 2.691,3.757 4.978,3.294 2.276,-0.463 3.756,-2.681 3.293,-4.968 -0.463,-2.286 -2.691,-3.756 -4.968,-3.304 -0.507,0.107 -0.97,0.312 -1.382,0.565 l -13.118,-13.539 c 1.056,-1.374 1.559,-3.171 1.191,-5 -0.404,-1.988 -1.724,-3.537 -3.421,-4.353 l 9.354,-30.164 c 1.31,0.289 2.711,0.314 4.113,0.029 4.772,-0.962 8.07,-5.16 8.071,-9.842 l 48.445,-5.937 c 0.588,2.133 1.954,3.87 3.739,4.944 l -10.34,22.12 c -1.614,-0.429 -3.394,-0.082 -4.747,1.112 -2.121,1.879 -2.318,5.126 -0.439,7.248 1.473,1.664 3.779,2.121 5.726,1.348 l 9.655,15.701 c -1.76,1.917 -1.845,4.891 -0.081,6.876 0.311,0.34 0.66,0.619 1.018,0.857 l -9.265,25.749 c -0.29,-10e-4 -0.599,0.019 -0.898,0.079 -2.276,0.462 -3.766,2.681 -3.293,4.967 0.463,2.286 2.691,3.756 4.967,3.293 2.287,-0.463 3.767,-2.691 3.304,-4.968 -0.273,-1.342 -1.167,-2.403 -2.326,-2.957 l 9.155,-25.434 c 1.572,0.37 3.291,0.005 4.595,-1.147 2.121,-1.889 2.318,-5.137 0.439,-7.258 -1.587,-1.791 -4.142,-2.199 -6.179,-1.144 l -9.55,-15.533 c 2.121,-1.889 2.318,-5.127 0.429,-7.248 -0.27,-0.311 -0.578,-0.562 -0.895,-0.792 l 10.349,-22.141 c 1.376,0.477 2.872,0.629 4.403,0.32 2.833,-0.571 5.033,-2.501 6.085,-4.976 l 13.538,4.12 c -0.028,0.392 -0.035,0.782 0.047,1.18 0.463,2.276 2.691,3.756 4.968,3.293 2.286,-0.463 3.756,-2.691 3.303,-4.968 -0.463,-2.286 -2.691,-3.766 -4.967,-3.293 -1.253,0.25 -2.258,1.042 -2.835,2.081 l -13.539,-4.12 c 0.197,-1.047 0.212,-2.148 -0.013,-3.252 -0.334,-1.68 -1.161,-3.134 -2.277,-4.259 l 28.134,-37.656 c 2.039,1.166 4.484,1.628 6.97,1.129 5.447,-1.105 8.97,-6.419 7.876,-11.867 -0.083,-0.398 -0.195,-0.775 -0.317,-1.151 l 55.066,-26.117 c 1.438,2.135 3.813,3.5 6.42,3.677 l 0.731,31.082 c -1.725,0.195 -3.414,0.88 -4.805,2.125 -2.685,2.386 -3.549,6.056 -2.476,9.263 l -17.141,7.46 c -0.147,-0.225 -0.284,-0.441 -0.471,-0.645 -1.878,-2.122 -5.126,-2.318 -7.247,-0.44 -2.122,1.879 -2.318,5.127 -0.44,7.258 1.889,2.121 5.137,2.318 7.258,0.439 1.508,-1.349 2.024,-3.376 1.525,-5.201 l 17.141,-7.47 c 0.308,0.56 0.666,1.119 1.112,1.615 0.695,0.789 1.515,1.383 2.39,1.855 l -15.166,35.201 c -2.841,-0.93 -6.086,-0.406 -8.489,1.721 -2.52,2.242 -3.393,5.611 -2.616,8.668 l -22.132,7.82 c -0.191,-0.345 -0.401,-0.678 -0.681,-0.989 -1.879,-2.122 -5.127,-2.318 -7.248,-0.44 -2.121,1.879 -2.318,5.127 -0.439,7.248 1.888,2.121 5.136,2.317 7.257,0.439 1.401,-1.245 1.943,-3.084 1.618,-4.804 l 22.142,-7.819 c 0.355,0.769 0.778,1.505 1.37,2.167 1.837,2.073 4.439,3.03 6.995,2.879 l 6.293,42.981 c -1.082,0.274 -2.137,0.778 -3.032,1.577 -3.016,2.667 -3.289,7.279 -0.622,10.295 2.678,3.016 7.289,3.29 10.295,0.613 3.006,-2.667 3.29,-7.279 0.612,-10.295 -1.505,-1.703 -3.631,-2.496 -5.74,-2.418 l -6.292,-42.982 c 1.35,-0.323 2.651,-0.925 3.76,-1.92 3.601,-3.187 3.925,-8.69 0.74,-12.28 -0.696,-0.778 -1.515,-1.383 -2.381,-1.856 l 15.176,-35.201 c 2.841,0.93 6.086,0.406 8.48,-1.721 0.759,-0.674 1.344,-1.463 1.807,-2.309 l 25.402,11.277 c -0.801,2.487 -0.351,5.313 1.507,7.405 1.982,2.238 4.978,2.993 7.686,2.267 l 11.704,30.382 c -0.334,0.191 -0.657,0.401 -0.949,0.671 -2.238,1.992 -2.448,5.421 -0.456,7.658 1.982,2.238 5.421,2.449 7.658,0.467 2.238,-1.983 2.449,-5.421 0.467,-7.659 -1.36,-1.538 -3.389,-2.094 -5.256,-1.664 L 695.772,502.88 c 0.572,-0.288 1.121,-0.626 1.617,-1.062 3.143,-2.792 3.43,-7.603 0.648,-10.746 -2.791,-3.143 -7.603,-3.43 -10.746,-0.648 -0.632,0.57 -1.121,1.226 -1.529,1.929 L 660.36,481.078 c 0.969,-2.863 0.464,-6.149 -1.695,-8.581 -1.587,-1.781 -3.739,-2.762 -5.935,-2.902 l -0.731,-31.083 c 0.24,-0.027 0.47,-0.025 0.708,-0.073 2.684,-0.545 4.779,-2.323 5.886,-4.619 l 34.01,9.801 c -0.074,0.503 -0.118,1.014 -0.112,1.524 l -0.029,0.352 c 0.018,0.559 0.067,1.138 0.185,1.714 1.104,5.448 6.419,8.971 11.867,7.866 1.322,-0.262 2.526,-0.78 3.575,-1.474 l 8.237,11.393 c -0.928,1.01 -1.393,2.436 -1.097,3.887 0.439,2.147 2.346,3.607 4.456,3.57 l 3.387,19.632 c -2.119,0.688 -3.44,2.861 -2.989,5.098 0.487,2.416 2.838,3.971 5.254,3.484 2.416,-0.487 3.972,-2.838 3.484,-5.254 -0.438,-2.137 -2.326,-3.597 -4.426,-3.57 l -3.387,-19.642 c 1.514,-0.509 2.615,-1.755 2.948,-3.246 l 12.171,0.482 c 0.001,0.02 0.002,0.05 0.003,0.07 0.344,1.69 1.989,2.788 3.679,2.444 1.69,-0.344 2.778,-1.989 2.444,-3.679 -0.344,-1.69 -1.989,-2.778 -3.679,-2.444 -1.203,0.248 -2.095,1.157 -2.389,2.277 l -12.162,-0.493 c -0.015,-0.169 -0.01,-0.33 -0.046,-0.499 -0.487,-2.415 -2.838,-3.971 -5.254,-3.484 -0.338,0.061 -0.644,0.17 -0.95,0.31 l -8.29,-11.471 c 1.408,-1.346 2.393,-3.078 2.843,-4.984 0.018,-0.07 0.055,-0.141 0.063,-0.212 l 0.008,-0.06 c 0.112,-0.563 0.174,-1.136 0.186,-1.717 l 34.801,-3.33 c 1.099,4.327 5.388,7.072 9.812,6.18 0.328,-0.07 0.614,-0.189 0.921,-0.289 l 6.478,15.521 c -3.329,1.657 -5.281,5.371 -4.509,9.189 0.31,1.57 1.073,2.927 2.079,4.015 l 0.917,0.851 c 1.88,1.521 4.384,2.242 6.939,1.73 1.68,-0.333 3.145,-1.16 4.279,-2.297 l 20.231,18.225 c -0.592,0.899 -0.846,2.028 -0.62,3.171 0.346,1.74 1.727,2.997 3.367,3.305 l -0.666,19.27 c -0.07,0.013 -0.13,0.005 -0.199,0.017 -1.919,0.381 -3.17,2.262 -2.779,4.181 0.392,1.928 2.272,3.159 4.181,2.778 1.918,-0.391 3.159,-2.262 2.778,-4.181 -0.295,-1.421 -1.399,-2.477 -2.739,-2.764 l 0.666,-19.271 c 0.12,-0.014 0.24,-0.008 0.349,-0.031 1.959,-0.393 3.316,-2.087 3.375,-4 l 17.762,-2.077 c 0.525,1.724 2.281,2.819 4.08,2.452 1.929,-0.392 3.17,-2.263 2.779,-4.181 -0.392,-1.919 -2.262,-3.16 -4.181,-2.768 -1.61,0.321 -2.727,1.697 -2.827,3.261 l -17.763,2.077 c -0.578,-2.122 -2.702,-3.465 -4.889,-3.025 -0.696,0.142 -1.316,0.462 -1.832,0.888 L 775.09,476.119 c 1.382,-1.855 2.016,-4.246 1.518,-6.681 -0.926,-4.563 -5.372,-7.513 -9.935,-6.597 -0.329,0.06 -0.625,0.19 -0.922,0.289 l -6.477,-15.521 c 3.329,-1.657 5.291,-5.372 4.509,-9.189 -0.048,-0.258 -0.156,-0.495 -0.234,-0.752 l 55.105,-26.139 c 1.485,2.323 3.868,3.958 6.576,4.482 l -1.902,15.329 c -0.441,-0.006 -0.9,0.029 -1.347,0.123 -3.4,0.689 -5.585,4 -4.907,7.39 0.688,3.39 3.99,5.595 7.39,4.907 3.39,-0.689 5.595,-4 4.907,-7.4 -0.499,-2.476 -2.408,-4.296 -4.727,-4.842 l 1.902,-15.348 c 0.842,0.043 1.701,0.005 2.566,-0.173 2.207,-0.45 4.101,-1.591 5.492,-3.156 l 41.962,31.389 c -1.036,1.734 -1.479,3.829 -1.041,5.966 0.916,4.563 5.373,7.523 9.945,6.597 0.408,-0.083 0.793,-0.236 1.179,-0.368 l 16.316,33.517 c -2.037,1.376 -3.148,3.882 -2.626,6.437 0.429,2.148 1.912,3.801 3.798,4.561 l -7.623,26.086 c -0.533,-0.083 -1.084,-0.095 -1.65,0.023 -2.545,0.512 -4.197,3.005 -3.685,5.56 0.521,2.555 3.005,4.207 5.56,3.685 2.555,-0.512 4.206,-3.006 3.685,-5.56 -0.32,-1.551 -1.369,-2.768 -2.719,-3.366 l 7.623,-26.085 c 0.775,0.145 1.586,0.159 2.401,-0.007 2.197,-0.44 3.878,-2.004 4.616,-3.949 l 24.681,6.517 c -0.065,0.492 -0.068,1.003 0.038,1.52 0.512,2.545 3.005,4.196 5.55,3.684 2.555,-0.511 4.207,-3.005 3.695,-5.55 -0.511,-2.555 -3.015,-4.206 -5.56,-3.695 -1.59,0.331 -2.846,1.431 -3.422,2.831 l -24.66,-6.518 c 0.117,-0.724 0.123,-1.475 -0.031,-2.23 -0.689,-3.4 -4,-5.596 -7.39,-4.907 -0.229,0.047 -0.436,0.134 -0.664,0.201 l -16.327,-33.527 c 2.894,-1.813 4.525,-5.267 3.812,-8.796 -0.926,-4.562 -5.372,-7.522 -9.945,-6.596 -1.8,0.358 -3.341,1.287 -4.502,2.535 l -41.941,-31.38 c 0.923,-1.5 1.458,-3.238 1.5,-5.06 l 22.664,-1.493 c 0.706,3.319 3.956,5.466 7.286,4.79 1.919,-0.391 3.429,-1.64 4.259,-3.247 l 10.598,4.164 c -0.132,0.575 -0.153,1.176 -0.023,1.782 0.462,2.276 2.691,3.756 4.967,3.293 2.287,-0.463 3.756,-2.691 3.304,-4.967 -0.464,-2.287 -2.682,-3.757 -4.968,-3.294 -1.233,0.249 -2.218,1.021 -2.797,2.03 l -10.608,-4.174 c 0.261,-0.919 0.34,-1.902 0.138,-2.896 -0.118,-0.566 -0.335,-1.09 -0.581,-1.582 l 20.83,-14.771 c 0.958,0.869 2.292,1.297 3.664,1.023 2.287,-0.463 3.757,-2.69 3.304,-4.967 -0.463,-2.277 -2.691,-3.767 -4.968,-3.294 -2.276,0.463 -3.756,2.692 -3.293,4.968 0.059,0.288 0.138,0.566 0.256,0.822 l -20.8,14.76 c -1.428,-1.495 -3.543,-2.248 -5.711,-1.809 -2.773,0.559 -4.72,2.902 -4.924,5.6 l -22.684,1.493 c -0.024,-0.149 -0.039,-0.298 -0.074,-0.447 -0.416,-2.088 -1.465,-3.886 -2.889,-5.251 l 28.154,-37.676 c 1.67,0.897 3.633,1.275 5.641,0.871 3.927,-0.796 6.639,-4.204 6.737,-8.039 l 48.436,-5.936 c 1.305,5.181 6.453,8.489 11.752,7.409 1.789,-0.367 3.373,-1.188 4.648,-2.32 l 46.865,41.469 c -1.482,2.168 -2.124,4.91 -1.576,7.684 0.142,0.676 0.342,1.32 0.602,1.942 l -10.348,5.232 c -1.091,-1.576 -3.049,-2.434 -5.048,-2.04 -2.674,0.545 -4.401,3.152 -3.856,5.816 0.535,2.664 3.151,4.402 5.815,3.856 2.665,-0.535 4.402,-3.152 3.867,-5.816 -0.047,-0.219 -0.123,-0.416 -0.2,-0.614 l 10.379,-5.243 c 0.941,1.591 2.282,2.878 3.881,3.738 l -8.848,20.613 c -0.909,-0.252 -1.881,-0.311 -2.865,-0.109 -3.4,0.688 -5.596,3.99 -4.907,7.39 0.166,0.825 0.491,1.575 0.932,2.231 l -12.262,10.206 c -0.946,-0.83 -2.26,-1.228 -3.592,-0.966 -2.277,0.463 -3.756,2.691 -3.294,4.967 0.453,2.277 2.692,3.756 4.978,3.293 2.276,-0.463 3.756,-2.691 3.293,-4.967 -0.095,-0.477 -0.278,-0.901 -0.521,-1.304 l 12.26,-10.216 c 1.445,1.385 3.508,2.069 5.606,1.652 0.368,-0.072 0.724,-0.193 1.06,-0.324 l 9.5,18.057 c -1.447,1.056 -2.239,2.883 -1.87,4.742 0.298,1.491 1.286,2.66 2.556,3.28 l -6.062,21.394 c -0.543,-0.093 -1.113,-0.094 -1.69,0.024 -2.544,0.521 -4.206,3.005 -3.684,5.55 0.521,2.555 3.005,4.206 5.56,3.695 1.004,-0.202 1.858,-0.72 2.506,-1.411 l 24.016,17.754 c -0.3,0.59 -0.42,1.284 -0.27,1.99 0.34,1.68 1.97,2.758 3.65,2.425 1.68,-0.334 2.77,-1.98 2.43,-3.659 -0.33,-1.681 -1.98,-2.769 -3.65,-2.425 -0.6,0.119 -1.11,0.415 -1.53,0.799 l -24.013,-17.744 c 0.55,-0.968 0.793,-2.106 0.556,-3.279 -0.321,-1.591 -1.421,-2.837 -2.83,-3.422 l 6.044,-21.304 c 0.645,0.15 1.306,0.179 1.992,0.037 2.545,-0.511 4.206,-3.006 3.685,-5.56 -0.512,-2.545 -3.005,-4.196 -5.56,-3.685 -0.219,0.047 -0.427,0.124 -0.634,0.2 l -9.501,-18.066 c 2.047,-1.376 3.178,-3.893 2.656,-6.448 -0.357,-1.779 -1.453,-3.215 -2.892,-4.09 l 8.848,-20.602 c 1.598,0.529 3.363,0.663 5.133,0.306 1.849,-0.379 3.466,-1.241 4.766,-2.423 l 5.98,5.763 c -0.93,1.11 -1.38,2.595 -1.07,4.116 0.53,2.664 3.13,4.392 5.79,3.847 2.67,-0.535 4.38,-3.131 3.85,-5.795 -0.55,-2.664 -3.13,-4.383 -5.8,-3.848 -0.66,0.132 -1.27,0.401 -1.8,0.758 l -6.03,-5.81 c 1.59,-1.892 2.46,-4.341 2.36,-6.919 l 74.18,-12.52 c 0.79,2.776 2.69,4.987 5.11,6.22 l -12.59,32.638 c -1.23,-0.331 -2.52,-0.42 -3.84,-0.157 -4.57,0.925 -7.52,5.372 -6.59,9.944 0.23,1.134 0.67,2.16 1.28,3.061 l -10.86,9.16 c -1.35,-1.177 -3.2,-1.758 -5.09,-1.378 -3.23,0.653 -5.31,3.801 -4.66,7.022 0.51,2.575 2.63,4.399 5.09,4.71 l -0.36,17.3 c -0.13,0.015 -0.27,0.019 -0.4,0.043 -2.54,0.512 -4.2,2.996 -3.68,5.55 0.51,2.555 3,4.207 5.56,3.685 2.54,-0.521 4.19,-3.005 3.68,-5.56 -0.4,-1.988 -2.01,-3.408 -3.9,-3.707 l 0.36,-17.291 c 0.23,-0.017 0.45,-0.024 0.68,-0.072 3.23,-0.653 5.31,-3.79 4.67,-7.022 -0.14,-0.705 -0.42,-1.337 -0.78,-1.916 l 10.86,-9.16 c 1.93,1.839 4.69,2.751 7.5,2.181 1.14,-0.226 2.18,-0.679 3.08,-1.298 l 19.27,22.658 c -1.96,1.933 -2.95,4.786 -2.36,7.678 0.71,3.509 3.51,6.051 6.84,6.616 l -4.76,36.02 c -0.35,10e-4 -0.7,0.022 -1.06,0.094 -2.77,0.558 -4.57,3.267 -4.01,6.04 0.56,2.774 3.27,4.578 6.04,4.01 0.85,-0.167 1.59,-0.561 2.21,-1.071 l 21.76,20.877 c -0.41,0.654 -0.6,1.46 -0.43,2.265 0.34,1.68 1.98,2.769 3.66,2.425 1.68,-0.344 2.77,-1.979 2.42,-3.659 -0.34,-1.67 -1.98,-2.759 -3.66,-2.425 -0.41,0.083 -0.8,0.256 -1.14,0.487 l -21.75,-20.868 c 0.85,-1.128 1.24,-2.59 0.93,-4.071 -0.4,-1.979 -1.9,-3.452 -3.73,-3.934 l 4.76,-36.07 c 0.61,0.011 1.23,-0.029 1.84,-0.148 4.29,-0.867 7.12,-4.85 6.68,-9.118 l 14.7,-2.58 c 0.73,2.268 3.03,3.686 5.41,3.2 2.54,-0.521 4.19,-3.005 3.68,-5.56 -0.51,-2.545 -3,-4.197 -5.56,-3.685 -2.3,0.464 -3.86,2.534 -3.76,4.812 l -14.68,2.589 c -1.1,-4.327 -5.4,-7.092 -9.82,-6.19 -1.05,0.213 -1.98,0.624 -2.83,1.161 l -19.32,-22.726 c 1.83,-1.929 2.73,-4.669 2.16,-7.473 -0.52,-2.614 -2.23,-4.661 -4.43,-5.792 l 12.59,-32.618 c 1.55,0.471 3.22,0.578 4.92,0.234 1.86,-0.38 3.49,-1.252 4.8,-2.454 l 64.1,54.966 c -1.42,2.146 -2.03,4.827 -1.47,7.55 1.09,5.448 6.42,8.97 11.87,7.866 4.24,-0.866 7.31,-4.285 7.94,-8.337 l 59.7,1.738 c 0.03,0.23 0.02,0.44 0.06,0.669 0.93,4.562 5.38,7.512 9.94,6.597 0.15,-0.035 0.27,-0.099 0.41,-0.124 l 9.61,25.687 c -1.83,1.069 -2.87,3.214 -2.43,5.411 0.28,1.441 1.16,2.614 2.32,3.327 l -13.42,33.645 c -0.96,-0.24 -1.98,-0.307 -3.01,-0.095 -3.67,0.738 -6.06,4.326 -5.31,8.014 0.02,0.109 0.06,0.198 0.1,0.307 l -24.44,9.744 c -1.1,-1.766 -3.2,-2.77 -5.37,-2.33 -2.78,0.558 -4.57,3.267 -4,6.04 0.56,2.773 3.27,4.568 6.04,3.999 2.77,-0.558 4.57,-3.267 4.01,-6.04 0,-0.01 0,-0.02 -0.01,-0.02 l 24.43,-9.743 c 1.41,2.506 4.29,3.955 7.26,3.36 3.68,-0.747 6.07,-4.335 5.32,-8.013 -0.42,-2.018 -1.69,-3.619 -3.36,-4.556 l 13.43,-33.645 c 0.66,0.129 1.35,0.147 2.06,0.005 1.54,-0.319 2.77,-1.309 3.47,-2.602 l 34.93,11.573 c -0.16,0.835 -0.17,1.726 0.02,2.621 0.74,3.678 4.33,6.065 8,5.327 0.32,-0.07 0.61,-0.179 0.92,-0.299 l 11.67,22.79 c -1.51,1.148 -2.34,3.096 -1.94,5.084 0.56,2.774 3.27,4.568 6.05,4.009 2.77,-0.558 4.56,-3.267 3.99,-6.04 -0.55,-2.774 -3.25,-4.568 -6.04,-3.999 -0.16,0.035 -0.31,0.1 -0.47,0.145 l -11.67,-22.77 c 2.16,-1.5 3.36,-4.189 2.8,-6.943 -0.03,-0.109 -0.07,-0.198 -0.09,-0.297 l 24.61,-9.789 c 1.1,1.775 3.2,2.779 5.37,2.34 2.77,-0.559 4.56,-3.257 4.01,-6.041 -0.57,-2.783 -3.27,-4.568 -6.05,-4.009 -2.77,0.558 -4.57,3.267 -4.01,6.04 0.01,0.01 0.02,0.01 0.02,0.02 l -24.62,9.779 c -1.41,-2.506 -4.28,-3.955 -7.26,-3.35 -2.15,0.429 -3.85,1.863 -4.74,3.703 l -34.96,-11.582 c 0.08,-0.573 0.1,-1.154 -0.02,-1.75 -0.55,-2.744 -3.21,-4.52 -5.95,-4.013 l -9.61,-25.677 c 3.32,-1.666 5.27,-5.371 4.5,-9.188 -0.33,-1.67 -1.16,-3.114 -2.27,-4.249 l 39.77,-53.115 c 2.04,1.166 4.5,1.638 6.98,1.128 1.88,-0.38 3.53,-1.273 4.84,-2.485 l 19.5,17.628 c -1.16,1.637 -1.69,3.725 -1.26,5.842 0.69,3.38 3.54,5.731 6.82,5.987 l 1.39,33.712 c -0.06,0.012 -0.12,0.004 -0.18,0.016 -3.67,0.748 -6.05,4.325 -5.31,8.004 0.73,3.678 4.32,6.055 8,5.317 3.68,-0.747 6.06,-4.325 5.32,-8.013 -0.62,-3.012 -3.14,-5.123 -6.06,-5.39 l -1.39,-33.723 c 0.09,-0.013 0.2,-0.006 0.3,-0.029 3.07,-0.619 5.32,-3.032 5.89,-5.921 l 42.07,3.301 c 0.02,0.29 0.03,0.579 0.08,0.868 0.7,3.439 4.06,5.663 7.5,4.973 3.44,-0.7 5.66,-4.042 4.96,-7.491 -0.32,-1.581 -1.22,-2.893 -2.42,-3.795 l 8.74,-15.857 c 0.57,0.162 1.19,0.213 1.81,0.083 2.11,-0.428 3.48,-2.482 3.06,-4.59 -0.09,-0.397 -0.24,-0.763 -0.43,-1.097 l 19.74,-17.828 c 1.14,0.884 2.64,1.296 4.16,0.998 2.09,-0.427 3.62,-2.066 4.01,-4.04 l 19.11,0.591 c 0.02,0.2 0.02,0.39 0.06,0.589 0.43,2.108 2.48,3.473 4.6,3.045 2.1,-0.427 3.47,-2.482 3.04,-4.589 -0.42,-2.108 -2.48,-3.473 -4.59,-3.046 -1.48,0.298 -2.57,1.403 -2.96,2.766 l -19.18,-0.589 c -0.01,-0.25 -0.02,-0.499 -0.07,-0.748 -0.45,-2.247 -2.33,-3.828 -4.48,-4.059 l 0.51,-19.837 c 0.09,-0.013 0.17,-0.006 0.25,-0.028 2.12,-0.428 3.48,-2.482 3.06,-4.6 -0.43,-2.107 -2.48,-3.472 -4.6,-3.045 -2.11,0.428 -3.48,2.493 -3.05,4.6 0.33,1.6 1.59,2.77 3.1,3.052 l -0.51,19.877 c -0.11,0.014 -0.21,0.007 -0.32,0.03 -2.78,0.569 -4.57,3.268 -4.01,6.041 0.12,0.617 0.37,1.189 0.68,1.699 l -19.73,17.818 c -0.84,-0.584 -1.91,-0.84 -2.99,-0.625 -0.64,0.13 -1.18,0.418 -1.66,0.793 l -20.75,-18.739 c 0.78,-1.115 1.14,-2.516 0.85,-3.958 -0.56,-2.774 -3.27,-4.569 -6.04,-4.01 -2.25,0.452 -3.83,2.313 -4.06,4.482 l -19.02,0.286 c -0.01,-0.03 0,-0.06 -0.01,-0.09 -0.43,-2.107 -2.5,-3.482 -4.6,-3.045 -2.12,0.428 -3.49,2.482 -3.05,4.6 0.43,2.107 2.48,3.472 4.59,3.045 1.66,-0.333 2.84,-1.671 3.07,-3.249 l 19.02,-0.287 c 0.01,0.11 0.01,0.21 0.03,0.32 0.57,2.773 3.27,4.568 6.04,4.009 0.9,-0.179 1.68,-0.604 2.32,-1.164 l 20.75,18.738 c -0.53,0.828 -0.76,1.855 -0.55,2.889 0.18,0.864 0.63,1.601 1.25,2.141 l -8.75,15.817 c -1.09,-0.415 -2.3,-0.547 -3.52,-0.298 -2.53,0.511 -4.4,2.472 -4.94,4.85 l -42.06,-3.291 c -0.03,-0.4 -0.05,-0.789 -0.12,-1.187 -0.82,-4.076 -4.81,-6.721 -8.88,-5.9 -1.34,0.272 -2.49,0.899 -3.44,1.73 l -19.51,-17.637 c 1.68,-2.225 2.44,-5.121 1.84,-8.053 -0.98,-4.871 -5.33,-8.194 -10.13,-8.061 l -7.1,-46.788 c 3.31,-1.016 5.61,-3.911 5.93,-7.262 l 26.87,-0.337 c 0.01,0.13 0.01,0.25 0.03,0.379 0.75,3.678 4.33,6.056 8.02,5.318 0.8,-0.166 1.54,-0.48 2.2,-0.891 l 8.31,10.821 c -0.57,0.688 -0.86,1.618 -0.67,2.573 0.34,1.66 1.96,2.738 3.63,2.405 1.66,-0.333 2.74,-1.958 2.4,-3.618 -0.34,-1.66 -1.95,-2.739 -3.61,-2.396 -0.25,0.048 -0.47,0.124 -0.69,0.231 l -8.3,-10.81 c 1.68,-1.555 2.54,-3.904 2.04,-6.309 -0.11,-0.566 -0.31,-1.091 -0.55,-1.583 l 27.26,-17.838 c 1.07,1.107 2.67,1.676 4.3,1.344 1.93,-0.392 3.34,-1.917 3.69,-3.749 l 25.62,1.114 c 0.02,0.02 0.02,0.039 0.02,0.069 0.33,1.671 1.95,2.739 3.62,2.406 1.66,-0.333 2.73,-1.958 2.4,-3.618 -0.34,-1.66 -1.96,-2.739 -3.63,-2.396 -1.17,0.238 -2.05,1.126 -2.35,2.216 l -25.66,-1.103 c -0.01,-0.16 -0.02,-0.309 -0.04,-0.468 -0.52,-2.545 -3,-4.197 -5.55,-3.676 -2.55,0.512 -4.2,2.996 -3.68,5.54 0.06,0.298 0.16,0.575 0.27,0.852 l -27.26,17.838 c -1.56,-1.792 -3.99,-2.744 -6.48,-2.245 -2.95,0.595 -5.04,3.022 -5.37,5.854 l -26.87,0.337 c -0.04,-0.229 -0.02,-0.45 -0.07,-0.679 -0.33,-1.64 -1.13,-3.055 -2.2,-4.172 l 30.29,-39.235 c 2.11,1.254 4.67,1.773 7.26,1.24 5.55,-1.118 9.13,-6.525 8.01,-12.072 l 40.05,-12.452 c 0.02,0.039 0.02,0.1 0.04,0.139 1.71,3.547 5.97,5.052 9.51,3.348 1.21,-0.578 2.15,-1.469 2.84,-2.501 l 43.11,21.377 c -0.45,1.455 -0.38,3.074 0.32,4.552 1.5,3.124 5.26,4.445 8.37,2.945 3.13,-1.5 4.45,-5.254 2.95,-8.368 -0.07,-0.138 -0.16,-0.255 -0.25,-0.393 l 31.79,-24.565 c 1.83,1.583 4.49,2.038 6.82,0.923 3.12,-1.5 4.44,-5.254 2.95,-8.368 -1.51,-3.124 -5.26,-4.445 -8.38,-2.944 -3.13,1.5 -4.45,5.254 -2.95,8.368 0.11,0.226 0.27,0.441 0.4,0.657 l -31.72,24.523 c -1.84,-1.752 -4.62,-2.303 -7.04,-1.146 -1.06,0.514 -1.89,1.291 -2.5,2.211 l -43.06,-21.359 c 0.59,-1.72 0.54,-3.659 -0.31,-5.423 -0.5,-1.064 -1.26,-1.911 -2.14,-2.573 l 13.33,-23.156 c 1.1,0.375 2.35,0.345 3.5,-0.202 2.31,-1.104 3.28,-3.877 2.18,-6.193 -1.11,-2.306 -3.88,-3.287 -6.2,-2.173 -2.31,1.104 -3.28,3.886 -2.17,6.192 0.28,0.591 0.68,1.089 1.14,1.495 l -13.32,23.146 c -1.82,-0.763 -3.93,-0.796 -5.83,0.115 -2.95,1.415 -4.44,4.605 -3.91,7.679 l -40.04,12.452 c -0.68,-1.739 -1.8,-3.214 -3.21,-4.33 l 8.46,-13.426 c 1.15,0.443 2.47,0.441 3.67,-0.127 2.31,-1.114 3.28,-3.877 2.18,-6.193 -1.11,-2.306 -3.88,-3.288 -6.19,-2.174 -2.31,1.114 -3.28,3.887 -2.18,6.193 0.26,0.532 0.6,0.981 1.01,1.359 l -8.44,13.395 c -1.56,-0.841 -3.35,-1.264 -5.2,-1.195 l -10.27,-64.515 c 4.37,-1.26 7.33,-5.227 7.41,-9.661 3.33,-0.217 6.58,-0.43 9.22,-0.584 0.01,0.029 0.01,0.059 0.01,0.089 0.66,3.251 3.83,5.361 7.09,4.707 3.26,-0.664 5.37,-3.833 4.71,-7.094 -0.66,-3.26 -3.83,-5.361 -7.09,-4.706 -2.63,0.533 -4.47,2.694 -4.77,5.224 -2.68,0.146 -5.97,0.361 -9.29,0.587 -0.03,-0.149 -0.04,-0.289 -0.07,-0.438 -0.45,-2.247 -1.62,-4.171 -3.21,-5.591 l 29.37,-39.116 c 1.8,1.084 3.97,1.545 6.19,1.094 4.07,-0.82 6.88,-4.382 6.95,-8.376 l 48.12,-4.135 v 0.01 c 0.95,4.702 5.53,7.748 10.24,6.797 1.55,-0.32 2.89,-1.052 4,-2.028 l 21.91,20.221 c -0.88,1.289 -1.25,2.922 -0.92,4.572 0.65,3.261 3.83,5.371 7.09,4.707 3.26,-0.664 5.36,-3.833 4.71,-7.094 -0.66,-3.261 -3.83,-5.37 -7.1,-4.706 -0.97,0.201 -1.83,0.638 -2.55,1.232 l -21.93,-20.232 c 1.44,-1.907 2.09,-4.379 1.59,-6.904 -0.05,-0.279 -0.16,-0.525 -0.25,-0.783 l 47.52,-19.073 c 1.26,2.151 3.77,3.391 6.36,2.868 2.11,-0.427 3.72,-1.909 4.44,-3.793 l 43.42,9.262 c -0.04,0.571 -0.03,1.141 0.09,1.728 0.7,3.489 4.1,5.752 7.58,5.04 3.49,-0.711 5.75,-4.105 5.04,-7.594 -0.09,-0.437 -0.21,-0.853 -0.39,-1.238 l 52.15,-28.426 c 1.02,1.3684 2.76,2.1131 4.54,1.7562 1.83,-0.3684 3.18,-1.8019 3.54,-3.5144 l 44.61,3.0202 c 0.01,0.1296 0.02,0.2494 0.04,0.3787 0.42,2.0478 2.41,3.375 4.46,2.9596 2.05,-0.4155 3.38,-2.4192 2.97,-4.467 -0.31,-2.0713 -2.31,-3.3983 -4.36,-2.9828 z"
         fill="#ffe781"
         id="path5" />
      <circle
         r="16"
         transform="matrix(-1,0,0,1,1290,351)"
         fill="#ffe781"
         id="circle7"
         cx="0"
         cy="0" />
      <circle
         r="21.5"
         transform="matrix(-1,0,0,1,1087.5,345.5)"
         fill="#ffe781"
         id="circle9"
         cx="0"
         cy="0" />
      <circle
         r="17.5"
         transform="matrix(-1,0,0,1,932.501,346.5)"
         fill="#ffe781"
         id="circle11"
         cx="0"
         cy="0" />
      <circle
         r="8.5"
         transform="matrix(-1,0,0,1,1013.5,319.5)"
         fill="#ffe781"
         id="circle13"
         cx="0"
         cy="0" />
      <circle
         r="13.5"
         transform="matrix(-1,0,0,1,1348.5,179.5)"
         fill="#ffe781"
         id="circle15"
         cx="0"
         cy="0" />
      <circle
         r="18.5"
         transform="matrix(-1,0,0,1,1344.5,347.5)"
         fill="#ffe781"
         id="circle17"
         cx="0"
         cy="0" />
      <circle
         r="47"
         transform="matrix(-1,0,0,1,1428,384)"
         fill="#fedd5c"
         id="circle19"
         cx="0"
         cy="0" />
      <circle
         r="18.5"
         transform="matrix(-1,0,0,1,1193.5,397.5)"
         fill="#fedd5c"
         id="circle21"
         cx="0"
         cy="0" />
      <circle
         r="18"
         transform="matrix(-1,0,0,1,1351,396)"
         fill="#fedd5c"
         id="circle23"
         cx="0"
         cy="0" />
    </g>
  </g>
</svg>
