<?xml version="1.0" encoding="UTF-8" standalone="no"?>
<svg
   width="1458"
   height="401"
   viewBox="0 0 1458 401"
   fill="none"
   version="1.1"
   id="svg122"
   xmlns="http://www.w3.org/2000/svg"
   xmlns:svg="http://www.w3.org/2000/svg">
  <defs
     id="defs126" />
  <path
     id="rect2462"
     style="fill:#fff;fill-opacity:1"
     d="M -3.3984375,-5.0976562 V 409.49609 H 1461.2715 V -5.0976562 Z M 182.14258,17.751953 c 4.0502,0.182093 7.89594,1.290345 11.85156,2.410156 58.00094,16.443584 115.98471,32.955451 173.97266,49.427735 9.29199,2.639597 18.63877,5.074078 27.88476,7.859375 2.452,0.739899 5.11399,1.936305 6.83399,3.720703 14.95098,15.626684 29.70968,31.432138 44.51367,47.203128 0.404,0.428 0.61672,1.05703 1.26172,2.20703 -8.84399,0.963 -17.19303,1.91176 -25.54102,2.75976 -19.15898,1.942 -38.28416,4.47141 -57.49414,5.44141 -8.01599,0.403 -16.2986,-2.1815 -24.30859,-4.0625 -24.72498,-5.80199 -49.38439,-11.90849 -74.06836,-17.89648 -21.57898,-5.235 -43.26162,-10.09893 -64.6836,-15.91993 -6.06399,-1.641195 -11.49472,-5.84835 -17.01171,-9.218746 -27.25198,-16.663884 -54.44161,-33.440436 -81.64258,-50.199219 -1.1,-0.677799 -2.07798,-1.554279 -3.859378,-2.892578 3.312398,-0.994499 5.897018,-1.869041 8.541018,-2.556641 22.06598,-5.759794 44.2419,-11.165868 66.17187,-17.414062 2.64375,-0.754274 5.14801,-0.978396 7.57813,-0.869141 z M 24.582031,30.261719 c 8.206592,2.184898 16.354227,4.625452 24.636719,6.40625 10.847889,2.322197 20.831178,6.316818 30.480469,11.945312 28.881971,16.847983 58.063171,33.186604 87.119141,49.742188 1.219,0.701299 2.37425,1.515704 4.65625,2.970701 -12.45699,2.116 -23.66048,4.01002 -34.85547,5.91602 -2.462,0.416 -5.00742,0.59251 -7.35742,1.35351 -16.36698,5.287 -31.804561,-0.50253 -47.402345,-3.89453 -16.875083,-3.66799 -33.690136,-7.600158 -50.511719,-11.472654 -4.522495,-1.034099 -9.008604,-2.22417 -13.5,-3.355469 z M 557.08203,60.138672 c 2.36391,-0.108019 4.81521,0.127919 6.9707,0.824219 55.12195,17.788982 110.18203,35.763164 165.29297,53.560549 3.951,1.282 5.62486,2.77835 5.00586,7.27734 -1.754,12.67299 -2.9837,25.42581 -4.4707,38.5918 -14.46399,0.913 -29.31766,1.8923 -44.18164,2.7793 -24.01398,1.44399 -48.02176,3.20128 -72.05274,3.98828 -6.72699,0.217 -13.64313,-2.15502 -20.32812,-3.91602 -35.59097,-9.38399 -71.14416,-18.94456 -106.70313,-28.43555 -1.28099,-0.336 -2.5982,-0.60567 -3.9082,-0.76367 -8.12299,-0.968 -13.50203,-5.5605 -18.45703,-11.9375 -10.30599,-13.26998 -21.40607,-25.914995 -32.16406,-38.833982 -0.93,-1.121499 -1.69366,-2.396287 -3.09766,-4.396485 14.06499,-2.104698 27.193,-4.103617 40.33399,-6.041015 28.47097,-4.201096 56.94548,-8.43102 85.43945,-12.478516 0.7545,-0.1085 1.53234,-0.182744 2.32031,-0.21875 z m 377.69141,42.367188 c 2.11668,0.0439 4.28909,0.41419 6.18359,1.14844 37.84296,14.76098 75.62217,29.66479 113.41207,44.55078 1.2,0.477 2.3103,1.12612 4.2403,2.07812 -6.06,4.549 -11.5687,8.75743 -17.1387,12.85742 -11.93,8.776 -23.8702,17.53203 -35.9102,26.16602 -1.51,1.087 -3.5914,1.85888 -5.4414,1.92188 -46.07091,1.62899 -92.14833,3.38764 -138.23629,4.43164 -6.69899,0.149 -13.51746,-3.01457 -20.18945,-4.97657 -31.66797,-9.28299 -63.30344,-18.68274 -94.94141,-28.05273 -0.457,-0.142 -0.88011,-0.40186 -1.91211,-0.88086 2.258,-13.21999 4.54215,-26.14453 6.61914,-39.10352 0.501,-3.18399 1.84834,-4.42103 5.11133,-4.70703 58.71094,-5.08299 117.40625,-10.2981 176.11719,-15.37109 0.6805,-0.0565 1.38038,-0.0771 2.08594,-0.0625 z m -918.376956,0.22461 c 10.37879,2.199 20.775223,4.32995 31.132813,6.62695 17.013983,3.773 33.912467,8.1359 51.03125,11.33789 11.362993,2.129 21.366493,7.10315 31.521483,11.99414 15.27999,7.361 30.51292,14.8091 45.75391,22.2461 1.087,0.536 2.06848,1.28953 4.39648,2.76953 -11.64799,1.2 -21.87318,1.82795 -31.95117,3.37695 -13.51799,2.075 -26.02047,-2.61784 -38.81445,-5.08984 -32.343771,-6.239 -64.593101,-12.95057 -96.884769,-19.47657 z m 180.927736,11.15625 c 6.94312,0.24375 13.48502,2.59709 20.16601,4.12109 24.90098,5.671 49.68642,11.83212 74.52539,17.78711 20.98798,5.027 41.98087,10.01504 62.96485,15.08203 1.576,0.39 3.22444,1.03777 4.52344,2.00977 11.09599,8.22699 22.13198,16.55791 33.16797,24.8789 0.73199,0.556 1.29968,1.31552 2.67968,2.72852 -10.87899,0.714 -20.75544,1.37895 -30.64844,2.00195 -7.14499,0.451 -14.28546,1.12513 -21.43945,1.20313 -5.09799,0.048 -10.32383,-0.18961 -15.29883,-1.22461 -38.64096,-8.04799 -77.24635,-16.24324 -115.82031,-24.61523 -4.14499,-0.901 -8.08041,-3.03665 -11.94141,-4.93165 -19.12798,-9.38599 -38.1925,-18.87494 -57.27148,-28.33593 -0.725,-0.354 -1.386,-0.82268 -3.375,-2.01368 4.956,-0.75799 8.65013,-1.29595 12.32813,-1.87695 12.78898,-2.027 25.66276,-3.65309 38.34375,-6.24609 2.42349,-0.496 4.78133,-0.64961 7.0957,-0.56836 z m 269.07812,30.49805 c 7.15584,0.33113 14.46748,2.89704 21.57422,4.68554 19.94298,5.02 39.79329,10.40285 59.69727,15.58985 17.82098,4.64999 35.67363,9.20169 53.47461,13.92968 1.417,0.381 3.17309,1.49505 3.74609,2.74805 3.256,7.07999 6.19335,14.30532 9.65235,22.44531 -13.07999,0.414 -25.17855,0.7886 -37.26954,1.1836 -12.47398,0.403 -24.98493,1.57657 -37.41992,1.01758 -10.19199,-0.467 -20.40093,-2.48507 -30.41992,-4.66407 -28.79097,-6.24999 -57.5035,-12.92471 -86.23047,-19.4707 -1.598,-0.371 -3.38867,-0.73541 -4.63867,-1.69141 -11.74699,-8.97499 -23.38775,-18.07834 -36.30274,-28.11132 4.973,-0.646 8.56746,-1.20674 12.18946,-1.55274 22.95898,-2.177 45.88165,-4.91047 68.89062,-6.10547 1.01488,-0.0528 2.03438,-0.0512 3.05664,-0.004 z m 843.20706,0.74804 c 3,-0.114 6.3615,0.54807 9.0215,1.91407 22.6099,11.67198 45.1087,23.59232 67.6386,35.44531 0.57,0.296 1.06,0.73467 2.17,1.51367 -1.45,0.732 -2.4599,1.42259 -3.5899,1.80859 -35.18,11.67499 -70.2802,23.66272 -105.6601,34.72071 -7.5,2.34299 -16.0604,1.62872 -24.1504,1.76172 -27.34,0.46399 -54.6989,0.66409 -82.0489,0.99609 -20.7199,0.257 -41.4599,1.05487 -62.1699,0.54687 -6.53,-0.163 -13.0112,-3.62306 -19.4512,-5.78906 -21.3599,-7.19199 -42.6697,-14.49138 -65.4296,-22.23437 7.9199,-5.254 14.7599,-9.84662 21.6699,-14.34961 11.43,-7.444 22.8197,-14.98378 34.4297,-22.13477 2.96,-1.81 6.6808,-3.10016 10.1308,-3.28515 54.18,-2.866 108.3704,-5.52157 162.5703,-8.22657 18.29,-0.923 36.5692,-1.9665 54.8692,-2.6875 z M 11.347656,147.4375 c 19.577981,3.882 39.166654,7.75379 58.740235,11.67578 19.74018,3.96 39.624599,7.35285 59.142579,12.21484 11.84299,2.957 23.14648,8.12068 34.60547,12.51368 6.31799,2.42499 12.45171,5.32167 18.5957,9.01367 -1.143,0.234 -2.28145,0.50845 -3.43945,0.68945 -17.78398,2.781 -35.07913,-0.65277 -52.41211,-4.00976 -26.30498,-5.094 -52.729916,-9.54806 -78.929689,-15.12305 -11.321489,-2.406 -22.182165,-6.94477 -33.251953,-10.50977 -1.573899,-0.499 -3.158916,-0.98017 -4.7460942,-1.45117 z m 191.279294,21.22852 c 9.33304,0.0854 18.37717,2.50623 27.50391,4.42773 31.76997,6.68799 63.53512,13.33435 95.24609,20.27734 4.93,1.08 9.73134,3.28377 14.23633,5.63477 6.71699,3.516 13.12779,7.62147 19.67578,11.48047 -0.121,0.54 -0.24033,1.06937 -0.36133,1.60937 -17.68798,-0.569 -35.30925,2.72387 -53.11523,-1.07812 -29.47097,-6.288 -59.24037,-11.18871 -88.65234,-17.7207 -10.07299,-2.235 -19.48236,-7.57571 -29.15235,-11.59571 -6.41099,-2.667 -12.75079,-5.52706 -20.55078,-8.91406 2.62,-0.65 3.73572,-1.07627 4.88672,-1.19727 6.94399,-0.715 14.00285,-0.844 20.83984,-2.125 3.1895,-0.59575 6.33235,-0.82728 9.44336,-0.79882 z m 531.19727,6.02929 c 6.35999,-0.177 12.87855,2.43124 19.18555,4.24024 30.16197,8.62999 60.26556,17.41511 90.39453,26.16211 0.468,0.133 0.88955,0.42054 2.18554,1.06054 -5.05899,6.926 -9.91845,13.76368 -15.06445,20.38868 -0.671,0.85999 -2.78066,0.84332 -4.22266,0.86132 -31.13796,0.458 -62.26542,1.16946 -93.40039,1.06446 -7.50499,-0.022 -15.05147,-2.52602 -22.48046,-4.29102 -25.43098,-6.05299 -50.83601,-12.25279 -76.20899,-18.55078 -1.675,-0.41 -3.74753,-1.83222 -4.39453,-3.32422 -2.98,-6.84799 -5.53643,-13.87798 -8.60742,-21.79297 13.14698,-0.749 25.3679,-1.49253 37.58789,-2.14453 25.00797,-1.332 49.99941,-2.97883 75.02539,-3.67383 z m -692.757814,9.50196 c 1.373029,0.0209 2.732283,0.12648 4.066406,0.36523 35.878665,6.39799 71.749118,12.87374 107.455078,20.17773 10.13999,2.081 19.71021,6.96829 29.5332,10.61329 0.511,0.199 0.8736,0.82242 2.5586,2.48242 -7.62699,-0.107 -13.96554,0.59607 -20.01953,-0.41992 -29.54197,-4.937 -59.14525,-9.68967 -88.449222,-15.84766 -15.719485,-3.295 -30.861328,-9.3031 -46.257813,-14.12109 -0.554099,-0.173 -0.97901,-0.7739 -1.412109,-2.46289 4.153045,-0.15 8.406305,-0.84988 12.52539,-0.78711 z m -34.6679685,7.06054 c 9.8827505,2.938 19.7657475,5.86574 29.6484375,8.80274 -0.1392,0.609 -0.278869,1.22793 -0.417969,1.83593 -10.24129,1.128 -20.056266,-1.96301 -30.003906,-3.79101 z m 399.9824225,0.86328 c 13.69697,0.0239 26.84895,3.59894 40.14062,6.53125 24.71398,5.448 49.32794,11.33806 74.12891,16.37305 9.20799,1.876 12.64015,9.08601 19.24414,15.75 -8.84999,0.218 -16.09237,0.44492 -23.31836,0.54492 -10.98799,0.158 -22.03718,0.96405 -32.95117,0.12305 -9.89699,-0.765 -19.68162,-3.23846 -29.47461,-5.18945 -20.90398,-4.173 -41.79722,-8.43546 -62.6582,-12.81446 -3.038,-0.635 -6.09602,-1.79512 -8.79102,-3.32812 -7.76499,-4.399 -15.35363,-9.11976 -23.01562,-13.71875 0.132,-0.458 0.26639,-0.92653 0.40039,-1.39453 12.24499,-0.7 24.59081,-0.67444 36.71679,-2.27344 3.22725,-0.42413 6.41729,-0.60902 9.57813,-0.60352 z m 1040.07034,1.30274 c 2.6067,-0.002 5.2256,0.1464 7.8281,0.1914 l -6.6191,58.62696 c -18.23,-0.016 -36.471,-0.0121 -54.711,-0.0391 -9.96,-0.018 -19.9191,0.004 -29.8691,-0.15429 -2.58,-0.05 -5.3395,-0.23069 -7.6895,-1.17969 -17.05,-6.88799 -34.0113,-13.98699 -52.3613,-21.58398 3.44,-1.242 5.6306,-2.15127 7.8906,-2.82227 35.53,-10.48799 70.9893,-21.2864 106.6992,-31.15039 8.29,-2.284 17.4605,-1.42013 26.2305,-1.82812 0.865,-0.0433 1.7327,-0.06 2.6016,-0.0605 z m -1239.87698,9.87695 c 12.07339,0.22134 23.87193,3.27989 35.73242,5.52539 23.05498,4.365 46.15724,8.59444 69.07422,13.64844 7.69899,1.695 14.87902,5.74556 22.29102,8.72656 -0.175,0.664 -0.3504,1.32038 -0.5254,1.98438 -1.56399,0.126 -3.11878,0.25048 -4.67578,0.39648 -18.51698,1.693 -36.44247,-2.37453 -54.43945,-5.64453 -16.53698,-3.006 -33.22166,-5.41232 -49.55664,-9.32031 -12.32599,-2.953 -24.18401,-7.83352 -36.25,-11.85352 0.069,-0.606 0.14756,-1.2114 0.22656,-1.8164 1.981,-0.259 3.97532,-0.45611 5.94531,-0.78711 4.0985,-0.692 8.15327,-0.93316 12.17774,-0.85938 z m 796.43558,1.45703 c 1.73,-0.037 3.5511,0.2696 5.2011,0.8086 24.57,8.08799 49.12,16.23558 73.67,24.39257 0.73,0.243 1.3799,0.7091 2.9199,1.4961 -11.14,5.11199 -21.871,9.25588 -31.791,14.79687 -9.64,5.392 -19.7303,5.02786 -29.9903,5.00586 -31.11094,-0.062 -62.23098,0.23624 -93.33395,-0.50976 -8.45899,-0.211 -16.89287,-3.40707 -25.25586,-5.53907 -18.05798,-4.60599 -36.07082,-9.41792 -54.0918,-14.16992 -0.928,-0.246 -1.79417,-0.69639 -3.57617,-1.40039 5.46299,-7.03199 10.31436,-13.90113 15.94336,-20.07812 1.436,-1.579 5.29964,-1.20221 8.05664,-1.28321 29.34897,-0.831 58.69514,-1.56198 88.03711,-2.33398 14.73698,-0.388 29.47095,-0.84755 44.21097,-1.18555 z M 4.5078125,207.98242 c 17.0058325,2.152 33.6899255,5.64468 49.7246095,11.76367 -0.0972,0.593 -0.203581,1.17458 -0.300781,1.76758 -16.666684,-2.838 -33.322688,-5.67544 -49.9882816,-8.52344 z m 66.7695315,3.35547 c 1.199324,-0.0269 2.286757,-0.009 3.347656,0.17578 29.86987,5.155 59.76711,10.25143 89.58008,15.73242 6.73399,1.233 13.20502,3.90793 19.79101,5.91993 -0.138,0.507 -0.26653,1.02615 -0.39453,1.53515 -10.47599,2.762 -108.600655,-16.3624 -116.343748,-23.27539 1.508499,0.01 2.820208,-0.061 4.019532,-0.0879 z m 550.453126,4.39649 c 6.84799,0.039 13.72872,2.30525 20.51172,3.90624 24.80097,5.841 49.53488,11.9971 74.38086,17.6211 5.34799,1.208 4.74998,4.01769 4.45898,7.92969 -0.308,4.15199 -2.08463,5.18943 -6.01562,5.14843 -22.81898,-0.223 -45.66506,0.31496 -68.45703,-0.49804 -9.522,-0.341 -18.98194,-3.27996 -28.41993,-5.25196 -17.11698,-3.57299 -34.10258,-7.95866 -51.35156,-10.72265 -9.93299,-1.595 -13.65008,-8.86715 -20.08008,-15.99414 7.41,-0.3 13.4796,-0.59053 19.5586,-0.76953 18.46798,-0.551 36.94808,-1.47214 55.41406,-1.36914 z M 2.9316406,221.94336 c 19.6407104,3.416 39.4716694,5.85593 58.9062504,10.29492 -0.1361,0.76 -0.272104,1.5193 -0.408203,2.2793 -19.614581,-3.202 -39.219394,-6.40152 -58.8339849,-9.60352 z m 367.6914094,0.46289 c 22.11861,-0.23614 43.23966,6.8255 64.80664,10.54687 12.45899,2.142 24.87482,4.65274 37.13281,7.67774 4.72,1.157 8.96474,4.20272 13.42773,6.38672 -0.242,0.808 -0.47479,1.61583 -0.71679,2.42383 -7.76299,0.029 -15.54198,-0.22357 -23.29297,0.14843 -20.58998,0.975 -40.18699,-5.05364 -60.16797,-8.30664 -8.86399,-1.444 -17.62563,-3.61117 -26.51562,-4.82617 -9.969,-1.368 -18.72609,-5.63653 -27.45508,-10.14453 -0.685,-0.35 -1.20388,-1.01261 -3.04688,-2.59961 6.319,-0.262 11.33921,-0.16756 16.2832,-0.72656 3.20475,-0.36263 6.38513,-0.54635 9.54493,-0.58008 z m -158.04883,4.99609 c 1.74033,-0.0138 3.46605,0.0667 5.1543,0.35547 28.72797,4.936 57.42587,10.12923 86.08984,15.44922 3.371,0.633 6.50214,2.56567 9.74414,3.88867 -0.184,0.472 -0.36702,0.94397 -0.54102,1.41797 -12.81698,2.9 -99.22151,-12.61516 -109.1875,-20.78515 2.89563,-0.0188 5.83969,-0.30323 8.74024,-0.32618 z m 1059.77538,7.60547 c 0.78,-0.002 1.6296,0.0549 2.3496,0.33789 17.41,6.897 34.8,13.84307 53.5,21.28907 -2.47,0.85799 -3.7083,1.40075 -4.9883,1.71875 -22.6799,5.35899 -45.3303,10.84163 -68.0703,15.89062 -4.79,1.06 -9.9206,0.76136 -14.8906,0.69336 -37.81,-0.517 -75.6202,-0.86145 -113.4102,-1.93945 -7.4499,-0.218 -14.8902,-3.13269 -22.2402,-5.17969 -12.8,-3.58 -25.5193,-7.45127 -38.2793,-11.19727 -0.04,-0.467 -0.081,-0.92362 -0.1211,-1.39062 9.54,-4.197 19.4815,-7.68373 28.5215,-12.76172 13.8,-7.75999 28.5885,-6.08936 43.2285,-6.31836 28.71,-0.46 57.4209,-0.71852 86.1309,-0.97851 16.09,-0.145 32.1795,-0.12907 48.2695,-0.16407 z m -464.96483,4.16992 c 7.7001,-0.0251 15.40036,-0.002 23.09961,0.10547 8.78099,0.126 17.54491,3.5209 26.2539,5.71289 15.33299,3.865 30.61031,7.9641 45.9043,11.9961 1.544,0.406 3.03492,1.018 5.54492,1.875 -7.73499,5.39599 -13.3596,11.3522 -23.43359,10.9082 -24.95298,-1.107 -49.97204,-0.47136 -74.91602,-1.56836 -9.69399,-0.42 -19.28315,-3.47545 -28.86914,-5.56445 -14.81199,-3.223 -29.56297,-6.70911 -44.37695,-9.91211 -3.399,-0.736 -5.03764,-2.0891 -4.18164,-5.74609 0.775,-3.304 -0.30612,-7.19022 5.67187,-7.19922 23.09848,-0.0172 46.20243,-0.53196 69.30274,-0.60743 z m -308.47852,2.63477 c 4.5,0 11.99985,0.0547 15.58984,0.0547 13.40999,0 22.19763,-0.0967 35.97461,-0.0547 4.603,0.013 9.2324,1.11259 13.77539,2.05859 22.98798,4.78 45.95281,9.69835 68.92579,14.52735 3.64699,0.764 6.7439,1.94808 6.6289,7.33008 -5.33299,-0.009 -10.5726,0.0326 -15.80859,-0.0254 -10.49199,-0.12799 -21.08614,0.56694 -31.45313,-0.66406 -16.81198,-2 -33.48837,-5.19073 -50.19336,-8.05273 -9.34899,-1.6 -18.62466,-3.69374 -27.97265,-5.30274 -5.736,-0.98 -10.7698,-4.94309 -15.4668,-9.87109 z m -154.39844,2.34375 c 24.09029,-0.1479 96.16715,11.82719 101.16602,17.85156 -12.08799,4.562 -99.03481,-9.09415 -108.2168,-16.99414 1.14738,-0.56862 3.60931,-0.83629 7.05078,-0.85742 z m 134.91016,15.55469 c 27.33385,-0.0297 94.44172,10.13046 100.23828,16.47461 -12.25399,4.95599 -103.69146,-7.69732 -110.68945,-15.32032 1.69187,-0.79328 5.38934,-1.14878 10.45117,-1.15429 z m 185.77344,0.89453 c 18.46898,0.073 36.94531,0.0859 55.40429,0.41992 4.439,0.079 8.89387,1.08525 13.25586,2.03125 18.37598,4.008 36.71657,8.15258 55.06055,12.26758 1.561,0.348 3.09266,0.86328 4.84766,1.36328 -0.809,4.216 -3.1541,5.74244 -6.7461,5.64844 -21.28398,-0.542 -42.67191,-0.0698 -63.83789,-2.00782 -16.15698,-1.47299 -32.01969,-6.00273 -48.01367,-9.17773 -5.552,-1.1 -11.10772,-2.16895 -16.63672,-3.37695 -3.752,-0.817 -4.47333,-1.82515 -5.11133,-6.86914 3.967,-0.105 7.87535,-0.31783 11.77735,-0.29883 z m 269.71289,1.24023 c 34.61896,0.619 69.255,0.3645 103.875,0.8125 5.02,0.065 10.0798,1.91293 15.0098,3.29492 13.9299,3.909 27.8111,7.99198 43.1211,12.41797 -2.34,1.145 -3.4807,1.87239 -4.7207,2.27539 -7.6,2.464 -15.1797,4.98794 -22.8497,7.21094 -2.83,0.818 -5.89,1.2475 -8.83,1.1875 -29.31,-0.653 -58.5996,-1.35653 -87.89457,-2.26953 -4.27199,-0.131 -8.56086,-1.18878 -12.75585,-2.17578 -14.09699,-3.323 -28.15558,-6.80291 -42.22657,-10.25391 -1.381,-0.337 -2.71116,-0.85959 -5.28515,-1.68359 7.79699,-4.786 13.00565,-10.98941 22.55664,-10.81641 z m 433.8652,2.42188 c 5.905,-0.0465 11.8455,0.14364 17.7305,0.11914 18.75,-0.075 37.4996,0.16087 56.2695,0.29687 1.14,0.009 2.2897,0.2978 3.4297,0.4668 l -3.709,32.79297 c -13.96,-0.189 -27.9306,-0.3077 -41.8906,-0.5957 -24.96,-0.526 -49.9487,-0.84127 -74.8887,-1.94727 -6.8,-0.305 -13.5807,-2.84208 -20.2207,-4.83008 -8.06,-2.41 -15.9499,-5.32439 -23.9199,-8.02539 0.01,-0.432 0.019,-0.85315 0.029,-1.28515 3.74,-0.936 7.4512,-1.93602 11.2012,-2.79102 19.46,-4.414 38.7992,-9.58539 58.4492,-12.90039 5.745,-0.9715 11.6145,-1.25428 17.5195,-1.30078 z m -913.45895,8.95898 c 20.12907,-0.2184 64.81726,6.45927 74.38281,12.11914 -28.63697,1.918 -55.92118,-6.07653 -83.66016,-10.76953 1.296,-0.882 4.63218,-1.29921 9.27735,-1.34961 z m 154.61914,1.9375 c 28.93645,-0.241 92.39826,8.28467 103.8125,14.95703 -8.05999,5.692 -106.90212,-5.91552 -115.78711,-13.85351 2.44078,-0.71328 6.61601,-1.05889 11.97461,-1.10352 z m 202.89258,3.7168 c 26.92897,0.455 53.92332,-0.018 80.77929,1.70703 13.42799,0.863 26.59797,5.68953 39.87696,8.76953 4.42199,1.033 8.81842,2.20464 13.23242,3.30664 -4.56,3.933 -9.11138,6.26646 -14.73438,6.06446 -22.77397,-0.801 -45.6229,-0.56449 -68.29687,-2.52149 -14.80099,-1.27 -29.34383,-5.62758 -44.00781,-8.64258 -4.455,-0.916 -8.88576,-1.98072 -13.46876,-3.01172 1.004,-4.25399 3.14415,-5.73187 6.61915,-5.67187 z M 1131.1855,284 c 0.8947,-0.0207 1.7964,-0.0187 2.7051,0.008 37.92,1.114 75.8687,1.40349 113.8086,2.14649 2.75,0.049 5.5705,0.83936 8.2305,1.69336 10.4,3.33899 20.7498,6.83256 32.5098,10.72656 -2.12,0.968 -2.6891,1.36842 -3.2891,1.48242 -10.8,1.96 -21.7209,3.37188 -32.3809,5.92188 -18.54,4.44599 -37.1292,1.44203 -55.6992,1.20703 -20.64,-0.258 -41.2709,-0.97758 -61.8808,-2.01758 -5.88,-0.292 -11.7196,-2.23092 -17.5196,-3.66992 -8.37,-2.083 -16.6695,-4.39946 -25.2695,-6.68946 0.49,-0.82 0.6392,-1.46673 0.9492,-1.55273 12.5062,-3.55031 24.4156,-8.9447 37.8359,-9.25586 z m -553.4648,2.72266 c 22.32748,0.0966 44.01367,5.438 65.72852,10.52343 -27.82797,2.513 -54.5479,-3.7146 -81.29688,-9.68359 5.229,-0.60394 10.41587,-0.86214 15.56836,-0.83984 z m 149.88477,4.31054 c 38.95596,-0.088 77.89263,0.0822 115.93359,13.61719 -1.847,0.405 -3.69625,1.20348 -5.53125,1.14649 -18.62098,-0.594 -37.35923,-0.25432 -55.82422,-2.32032 -17.79898,-1.99 -35.31523,-6.48259 -52.94921,-9.93359 -0.689,-0.138 -1.2663,-0.80866 -1.9043,-1.22266 0.089,-0.433 0.18639,-0.85411 0.27539,-1.28711 z m -181.54688,4.48242 c 14.44475,-0.0458 38.64473,4.07303 44.29297,8.66602 -19.19298,0.811 -36.28552,-3.59375 -54.4375,-7.09375 1.5985,-1.07725 5.32962,-1.557 10.14453,-1.57227 z m 428.97657,1.60547 c 23.13197,0.661 46.28434,2.05816 69.40434,1.66016 18.5599,-0.319 35.9001,4.34844 53.4101,9.02344 1.26,0.334 2.4712,0.8715 3.7012,1.3125 0.07,0.561 0.139,1.13236 0.209,1.69336 -7.39,1.45 -14.8002,4.21661 -22.1602,4.09961 -26.31,-0.435 -52.6494,-1.09594 -78.8594,-3.21094 -13.60195,-1.093 -26.95136,-5.40904 -41.85934,-8.58203 5.67699,-4.461 10.5273,-6.1581 16.1543,-5.9961 z M 689.80664,300.125 c 20.73815,-0.1158 60.6336,5.04766 69.62891,10.19141 -27.38298,1.164 -54.31934,-1.82834 -81.44532,-8.73633 1.70407,-0.9765 6.00973,-1.42266 11.81641,-1.45508 z m 190.95898,5.48242 c 29.31803,0.32729 80.84452,6.33907 92.58594,11.84375 -8.39899,5.934 -98.02478,-1.56027 -112.25976,-9.44726 1.508,-0.696 2.5485,-1.44568 3.6875,-1.63868 3.63862,-0.606 9.22063,-0.83334 15.98632,-0.75781 z M 1328,306.30469 c 7.7903,0.0205 15.6164,0.45523 23.4102,0.63086 27.4499,0.626 54.9096,1.40101 82.3496,2.16601 2.47,0.078 4.9306,0.49686 7.3906,0.75586 l -1.6797,14.9043 c -24.15,4.28599 -48.431,2.63209 -72.7109,1.62109 -21.79,-0.901 -43.6199,-1.23436 -65.3399,-2.94336 -10.91,-0.86 -21.6294,-4.2337 -32.4394,-6.4707 0.01,-0.603 0,-1.19773 0,-1.80273 1.08,-0.432 2.1104,-1.05986 3.2304,-1.25586 13.93,-2.472 27.7784,-5.74779 41.8184,-7.05078 4.635,-0.43163 9.2965,-0.56702 13.9707,-0.55469 z m -674.93164,1.03125 c 13.12658,0.10129 25.94459,2.83313 38.61133,6.89062 -17.78198,2.228 -34.91768,-1.10541 -51.84766,-6.0664 4.45025,-0.59925 8.8608,-0.85799 13.23633,-0.82422 z m 155.12695,6.23047 c 21.25118,0.0557 58.64951,3.72855 68.03125,9.27929 -11.75299,3.191 -71.10468,-2.78946 -82.26367,-8.06445 1.8595,-0.84925 7.1487,-1.23341 14.23242,-1.21484 z m 326.92379,2.04882 c 32.45,0.576 64.9202,1.5474 97.3301,3.27539 9.15,0.49 18.1412,4.0204 27.2012,6.1504 -0.08,0.67599 -0.1702,1.35915 -0.2402,2.03515 -4.34,0.668 -8.7105,1.12111 -12.9805,2.03711 -18.04,3.901 -36.16,1.60227 -54.25,0.94727 -16.81,-0.6 -33.6607,-0.95271 -50.3906,-2.47071 -10.1,-0.908 -19.9983,-3.82975 -29.9883,-5.84375 0.02,-0.813 0.029,-1.62645 0.049,-2.43945 7.75,-1.298 15.5295,-3.83041 23.2695,-3.69141 z m -380.7734,3.41211 c 14.47495,-0.0979 36.57216,3.21105 41.41797,7.43946 -18.42098,0.224 -35.88698,-0.35134 -53.41797,-5.61133 1.84022,-1.23019 6.33589,-1.78981 12,-1.82813 z m 250.666,2.90039 c 0.4632,-0.008 0.9262,-0.004 1.3887,0.0117 18.96,0.653 37.9089,1.73505 56.8789,2.24805 12.56,0.332 24.9105,1.58628 36.9805,5.11328 1.5,0.431 2.9999,0.92305 5.6699,1.74805 -12.52,6.08299 -98.8389,0.17615 -110.67384,-8.21485 3.255,-0.2835 6.51334,-0.85282 9.75584,-0.90625 z m -81.94725,5.25391 c 22.54643,0.13823 62.5847,4.43858 68.83594,8.76758 -27.75197,-1.364 -55.78837,0.41176 -83.65234,-7.36524 1.7295,-1.03224 7.30093,-1.44842 14.8164,-1.40234 z m -66.05468,3.83984 c 15.18284,-0.13242 37.8593,2.90131 42.73242,7.01758 -19.22698,-0.843 -37.27168,0.14779 -55.59766,-5.2832 2.13047,-1.14637 6.92412,-1.68256 12.86524,-1.73438 z m 438.25003,2.8125 c 36.0899,0.805 72.1609,2.49466 108.2109,4.22266 5.6,0.269 11.0887,2.56016 16.6387,3.91016 -0.07,0.587 -0.1392,1.18353 -0.1992,1.76953 -2.18,0.318 -4.3493,0.64512 -6.5293,0.95312 -38.21,5.395 -76.3904,1.59708 -114.5704,-0.41992 -11.2199,-0.584 -22.3807,-2.48809 -33.5507,-3.87109 -1.23,-0.148 -2.3806,-0.82282 -3.5606,-1.25782 0.04,-0.57899 0.062,-1.15046 0.1016,-1.73046 11.16,-1.265 22.339,-3.82618 33.459,-3.57618 z m -156.5586,3.61133 c 0.5401,-0.0134 1.0804,-0.0102 1.6191,0.0117 27.45,1.108 54.9001,2.3753 82.3301,3.9043 5.47,0.296 10.8591,1.92245 17.6191,3.18945 -10.85,6.04 -101.5494,1.92517 -112.8593,-4.17383 -0.04,-0.507 -0.06,-1.02329 -0.08,-1.52929 3.78,-0.43575 7.5901,-1.30835 11.3711,-1.40235 z m -115.5703,3.10938 c 28.0999,1.544 56.3991,0.0795 84.1191,6.18945 -5.4,4.29 -77.0191,-0.83846 -84.1191,-6.18945 z m -76.3516,2.66797 c 19.22598,0.048 38.4351,-0.29844 58.5801,4.35156 -6.70402,3.49 -53.22711,-0.0746 -58.5801,-4.35156 z m 489.4316,10.35546 -0.6718,5.9629 c -9.08,1.12899 -22.0989,-0.41241 -26.5489,-4.31641 9.07,-0.546 18.1507,-1.10049 27.2207,-1.64649 z m -152.6152,0.35938 c 7.1462,-0.0105 14.2888,0.0476 21.4238,0.31055 20.64,0.76 41.2397,2.10197 61.8496,3.29297 2.83,0.169 5.6308,0.91679 9.5508,1.59179 -9.77,5.115 -110.7002,1.78806 -120.4902,-3.83593 2.66,-0.555 4.4407,-1.25 6.2207,-1.25 7.15,-0.018 14.2991,-0.0989 21.4453,-0.10938 z m -145.2461,0.3457 c 28.42,-0.011 56.7608,1.78269 85.0508,4.55469 -5.28,4.124 -77.1808,0.44031 -85.0508,-4.55469 z m -90.7988,0.74219 c 20.38,-0.093 40.6701,0.92158 60.8301,3.89258 -4.15,3.084 -55.5101,-0.0916 -60.8301,-3.89258 z m 217.2676,12.75 c 24.6513,0.11837 49.2911,2.2706 74.9023,3.88672 -6.83,3.244 -79.3107,0.20131 -85.4707,-3.80469 3.525,-0.0736 7.0467,-0.0989 10.5684,-0.082 z M 1410.4688,368.5 c 7.9687,-0.0457 15.9561,0.39252 23.9511,0.97852 l -0.5605,4.96679 c -15.74,-0.772 -31.4788,-1.5405 -47.2188,-2.3125 -0.01,-0.564 3e-4,-1.13789 -0.01,-1.71289 7.92,-1.345 15.8691,-1.87417 23.8379,-1.91992 z m -28.2852,12.17188 c 0.2593,-0.003 0.5186,-4e-5 0.7773,0.0117 16.63,0.851 33.2587,1.79308 49.8887,2.70508 l -0.3398,2.98047 c -18.55,-1.069 -37.1097,-2.14852 -55.6797,-3.22852 -0.03,-0.63899 -0.069,-1.28582 -0.1094,-1.92382 1.82,-0.1645 3.6477,-0.5213 5.4629,-0.54492 z" />
</svg>
