<svg width="16" height="12" viewBox="0 0 16 12" fill="none" xmlns="http://www.w3.org/2000/svg">
<path d="M1.6 2.2H14C14.607 2.2 15.1 1.707 15.1 1.1C15.1 0.493 14.608 0 14 0H1.6C0.993 0 0.5 0.493 0.5 1.1C0.5 1.707 0.992 2.2 1.6 2.2Z" fill="#2E2D29"/>
<path d="M14 4.55H1.6C0.993 4.55 0.5 5.043 0.5 5.65C0.5 6.257 0.993 6.75 1.6 6.75H14C14.607 6.75 15.1 6.258 15.1 5.65C15.1 5.042 14.608 4.55 14 4.55Z" fill="#2E2D29"/>
<path d="M14 9.1H1.6C0.993 9.1 0.5 9.592 0.5 10.2C0.5 10.808 0.993 11.3 1.6 11.3H14C14.607 11.3 15.1 10.808 15.1 10.2C15.1 9.592 14.608 9.1 14 9.1Z" fill="#2E2D29"/>
</svg>
