<svg width="201" height="201" viewBox="0 0 201 201" fill="none" xmlns="http://www.w3.org/2000/svg">
<path d="M0.644531 100.797C0.644531 45.5684 45.4161 0.796875 100.645 0.796875C155.873 0.796875 200.645 45.5684 200.645 100.797C200.645 156.025 155.873 200.797 100.645 200.797C45.4161 200.797 0.644531 156.025 0.644531 100.797Z" fill="#767674"/>
<path d="M76.4958 96.6216H68.6078V99.2475H76.4958V96.6216Z" fill="white"/>
<path d="M76.4958 101.873H68.6078V115.864H94.3713V108.699H76.4958V101.873Z" fill="white"/>
<path d="M76.4958 80.0152H68.6078V93.9958H76.4958V80.0152Z" fill="white"/>
<path d="M118.592 79.7624H111.323L105.267 93.9906H124.649L118.592 79.7624Z" fill="white"/>
<path d="M101.914 101.873L95.9551 115.864H103.998L107.279 107.827H122.436L125.717 115.864H133.961L128.007 101.873H101.914Z" fill="white"/>
<path d="M125.774 96.6216H104.147L103.033 99.2475H126.888L125.774 96.6216Z" fill="white"/>
<path d="M143.99 97.9268C143.99 100.646 146.192 102.848 148.911 102.848C151.63 102.848 153.833 100.646 153.833 97.9268C153.833 95.2081 151.63 93.0052 148.911 93.0052C146.192 93.0001 143.99 95.2081 143.99 97.9268Z" fill="white"/>
<path d="M137.67 99.2475C137.618 98.8142 137.593 98.3808 137.593 97.9423C137.593 97.4935 137.629 97.055 137.675 96.6216H130.365C130.339 97.0601 130.313 97.4986 130.313 97.9423C130.313 98.3808 130.329 98.8193 130.365 99.2475H137.67Z" fill="white"/>
<path d="M148.885 86.6495C152.528 86.6495 155.752 88.3829 157.815 91.0552L162.644 85.4681C159.25 81.7227 154.338 79.3651 148.885 79.3651C139.981 79.3651 132.547 85.628 130.731 93.9906H138.315C139.924 89.7036 144.041 86.6495 148.885 86.6495Z" fill="white"/>
<path d="M157.97 104.628C155.917 107.414 152.615 109.23 148.891 109.23C144.041 109.23 139.919 106.171 138.315 101.873H130.736C132.547 110.241 139.976 116.514 148.891 116.514C154.617 116.514 159.735 113.919 163.145 109.844L157.97 104.628Z" fill="white"/>
<path d="M53.5799 93.9906C48.6945 92.6699 47.4099 91.8342 47.4099 89.6313C47.4099 87.8515 49.004 86.4638 52.022 86.4638C55.0502 86.4638 58.1714 87.7948 61.3492 89.9976L65.4454 84.0546C61.8032 81.1346 57.3563 79.4941 52.1303 79.4941C44.8047 79.4993 39.5787 83.8173 39.5787 90.3536C39.5787 91.7826 39.7593 92.964 40.0894 93.9906H53.5799Z" fill="white"/>
<path d="M53.3117 101.873C57.7071 103.148 58.6821 104.164 58.6821 105.985C58.6821 108.136 56.7372 109.411 53.5129 109.411C49.4167 109.411 46.0325 107.718 42.8082 105.056L38.1445 110.638C42.4419 114.482 47.9258 116.38 53.3581 116.38C61.0861 116.38 66.5236 112.382 66.5236 105.211C66.5236 103.932 66.3585 102.843 66.049 101.873H53.3117Z" fill="white"/>
<path d="M41.5236 96.6216C42.4264 97.7102 43.6336 98.5459 45.0987 99.2475H64.6148C63.7688 98.2106 62.6441 97.3542 61.2615 96.6216H41.5236Z" fill="white"/>
</svg>
