<svg width="18" height="18" viewBox="0 0 18 18" fill="none" xmlns="http://www.w3.org/2000/svg">
  <path
    d="M10.961 0.385742C7.24098 0.385742 4.21498 3.41174 4.21498 7.13274C4.21498 8.56674 4.66798 9.89474 5.43298 10.9887L0.59998 15.8217C0.18998 16.2317 0.18998 16.8957 0.59998 17.3057C0.80498 17.5107 1.07398 17.6137 1.34198 17.6137C1.60998 17.6137 1.87998 17.5107 2.08498 17.3057L6.89098 12.4997C8.02398 13.3607 9.43098 13.8787 10.961 13.8787C14.681 13.8787 17.707 10.8527 17.707 7.13174C17.707 3.41074 14.681 0.385742 10.961 0.385742ZM10.961 11.7787C8.39898 11.7787 6.31498 9.69374 6.31498 7.13174C6.31498 4.56974 8.39898 2.48474 10.961 2.48474C13.523 2.48474 15.607 4.56974 15.607 7.13174C15.607 9.69374 13.522 11.7787 10.961 11.7787Z"
    fill="currentColor" />
</svg>
