<svg width="21" height="20" viewBox="0 0 21 20" fill="none" xmlns="http://www.w3.org/2000/svg">
  <path
    d="M10.8163 0.0900879C5.34268 0.0900879 0.90625 4.52652 0.90625 10.0001C0.90625 15.4737 5.344 19.9101 10.8163 19.9101C16.2885 19.9101 20.7262 15.4737 20.7262 10.0001C20.7262 4.52652 16.2898 0.0900879 10.8163 0.0900879ZM16.8892 7.62216L11.5787 12.9327C11.5773 12.9354 11.5773 12.938 11.576 12.9393L10.0683 14.447C9.91188 14.6035 9.65949 14.6035 9.50307 14.447L4.74721 9.69118C4.59079 9.53476 4.59079 9.28237 4.74721 9.12595L6.25494 7.61822C6.41137 7.46179 6.66375 7.46179 6.82018 7.61822L9.78306 10.5811L14.8163 5.54788C14.9701 5.39409 15.2185 5.39409 15.3723 5.54788L16.8892 7.06481C17.043 7.21992 17.043 7.46836 16.8892 7.62216Z"
    fill="currentColor" />
</svg>
