<svg width="18" height="21" viewBox="0 0 18 21" fill="none" xmlns="http://www.w3.org/2000/svg">
  <path
    d="M15.136 14.2215V9.13949C15.136 6.01911 13.4691 3.40693 10.5621 2.71577V2.02462C10.5621 1.18099 9.88115 0.5 9.03753 0.5C8.19391 0.5 7.51292 1.18099 7.51292 2.02462V2.71577C4.59582 3.40693 2.93907 6.00894 2.93907 9.13949V14.2215L0.90625 16.2544V17.2708H17.1688V16.2544L15.136 14.2215ZM10.0539 14.2215H8.02112V12.1887H10.0539V14.2215ZM10.0539 10.1559H8.02112V6.09026H10.0539V10.1559ZM9.03753 20.32C10.1556 20.32 11.0704 19.4052 11.0704 18.2872H7.00471C7.00471 19.4052 7.90932 20.32 9.03753 20.32Z"
    fill="currentColor" />
</svg>
