<svg width="21" height="20" viewBox="0 0 21 20" fill="none" xmlns="http://www.w3.org/2000/svg">
  <path
    d="M10.8156 0.130127C5.34358 0.130127 0.90625 4.56613 0.90625 10.0395C0.90625 15.5115 5.34225 19.9488 10.8156 19.9488C16.2889 19.9488 20.7249 15.5128 20.7249 10.0395C20.7249 4.56746 16.2876 0.130127 10.8156 0.130127ZM9.39425 3.38479C9.39425 3.19679 9.54625 3.04346 9.73558 3.04346H11.8876C12.0756 3.04346 12.2289 3.19679 12.2289 3.38479V5.30879C12.2289 5.49679 12.0769 5.65013 11.8876 5.65013H9.73558C9.54758 5.65013 9.39425 5.49813 9.39425 5.30879V3.38479ZM13.6996 15.3901C13.6996 15.5781 13.5476 15.7315 13.3582 15.7315H8.26225C8.07425 15.7315 7.92092 15.5795 7.92092 15.3901V13.5821C7.92092 13.3941 8.07292 13.2408 8.26225 13.2408H9.39958V9.61013H8.26225C8.07425 9.61013 7.92092 9.45813 7.92092 9.26879V7.46079C7.92092 7.27279 8.07292 7.11946 8.26225 7.11946H11.8809C12.0689 7.11946 12.2222 7.27279 12.2222 7.46079V8.96346V9.26879V13.2408H13.3582C13.5462 13.2408 13.6996 13.3941 13.6996 13.5821V15.3901Z"
    fill="currentColor" />
</svg>
