<svg width="21" height="19" viewBox="0 0 21 19" fill="none" xmlns="http://www.w3.org/2000/svg">
  <path
    d="M20.581 16.9655L11.8416 1.10573C11.3966 0.298091 10.2365 0.298091 9.79143 1.10573L1.05325 16.9655C0.623445 17.7453 1.18765 18.7 2.0777 18.7H19.5553C20.4466 18.7013 21.0108 17.7453 20.581 16.9655ZM12.2511 15.4213C12.2511 15.6165 12.0926 15.775 11.8974 15.775H9.67859C9.48334 15.775 9.32486 15.6165 9.32486 15.4213V13.3204C9.32486 13.1252 9.48334 12.9667 9.67859 12.9667H11.8974C12.0926 12.9667 12.2511 13.1252 12.2511 13.3204V15.4213ZM12.1979 11.4566C12.1902 11.6468 12.033 11.7964 11.8429 11.7964H10.788H9.73311C9.54293 11.7964 9.38698 11.6468 9.37811 11.4566L9.16764 6.54871C9.15876 6.34711 9.31979 6.17849 9.52265 6.17849H10.7893H12.0559C12.2574 6.17849 12.4185 6.34711 12.4109 6.54871L12.1979 11.4566Z"
    fill="currentColor" />
</svg>
