<svg width="22" height="22" viewBox="0 0 22 22" fill="none" xmlns="http://www.w3.org/2000/svg">
  <path
    d="M10.9996 0.860107C5.42492 0.860107 0.90625 5.37877 0.90625 10.9534C0.90625 16.5281 5.42492 21.0468 10.9996 21.0468C16.5743 21.0468 21.0929 16.5281 21.0929 10.9534C21.0929 5.37877 16.5743 0.860107 10.9996 0.860107ZM12.5476 17.0614C12.5476 17.2841 12.3676 17.4641 12.1449 17.4641H9.85558C9.63292 17.4641 9.45292 17.2841 9.45292 17.0614V14.7721C9.45292 14.5494 9.63425 14.3681 9.85692 14.3681H12.1463C12.3689 14.3681 12.5489 14.5481 12.5489 14.7708V17.0614H12.5476ZM12.4876 12.4681C12.4809 12.6868 12.3022 12.8601 12.0836 12.8601H11.0009H9.91825C9.69958 12.8601 9.52092 12.6868 9.51425 12.4681L9.28358 4.85877C9.27692 4.63077 9.45958 4.44277 9.68758 4.44277H11.0023H12.3169C12.5449 4.44277 12.7276 4.63077 12.7209 4.85877L12.4876 12.4681Z"
    fill="currentColor" />
</svg>
