<svg width="16" height="20" viewBox="0 0 16 20" fill="none" xmlns="http://www.w3.org/2000/svg">
<path d="M8.3492 0.633966C8.2972 0.615967 8.2472 0.603966 8.1932 0.593966C8.1432 0.583965 8.0962 0.574966 8.0452 0.572966C8.0252 0.571966 8.0072 0.560966 7.9872 0.560966C7.9672 0.560966 7.9492 0.571966 7.9292 0.572966C7.8782 0.575966 7.8302 0.584965 7.7802 0.594965C7.7272 0.604965 7.6772 0.616966 7.6262 0.634966C7.5882 0.647966 7.5512 0.660965 7.5152 0.677965C7.4692 0.699965 7.4302 0.728966 7.3882 0.756966C7.3602 0.774965 7.3272 0.780966 7.3002 0.801966C7.2832 0.814966 7.2762 0.834967 7.2602 0.848967C7.2292 0.876966 7.2022 0.903965 7.1742 0.934965C7.1602 0.950966 7.1412 0.956966 7.1272 0.973967L1.0742 8.54396C0.693202 9.01896 0.773202 9.71096 1.2462 10.089C1.7212 10.468 2.4132 10.392 2.7922 9.91696L6.8862 4.79797L6.8862 18.339C6.8862 18.946 7.3792 19.439 7.9862 19.439C8.5932 19.439 9.0862 18.946 9.0862 18.339L9.0862 4.79596L13.1802 9.91597C13.5602 10.391 14.2522 10.468 14.7262 10.088C14.9982 9.87097 15.1392 9.55096 15.1392 9.22796C15.1392 8.98796 15.0612 8.74496 14.8992 8.54196L8.8462 0.972965C8.8332 0.955965 8.8132 0.948965 8.7992 0.933966C8.7702 0.901966 8.7412 0.873964 8.7092 0.844965C8.6942 0.831964 8.6892 0.812965 8.6742 0.799965C8.6472 0.777966 8.6132 0.772964 8.5842 0.753965C8.5422 0.725965 8.5032 0.697966 8.4592 0.675966C8.4242 0.659966 8.3882 0.646967 8.3492 0.633966Z" fill="white"/>
</svg>
