<svg width="20" height="20" viewBox="0 0 20 20" fill="none" xmlns="http://www.w3.org/2000/svg">
<path d="M14.3375 4.33016H13.8834V4.00016C13.8834 3.63183 13.585 3.3335 13.2167 3.3335C12.8484 3.3335 12.55 3.63183 12.55 4.00016V4.33016H7.64837V4.00016C7.64837 3.63183 7.35004 3.3335 6.98171 3.3335C6.61337 3.3335 6.31504 3.63183 6.31504 4.00016V4.33016H5.79254C4.43671 4.33016 3.33337 5.4335 3.33337 6.78933V13.6718C3.33337 15.0277 4.43671 16.131 5.79254 16.131H14.3375C15.6934 16.131 16.7967 15.0277 16.7967 13.6718V6.78933C16.7967 5.4335 15.6934 4.33016 14.3375 4.33016ZM5.79254 5.6635H6.23671V6.24766C6.23671 6.616 6.53504 6.91433 6.90337 6.91433C7.27171 6.91433 7.57004 6.616 7.57004 6.24766V5.6635H12.4475V6.24766C12.4475 6.616 12.7459 6.91433 13.1142 6.91433C13.4825 6.91433 13.7809 6.616 13.7809 6.24766V5.6635H14.3384C14.9592 5.6635 15.465 6.1685 15.465 6.79016V7.90183H4.66587V6.78933C4.66587 6.1685 5.17087 5.6635 5.79254 5.6635ZM14.3375 14.7985H5.79254C5.17171 14.7985 4.66587 14.2935 4.66587 13.6718V9.2335H15.4642V13.6718C15.4642 14.2935 14.9584 14.7985 14.3375 14.7985Z" fill="black"/>
<path d="M13.7309 10.1585H6.39837C6.03004 10.1585 5.73171 10.4568 5.73171 10.8252C5.73171 11.1935 6.03004 11.4918 6.39837 11.4918H13.7317C14.0992 11.4918 14.3984 11.1935 14.3984 10.8252C14.3984 10.4568 14.0992 10.1585 13.7309 10.1585Z" fill="black"/>
<path d="M13.7309 12.416H6.39837C6.03004 12.416 5.73171 12.7143 5.73171 13.0827C5.73171 13.451 6.03004 13.7493 6.39837 13.7493H13.7317C14.0992 13.7493 14.3984 13.451 14.3984 13.0827C14.3984 12.7143 14.0992 12.416 13.7309 12.416Z" fill="black"/>
</svg>
