<svg width="20" height="20" viewBox="0 0 20 20" fill="none" xmlns="http://www.w3.org/2000/svg">
  <path
    d="M9.91 0C4.43552 0 0 4.43552 0 9.91C0 15.3845 4.43552 19.82 9.91 19.82C15.3845 19.82 19.82 15.3845 19.82 9.91C19.82 4.43552 15.3845 0 9.91 0ZM14.7691 12.5114C14.9569 12.6992 14.9569 13.0029 14.7691 13.1907L13.1867 14.7691C12.9989 14.9569 12.6952 14.9569 12.5074 14.7691L9.91 12.1477L7.30862 14.7691C7.12081 14.9569 6.81712 14.9569 6.62931 14.7691L5.0509 13.1867C4.86309 12.9989 4.86309 12.6952 5.0509 12.5074L7.67226 9.91L5.0509 7.30862C4.86309 7.12081 4.86309 6.81712 5.0509 6.62931L6.63331 5.04691C6.82112 4.8591 7.12481 4.8591 7.31262 5.04691L9.91 7.67226L12.5114 5.0509C12.6992 4.86309 13.0029 4.86309 13.1907 5.0509L14.7731 6.63331C14.9609 6.82112 14.9609 7.12481 14.7731 7.31262L12.1477 9.91L14.7691 12.5114Z"
    fill="currentColor" />
</svg>
