<svg width="17" height="17" viewBox="0 0 17 17" fill="none" xmlns="http://www.w3.org/2000/svg">
<path d="M15.2838 0.998047H2.71236C1.76593 0.998047 0.998077 1.7659 0.998077 2.71233V15.2838C0.998077 16.2302 1.76593 16.998 2.71236 16.998H15.2838C16.2302 16.998 16.9981 16.2302 16.9981 15.2838V2.71233C16.9981 1.7659 16.2302 0.998047 15.2838 0.998047ZM6.15879 11.248C4.90522 11.248 3.89093 10.2338 3.89093 8.98019C3.89093 7.72662 4.90522 6.71233 6.15879 6.71233C7.41236 6.71233 8.42665 7.72662 8.42665 8.98019C8.42665 10.2338 7.41236 11.248 6.15879 11.248ZM11.8374 11.248C10.5838 11.248 9.56951 10.2338 9.56951 8.98019C9.56951 7.72662 10.5838 6.71233 11.8374 6.71233C13.0909 6.71233 14.1052 7.72662 14.1052 8.98019C14.1052 10.2338 13.0909 11.248 11.8374 11.248Z" fill="currentColor"/>
</svg>
