<svg width="32" height="28" viewBox="0 0 32 28" fill="none" xmlns="http://www.w3.org/2000/svg">
<path d="M18.5 0H30.5C31.3284 0 32 0.671562 32 1.5V11.5C32 12.3284 31.3284 13 30.5 13H18.5C17.6716 13 17 12.3284 17 11.5V1.5C17 0.671562 17.6716 0 18.5 0ZM13.5 0H1.5C0.671562 0 0 0.671562 0 1.5V11.5C0 12.3284 0.671562 13 1.5 13H13.5C14.3284 13 15 12.3284 15 11.5V1.5C15 0.671562 14.3284 0 13.5 0ZM0 16.5V26.5C0 27.3284 0.671562 28 1.5 28H13.5C14.3284 28 15 27.3284 15 26.5V16.5C15 15.6716 14.3284 15 13.5 15H1.5C0.671562 15 0 15.6716 0 16.5ZM18.5 28H30.5C31.3284 28 32 27.3284 32 26.5V16.5C32 15.6716 31.3284 15 30.5 15H18.5C17.6716 15 17 15.6716 17 16.5V26.5C17 27.3284 17.6716 28 18.5 28Z" fill="currentColor"/>
</svg>
