<svg width="7" height="22" viewBox="0 0 7 22" fill="none" xmlns="http://www.w3.org/2000/svg">
<path d="M4.15821 18.625C4.14154 18.7083 4.13321 18.8167 4.13321 18.95C4.13321 19.35 4.28321 19.55 4.58321 19.55C4.71654 19.55 4.85821 19.5083 5.00821 19.425C5.17487 19.3417 5.40821 19.2 5.70821 19L6.03321 19.85C5.74987 20.2333 5.30821 20.625 4.70821 21.025C4.12487 21.425 3.3832 21.625 2.4832 21.625C1.71654 21.625 1.11654 21.4833 0.683204 21.2C0.266537 20.9 0.0582031 20.5167 0.0582031 20.05C0.0582031 19.95 0.0665364 19.8667 0.0832031 19.8L0.733203 14.875L1.4332 9.65L0.0332031 8.9L0.233203 7.825L5.05821 7.175L5.70821 7.475L4.15821 18.625ZM4.13321 5.025C3.63321 5.025 3.18321 4.825 2.7832 4.425C2.39987 4.025 2.2082 3.575 2.2082 3.075C2.2082 2.39167 2.44154 1.81667 2.90821 1.35C3.37487 0.866667 3.99154 0.625 4.75821 0.625C5.34154 0.625 5.80821 0.816667 6.15821 1.2C6.50821 1.58333 6.68321 2.025 6.68321 2.525C6.68321 3.25833 6.46654 3.85833 6.03321 4.325C5.59987 4.79167 4.96654 5.025 4.13321 5.025Z" fill="#2E2D29"/>
</svg>
