<svg width="16" height="16" viewBox="0 0 16 16" fill="none" xmlns="http://www.w3.org/2000/svg">
<path d="M11.5023 1.52283C13.1021 1.52283 14.3971 2.81786 14.3971 4.41761V11.5784C14.3971 13.1781 13.1021 14.4731 11.5023 14.4731H4.41773C2.81799 14.4731 1.52296 13.1781 1.52296 11.5784V4.41761C1.52296 2.81786 2.81799 1.52283 4.41773 1.52283H11.5023ZM11.5023 -0.000732422H4.41773C1.98002 -0.000732422 -0.000610352 1.9799 -0.000610352 4.41761V11.5784C-0.000610352 14.0161 1.98002 15.9967 4.41773 15.9967H11.5785C14.0162 15.9967 15.9968 14.0161 15.9968 11.5784V4.41761C15.9206 1.9799 13.94 -0.000732422 11.5023 -0.000732422Z" fill="currentColor"/>
<path d="M7.92191 5.33167C9.3693 5.33167 10.512 6.47434 10.512 7.92173C10.512 9.36912 9.3693 10.5118 7.92191 10.5118C6.47453 10.5118 5.33185 9.36912 5.33185 7.92173C5.33185 6.47434 6.47453 5.33167 7.92191 5.33167ZM7.92191 3.80811C5.63657 3.80811 3.80829 5.63638 3.80829 7.92173C3.80829 10.2071 5.63657 12.0354 7.92191 12.0354C10.2073 12.0354 12.0355 10.2071 12.0355 7.92173C12.0355 5.63638 10.2834 3.80811 7.92191 3.80811Z" fill="currentColor"/>
<path d="M12.3402 4.64616C12.8871 4.64616 13.3305 4.20278 13.3305 3.65584C13.3305 3.10891 12.8871 2.66553 12.3402 2.66553C11.7933 2.66553 11.3499 3.10891 11.3499 3.65584C11.3499 4.20278 11.7933 4.64616 12.3402 4.64616Z" fill="currentColor"/>
</svg>
