<svg width="32" height="28" viewBox="0 0 32 28" fill="none" xmlns="http://www.w3.org/2000/svg">
<path d="M9.33331 11.5V16.5C9.33331 17.3284 8.66175 18 7.83331 18H1.5C0.671562 18 0 17.3284 0 16.5V11.5C0 10.6716 0.671562 10 1.5 10H7.83331C8.66175 10 9.33331 10.6716 9.33331 11.5ZM0 21.5V26.5C0 27.3284 0.671562 28 1.5 28H7.83331C8.66175 28 9.33331 27.3284 9.33331 26.5V21.5C9.33331 20.6716 8.66175 20 7.83331 20H1.5C0.671562 20 0 20.6716 0 21.5ZM7.83331 0H1.5C0.671562 0 0 0.671562 0 1.5V6.5C0 7.32844 0.671562 8 1.5 8H7.83331C8.66175 8 9.33331 7.32844 9.33331 6.5V1.5C9.33331 0.671562 8.66175 0 7.83331 0ZM12.8333 28H30.5C31.3284 28 32 27.3284 32 26.5V21.5C32 20.6716 31.3284 20 30.5 20H12.8333C12.0049 20 11.3333 20.6716 11.3333 21.5V26.5C11.3333 27.3284 12.0049 28 12.8333 28ZM11.3333 1.5V6.5C11.3333 7.32844 12.0049 8 12.8333 8H30.5C31.3284 8 32 7.32844 32 6.5V1.5C32 0.671562 31.3284 0 30.5 0H12.8333C12.0049 0 11.3333 0.671562 11.3333 1.5ZM12.8333 18H30.5C31.3284 18 32 17.3284 32 16.5V11.5C32 10.6716 31.3284 10 30.5 10H12.8333C12.0049 10 11.3333 10.6716 11.3333 11.5V16.5C11.3333 17.3284 12.0049 18 12.8333 18Z" fill="currentColor"/>
</svg>
