<svg width="20" height="20" viewBox="0 0 20 20" fill="none" xmlns="http://www.w3.org/2000/svg">
<path d="M9.68329 2.5C6.64163 2.5 4.16663 4.975 4.16663 8.01667C4.16663 10.4967 7.35746 17.5258 9.68329 17.5258C12.0091 17.5258 15.2008 10.4958 15.2008 8.01667C15.2008 4.975 12.7258 2.5 9.68329 2.5ZM9.68329 15.7558C8.64579 15.2325 5.91579 10.285 5.91579 8.0175C5.91579 5.94 7.60579 4.25 9.68329 4.25C11.7608 4.25 13.4508 5.94 13.4508 8.0175C13.4508 10.2842 10.7208 15.2325 9.68329 15.7558Z" fill="black"/>
<path d="M9.68329 9.58333C10.6581 9.58333 11.4483 8.79312 11.4483 7.81833C11.4483 6.84355 10.6581 6.05333 9.68329 6.05333C8.70851 6.05333 7.91829 6.84355 7.91829 7.81833C7.91829 8.79312 8.70851 9.58333 9.68329 9.58333Z" fill="black"/>
</svg>
