<svg width="14" height="15" viewBox="0 0 14 15" fill="none" xmlns="http://www.w3.org/2000/svg">
<path d="M9.4174 5.74948H9.29432V4.77765C9.29432 3.63898 8.32365 2.71265 7.13074 2.71265L6.4319 2.71265C5.23899 2.71265 4.2689 3.63898 4.2689 4.77765V5.74948H4.20882C3.4044 5.74948 2.75049 6.40398 2.75049 7.20781L2.75049 10.4552C2.75049 11.2596 3.40499 11.9136 4.20882 11.9136L9.4174 11.9136C10.2218 11.9136 10.8757 11.2596 10.8757 10.4552L10.8757 7.20781C10.8757 6.40398 10.2212 5.74948 9.4174 5.74948ZM5.43499 4.77765C5.43499 4.2824 5.8824 3.87931 6.43132 3.87931H7.13015C7.67965 3.87931 8.12707 4.28181 8.12707 4.77765V5.74948L5.43499 5.74948V4.77765Z" fill="currentColor"/>
</svg>
