<svg width="18" height="13" viewBox="0 0 18 13" fill="none" xmlns="http://www.w3.org/2000/svg">
<path d="M15.0701 -0.000976562H2.85201C1.55522 -0.000976562 0.49939 1.05485 0.49939 2.35165V10.0454C0.49939 11.3422 1.55522 12.398 2.85201 12.398H15.0701C16.3668 12.398 17.4227 11.3422 17.4227 10.0454V2.35065C17.4227 1.05385 16.3668 -0.000976562 15.0701 -0.000976562ZM2.85201 1.89872H15.0701C15.233 1.89872 15.371 1.9907 15.45 2.12068L9.22999 5.62312C9.06102 5.71811 8.86005 5.71811 8.69108 5.62312L2.47207 2.12068C2.55106 1.9907 2.68804 1.89872 2.85201 1.89872ZM15.0701 10.4973H2.85201C2.60205 10.4973 2.40009 10.2944 2.40009 10.0454V4.26034L7.75923 7.27886C8.13017 7.48682 8.5461 7.59081 8.96103 7.59081C9.37597 7.59081 9.7919 7.48682 10.1628 7.27886L15.522 4.26034V10.0454C15.522 10.2944 15.319 10.4973 15.0701 10.4973Z" fill="currentColor"/>
</svg>
