<svg width="33" height="33" viewBox="0 0 33 33" fill="none" xmlns="http://www.w3.org/2000/svg">
<path d="M20.4706 23.1582V23.8925L7.11523 23.8938L7.11386 14.6992H7.77248V11.9492H7.11386C5.59861 11.9492 4.36523 13.1826 4.36523 14.6978V23.8938C4.36523 25.4105 5.59861 26.6425 7.11386 26.6425H20.4692C21.9859 26.6425 23.2179 25.4105 23.2179 23.8938V23.1582H20.4706Z" fill="white"/>
<path d="M25.2091 21.7831H11.8551C10.3398 21.7831 9.10645 20.5511 9.10645 19.0345V9.83847C9.10645 8.32322 10.3398 7.08984 11.8551 7.08984H25.2091C26.7257 7.08984 27.9577 8.32322 27.9577 9.83847V19.0345C27.9577 20.5497 26.7257 21.7831 25.2091 21.7831ZM25.2077 9.83847L11.8551 9.83984L11.8564 19.0345L25.2104 19.0331L25.2077 9.83847Z" fill="white"/>
</svg>
