<svg width="12" height="12" viewBox="0 0 12 12" fill="none" xmlns="http://www.w3.org/2000/svg">
<path d="M11.1952 5.56402H7.03117V1.40002C7.03117 0.995354 6.70317 0.666687 6.29784 0.666687C5.89317 0.666687 5.5645 0.995354 5.5645 1.40002V5.56402H1.39984C0.995171 5.56402 0.666504 5.89269 0.666504 6.29735C0.666504 6.70269 0.995171 7.03069 1.39984 7.03069H5.56384V11.1947C5.56384 11.5994 5.8925 11.928 6.29717 11.928C6.7025 11.928 7.0305 11.6 7.0305 11.1947V7.03069H11.1945C11.5992 7.03069 11.9278 6.70269 11.9278 6.29735C11.9278 5.89202 11.5998 5.56402 11.1952 5.56402Z" fill="currentColor"/>
</svg>
