<svg width="80" height="80" viewBox="0 0 80 80" fill="none" xmlns="http://www.w3.org/2000/svg">
<path d="M27.484 63.035C25.306 63.035 23.326 62.276 21.544 60.758C19.828 59.174 18.475 57.128 17.485 54.62C16.495 52.112 16 49.439 16 46.601C16 41.981 16.825 37.658 18.475 33.632C20.125 29.54 22.171 26.075 24.613 23.237C27.055 20.333 29.398 18.254 31.642 17H31.741L35.602 20.465V22.049C33.952 23.567 32.401 25.745 30.949 28.583C29.563 31.421 28.87 34.919 28.87 39.077C28.87 41.123 29.167 42.806 29.761 44.126C30.355 45.446 31.213 46.832 32.335 48.284C33.325 49.604 34.051 50.792 34.513 51.848C34.975 52.838 35.206 54.092 35.206 55.61C35.206 57.722 34.447 59.504 32.929 60.956C31.477 62.342 29.662 63.035 27.484 63.035ZM55.996 63.035C53.818 63.035 51.838 62.276 50.056 60.758C48.34 59.174 46.987 57.128 45.997 54.62C45.007 52.112 44.512 49.439 44.512 46.601C44.512 41.981 45.337 37.658 46.987 33.632C48.637 29.54 50.683 26.075 53.125 23.237C55.567 20.333 57.91 18.254 60.154 17H60.253L64.114 20.465V22.049C62.464 23.567 60.913 25.778 59.461 28.682C58.009 31.52 57.283 34.985 57.283 39.077C57.283 41.123 57.58 42.806 58.174 44.126C58.768 45.446 59.626 46.832 60.748 48.284C61.738 49.604 62.464 50.792 62.926 51.848C63.388 52.838 63.619 54.092 63.619 55.61C63.619 57.722 62.893 59.504 61.441 60.956C59.989 62.342 58.174 63.035 55.996 63.035Z" fill="currentColor"/>
</svg>
