<svg width="22" height="21" viewBox="0 0 22 21" fill="none" xmlns="http://www.w3.org/2000/svg">
<path d="M6.42801 17.9584C6.42801 19.5954 5.10098 20.9225 3.46398 20.9225C1.82699 20.9225 0.5 19.5954 0.5 17.9584C0.5 16.3214 1.82704 14.9944 3.46403 14.9944C5.10103 14.9944 6.42801 16.3215 6.42801 17.9584ZM14.5581 20.1453C14.1715 12.9899 8.44018 7.25137 1.27714 6.86431C0.854345 6.84144 0.5 7.18116 0.5 7.60456V9.82936C0.5 10.2188 0.800379 10.5455 1.18902 10.5707C6.36498 10.9078 10.5139 15.0464 10.8517 20.2334C10.877 20.622 11.2036 20.9224 11.593 20.9224H13.8178C14.2413 20.9225 14.581 20.5681 14.5581 20.1453ZM21.2345 20.1586C20.846 9.33667 12.1386 0.578381 1.26381 0.187981C0.845875 0.172985 0.5 0.510622 0.5 0.928792V3.15354C0.5 3.55273 0.816347 3.87764 1.21522 3.89403C10.0636 4.25684 17.1657 11.3603 17.5285 20.2073C17.5448 20.6062 17.8697 20.9225 18.269 20.9225H20.4937C20.9118 20.9225 21.2495 20.5766 21.2345 20.1586Z" fill="currentColor"/>
</svg>
