<svg width="30" height="30" viewBox="0 0 30 30" fill="none" xmlns="http://www.w3.org/2000/svg">
<path d="M18.3138 0.643311C12.1017 0.643311 7.04846 5.68664 7.04846 11.8883C7.04846 14.2783 7.80493 16.4916 9.08243 18.315L1.01167 26.37C0.327001 27.0533 0.327001 28.16 1.01167 28.8433C1.35401 29.185 1.80322 29.3566 2.25076 29.3566C2.6983 29.3566 3.14918 29.185 3.49151 28.8433L11.5172 20.8333C13.4092 22.2683 15.7588 23.1316 18.3138 23.1316C24.5259 23.1316 29.5791 18.0883 29.5791 11.8866C29.5791 5.68498 24.5259 0.643311 18.3138 0.643311ZM18.3138 19.6316C14.0354 19.6316 10.5553 16.1566 10.5553 11.8866C10.5553 7.61664 14.0354 4.14164 18.3138 4.14164C22.5921 4.14164 26.0723 7.61664 26.0723 11.8866C26.0723 16.1566 22.5905 19.6316 18.3138 19.6316Z" fill="currentColor"/>
</svg>
