<svg width="16" height="13" viewBox="0 0 16 13" fill="none" xmlns="http://www.w3.org/2000/svg">
<path d="M13.0539 1.02899C11.1454 -1.18214 6.94655 0.342779 7.63363 3.92635C3.66383 3.8501 1.29721 0.952748 1.06818 0.647764C-0.229638 3.01139 1.60258 4.61256 2.06064 4.91755C1.60258 4.8413 1.22087 4.8413 0.533787 4.46007C0.610129 5.68001 1.22087 7.20493 3.12943 7.66241C2.82406 7.73865 1.98429 7.8149 1.67892 7.73865C2.13698 9.26358 3.66383 9.94979 4.65628 9.94979C2.74772 11.3985 0.915499 11.3985 -0.000610352 11.246C1.4499 12.3897 5.34336 13.6859 9.46585 11.4747C12.2905 9.94979 14.3518 6.21373 13.8937 3.24013C14.6571 2.70641 15.4206 1.79146 15.4969 1.56272C14.7335 1.8677 14.1991 2.02019 13.6647 2.02019C14.1991 1.79146 14.8862 0.952748 15.0389 0.266533C14.1991 0.800256 13.2066 1.02899 13.0539 1.02899Z" fill="currentColor"/>
</svg>
