<svg width="17" height="14" viewBox="0 0 17 14" fill="none" xmlns="http://www.w3.org/2000/svg">
<path d="M11.703 12.076H5.251C4.726 12.076 4.301 12.502 4.301 13.026C4.301 13.55 4.726 13.976 5.251 13.976H11.703C12.227 13.976 12.653 13.55 12.653 13.026C12.653 12.502 12.227 12.076 11.703 12.076Z" fill="black"/>
<path d="M14.652 0H2.301C1.032 0 0 1.033 0 2.302V8.449C0 9.719 1.032 10.751 2.301 10.751H14.652C15.922 10.751 16.954 9.719 16.954 8.449V2.301C16.954 1.032 15.922 0 14.652 0ZM15.054 8.449C15.054 8.671 14.874 8.85 14.653 8.85H2.301C2.08 8.85 1.9 8.67 1.9 8.449V2.301C1.9 2.08 2.08 1.9 2.301 1.9H14.652C14.874 1.9 15.053 2.08 15.053 2.301V8.449H15.054Z" fill="black"/>
</svg>
