<svg width="720" height="117" viewBox="0 0 720 117" fill="none" xmlns="http://www.w3.org/2000/svg">
<path d="M689.644 38.4625C684.563 36.9062 680.425 35.575 676.257 34.3687C669.969 32.55 663.75 29.8937 657.338 29.2125C638.613 27.2187 619.782 26.2625 601.038 24.425C589.713 23.3125 579 26.5937 567.975 27.4812C567.938 27.825 567.9 28.1625 567.863 28.5062C572.2 30.4437 576.469 32.5437 580.888 34.2562C583.85 35.4 586.988 36.4312 590.125 36.7562C610.307 38.8437 630.5 40.7437 650.7 42.6687C658.438 43.4062 666.144 44.7062 673.9 42.3312C678.056 41.0562 682.432 40.4812 686.694 39.55C687.4 39.3937 688.063 39.05 689.644 38.4625Z" fill="white"/>
<path d="M519 19.8938C534.607 20.8063 550.157 24.4688 565.875 20.8688C568.907 20.1751 572.032 19.8813 575.938 19.2751C574.682 18.4188 574.313 18.0438 573.863 17.8751C568.125 15.6876 562.388 13.6501 556.1 13.5001C550.494 13.3688 544.9 12.6376 539.294 12.3626C526.657 11.7438 514.063 9.37507 501.344 11.4251C496.557 12.2001 491.707 12.5876 486.888 13.1501C486.794 13.6688 486.707 14.1876 486.613 14.7063C489.538 15.7501 492.388 17.3438 495.4 17.7313C503.225 18.7501 511.113 19.4376 519 19.8938Z" fill="white"/>
<path d="M574.72 65.2249C588.108 66.8999 601.495 68.5249 614.883 70.1749C630.727 72.1311 646.552 74.2186 662.414 75.9936C668.089 76.6311 673.714 78.1999 679.595 76.2874C687.289 73.7874 695.17 71.8749 702.97 69.7186C705.214 69.0999 707.47 68.5061 710.495 67.6874C709.177 67.0874 708.733 66.8436 708.258 66.6749C695.745 62.1374 683.239 57.5811 670.702 53.0936C668.17 52.1874 665.577 51.1374 662.939 50.8686C638.395 48.3749 613.845 45.9936 589.283 43.7061C586.12 43.4124 582.858 43.6311 579.695 44.0186C575.258 44.5686 570.87 45.4874 566.464 46.2686C560.364 47.3499 554.277 48.4561 547.57 49.6624C548.527 50.4436 548.933 50.8749 549.427 51.1686C556.864 55.5624 564.302 59.9624 571.77 64.2936C572.645 64.8061 573.714 65.0936 574.72 65.2249Z" fill="white"/>
<path d="M342.144 3.91248C351.1 7.87498 405.644 8.32498 415.025 4.39373C408.95 0.087478 346.75 -0.187522 342.144 3.91248Z" fill="#007C92"/>
<path d="M450.911 12.4689C440.336 11.8627 429.755 11.0502 419.173 10.9877C412.648 10.9502 406.117 12.1252 399.592 12.7814C396.336 13.1127 393.086 13.5064 389.773 13.8752C390.08 17.2252 392.086 17.7439 394.405 17.9627C409.011 19.3502 423.617 20.7939 438.23 22.1502C441.117 22.4189 444.067 22.7502 446.93 22.4627C455.111 21.6502 463.261 20.5502 471.417 19.5252C473.511 19.2627 475.586 18.8627 478.33 18.4252C475.067 15.6939 472.286 14.0064 468.655 13.8002C462.736 13.4564 456.83 12.8064 450.911 12.4689Z" fill="white"/>
<path d="M344.063 36.9438C359.888 38.6938 375.681 40.7813 391.494 42.6688C395.819 43.1875 400.25 44.1125 404.506 43.6563C415.981 42.425 427.394 40.5563 438.825 38.9188C442.588 38.3813 446.338 37.775 450.919 37.0688C446.425 33.0938 443.606 28.8375 437.325 28.5438C426.419 28.0375 415.563 26.5063 404.681 25.4875C398.681 24.925 392.6 23.7625 386.663 24.2188C372.45 25.3125 358.3 27.25 344.113 28.7125C341.669 28.9625 340.638 29.7313 340.738 32.3313C340.831 34.7813 340.656 36.5688 344.063 36.9438Z" fill="white"/>
<path d="M764.789 22.5686C768.17 22.7873 771.639 21.6561 775.064 21.1436C774.677 20.1248 774.37 19.7811 774.014 19.7123C764.114 17.7998 754.289 15.1311 744.295 14.1873C725.664 12.4186 706.945 11.5436 688.252 10.5498C684.42 10.3436 680.533 11.2248 675.789 11.6936C676.952 12.6061 677.22 12.9686 677.552 13.0561C683.908 14.6311 690.195 16.9936 696.639 17.5748C719.327 19.6061 742.058 21.1123 764.789 22.5686Z" fill="white"/>
<path d="M579.002 5.53148C572.745 1.26898 517.789 -1.11227 510.602 2.56898C514.633 6.44398 573.62 9.00023 579.002 5.53148Z" fill="#007C92"/>
<path d="M132.65 42.775C135.812 43.2875 139.081 44.0812 142.206 43.7687C163.737 41.6187 185.231 39.0312 206.775 36.9875C212.719 36.425 215.519 32.2062 220.025 28.6875C218.369 28.3562 217.506 28.125 216.625 28.0125C207.644 26.8562 198.669 25.6812 189.681 24.6062C187.006 24.2875 184.269 23.9312 181.606 24.15C163.35 25.6375 145.106 27.2562 126.862 28.9062C125.031 29.075 123.156 29.5562 121.456 30.2625C116.85 32.1812 112.319 34.2812 107.775 36.3437C107.031 36.6812 106.375 37.2125 105 38.0875C114.819 39.7625 123.725 41.325 132.65 42.775Z" fill="white"/>
<path d="M0.670309 19.2376C0.670309 19.6626 0.664062 20.0939 0.664062 20.5189C6.43906 21.2064 12.2703 22.7689 17.9828 22.4314C38.2328 21.2314 58.4703 19.5564 78.6641 17.6376C83.4766 17.1814 88.1328 15.0626 92.8578 13.7126C92.8078 13.2064 92.7578 12.7001 92.7141 12.1939C86.3703 11.6439 80.0141 10.5251 73.6828 10.6689C63.1828 10.9001 52.6953 11.8626 42.2141 12.6689C30.9328 13.5314 19.5141 13.3751 8.58906 17.0626C6.00156 17.9314 3.31406 18.5189 0.670309 19.2376Z" fill="white"/>
<path d="M454.273 28.575C458.842 32.25 461.48 36.4875 467.33 37.0062C483.086 38.3937 498.786 40.325 514.517 41.975C524.93 43.0687 535.28 44.7812 545.811 42.1687C553.23 40.325 560.898 39.475 568.455 38.1812C568.505 37.8812 568.555 37.5812 568.605 37.2875C563.523 34.9687 558.48 32.5687 553.348 30.3812C551.567 29.6187 549.586 29.1125 547.655 28.9312C534.392 27.675 521.117 26.4937 507.842 25.3687C501.623 24.8437 495.373 23.9937 489.173 24.2125C482.336 24.4562 475.53 25.7312 468.717 26.6C464.236 27.1687 459.755 27.8187 454.273 28.575Z" fill="white"/>
<path d="M273.206 43.6749C292.362 41.7811 311.431 39.0561 330.556 36.8811C334.268 36.4561 333.325 34.1186 333.575 32.0124C333.85 29.6811 332.737 28.9561 330.575 28.7374C321.15 27.7874 311.743 26.6561 302.318 25.6936C296.218 25.0686 290.05 23.8436 284 24.2624C268.431 25.3311 252.937 27.4811 237.362 28.5436C231.075 28.9749 228 33.0686 223.575 36.9624C225.193 37.3186 226.162 37.5936 227.15 37.7374C236.931 39.1686 246.706 40.6436 256.5 41.9686C262.062 42.7186 267.743 44.2124 273.206 43.6749Z" fill="white"/>
<path d="M339.932 22.4625C351.419 21.375 362.894 20.0875 374.369 18.8375C376.794 18.575 379.207 18.1687 381.663 17.825C380.913 14.7375 380.394 14.1625 378.007 13.9187C374.488 13.5562 370.963 13.2812 367.438 12.9875C357.282 12.1375 347.113 10.4375 336.975 10.6562C323.694 10.9375 310.444 12.7312 297.188 13.8875C294.95 14.0812 293.6 15.1937 293.394 17.8687C294.519 18.0562 295.507 18.2687 296.5 18.375C308.182 19.6437 319.863 20.9312 331.557 22.1312C334.332 22.4125 337.169 22.725 339.932 22.4625Z" fill="white"/>
<path d="M582.508 12.5751C582.445 13.0001 582.383 13.4188 582.32 13.8438C587.133 15.1751 591.876 17.1876 596.776 17.7001C611.364 19.2313 626.008 20.2376 640.633 21.3313C650.664 22.0813 660.727 23.7376 670.714 20.8688C671.914 20.5251 673.139 20.2626 674.352 19.9626C674.358 19.5813 674.364 19.2001 674.364 18.8188C666.589 17.1688 658.883 14.9688 651.02 14.0001C640.602 12.7188 630.07 12.3938 619.589 11.6876C608.183 10.9188 596.764 9.65009 585.383 12.0001C584.427 12.2001 583.47 12.3876 582.508 12.5751Z" fill="white"/>
<path d="M248.6 10.65C234.381 11.025 220.206 12.775 206.006 13.875C202.5 14.1437 199.838 15.9125 197.281 18.675C200.1 19.05 202.912 19.4687 205.731 19.8C214.194 20.7812 222.713 22.8562 231.113 22.45C247.913 21.6375 264.644 19.45 281.4 17.8437C283.563 17.6375 284.788 16.5687 285.113 13.8562C282.194 13.5375 279.369 13.1875 276.537 12.9312C267.219 12.0875 257.881 10.4 248.6 10.65Z" fill="white"/>
<path d="M136.155 21.7313C150.486 19.8626 164.961 19.1063 179.373 17.8938C182.88 17.6001 185.773 16.2063 188.986 13.0376C179.505 12.1126 170.911 10.3688 162.386 10.6438C145.961 11.1688 129.555 12.6063 113.186 14.1813C108.605 14.6251 104.198 16.8626 99.7109 18.2813C99.7922 18.6251 99.8797 18.9751 99.9609 19.3188C100.755 19.5063 101.542 19.7563 102.348 19.8751C113.555 21.5501 124.648 23.2313 136.155 21.7313Z" fill="white"/>
<path d="M785.325 33.2438C778.2 31.8063 771.137 29.7501 763.938 29.0501C747.275 27.4251 730.55 26.5126 713.856 25.1938C702.856 24.3251 691.875 23.4063 681.025 26.3813C680.319 26.575 679.631 26.825 678.938 27.05C683.012 28.9125 687.025 30.2813 691.119 31.3438C698.544 33.2688 705.925 35.6813 713.488 36.6875C725.95 38.3375 738.537 39.05 751.075 40.125C763.506 41.1875 775.944 42.2188 788.375 43.2563V33.8125C787.356 33.6313 786.337 33.4438 785.325 33.2438Z" fill="white"/>
<path d="M726.838 44.825C718.719 44.1875 710.625 42.15 702.375 44.3875C696.225 46.0563 689.919 47.1625 682.769 48.725C684.319 49.4813 684.982 49.8813 685.694 50.1375C695.681 53.6875 705.663 57.2438 715.669 60.7438C722.319 63.0688 728.882 65.4563 736.088 65.9813C746.944 66.7688 757.744 68.2938 768.575 69.4438C775.169 70.1438 781.775 70.7375 788.375 71.375V50.125C767.863 48.3375 747.363 46.4313 726.838 44.825Z" fill="white"/>
<path d="M772.627 114.706C777.895 115.231 783.127 116.175 788.377 116.956V79.4623C785.508 79.0748 782.639 78.6498 779.758 78.3248C769.039 77.0998 758.32 75.8373 747.583 74.7436C737.658 73.7311 727.664 71.2186 717.87 75.6498C716.464 76.2873 714.895 76.5748 713.395 77.0061C706.577 78.9748 699.752 80.9373 692.164 83.1248C693.683 83.8686 694.458 84.2936 695.264 84.6436C714.47 92.8873 733.739 100.987 752.858 109.425C759.245 112.244 765.727 114.025 772.627 114.706Z" fill="white"/>
<path d="M178.992 5.14983C188.442 8.34358 235.373 7.78733 247.198 4.41858C247.892 4.21858 248.486 3.68108 249.373 3.14358C239.98 -0.756415 183.792 0.874834 178.992 5.14983Z" fill="#007C92"/>
</svg>
