<svg xmlns="http://www.w3.org/2000/svg" xmlns:xlink="http://www.w3.org/1999/xlink"><defs><style>
    .sprite-symbol-usage {display: none;}
    .sprite-symbol-usage:target {display: inline;}
  </style><symbol fill="none" viewBox="0 0 18 21" id="alert-announcement"><path d="M15.136 14.222V9.139c0-3.12-1.667-5.732-4.574-6.423v-.691C10.562 1.18 9.882.5 9.038.5s-1.525.681-1.525 1.525v.69C4.596 3.408 2.939 6.01 2.939 9.14v5.083L.906 16.254v1.017H17.17v-1.017l-2.033-2.033Zm-5.082 0H8.02v-2.033h2.033v2.033Zm0-4.066H8.02V6.09h2.033v4.066ZM9.038 20.32a2.039 2.039 0 0 0 2.032-2.033H7.005c0 1.118.904 2.033 2.033 2.033Z" fill="currentColor" /></symbol><symbol fill="none" viewBox="0 0 21 19" id="alert-emergency"><path d="m20.581 16.965-8.74-15.86a1.17 1.17 0 0 0-2.05 0l-8.738 15.86A1.17 1.17 0 0 0 2.078 18.7h17.477a1.17 1.17 0 0 0 1.026-1.735Zm-8.33-1.544a.354.354 0 0 1-.354.354H9.68a.354.354 0 0 1-.354-.354v-2.1c0-.196.158-.354.354-.354h2.218c.196 0 .354.158.354.353v2.101Zm-.053-3.964a.355.355 0 0 1-.355.34h-2.11a.356.356 0 0 1-.355-.34l-.21-4.908a.355.355 0 0 1 .355-.37h2.533c.201 0 .363.168.355.37l-.213 4.908Z" fill="currentColor" /></symbol><symbol fill="none" viewBox="0 0 21 20" id="alert-information"><path d="M10.816.13C5.344.13.906 4.566.906 10.04c0 5.472 4.436 9.909 9.91 9.909 5.473 0 9.909-4.436 9.909-9.91 0-5.472-4.437-9.909-9.91-9.909ZM9.394 3.385c0-.188.152-.342.342-.342h2.152c.188 0 .34.154.34.342v1.924a.341.341 0 0 1-.34.341H9.736a.341.341 0 0 1-.342-.341V3.385ZM13.7 15.39a.341.341 0 0 1-.342.341H8.262a.341.341 0 0 1-.341-.34v-1.809c0-.188.152-.341.341-.341H9.4V9.61H8.262a.341.341 0 0 1-.341-.342V7.46c0-.188.152-.342.341-.342h3.619c.188 0 .341.154.341.342v5.78h1.136c.188 0 .342.153.342.341v1.808Z" fill="currentColor" /></symbol><symbol fill="none" viewBox="0 0 21 20" id="alert-success"><path d="M10.816.09C5.343.09.906 4.527.906 10c0 5.474 4.438 9.91 9.91 9.91s9.91-4.436 9.91-9.91c0-5.473-4.436-9.91-9.91-9.91Zm6.073 7.532-5.31 5.31-.003.007-1.508 1.508a.399.399 0 0 1-.565 0L4.747 9.691a.4.4 0 0 1 0-.565l1.508-1.508a.4.4 0 0 1 .565 0l2.963 2.963 5.033-5.033a.393.393 0 0 1 .556 0l1.517 1.517a.394.394 0 0 1 0 .557Z" fill="currentColor" /></symbol><symbol fill="none" viewBox="0 0 22 22" id="alert-warning"><path d="M11 .86C5.425.86.906 5.38.906 10.953c0 5.575 4.519 10.094 10.094 10.094 5.574 0 10.093-4.519 10.093-10.094C21.093 5.38 16.574.86 11 .86Zm1.548 16.201c0 .223-.18.403-.403.403h-2.29a.402.402 0 0 1-.402-.403v-2.289c0-.223.181-.404.404-.404h2.29c.222 0 .402.18.402.403v2.29h-.001Zm-.06-4.593a.404.404 0 0 1-.404.392H9.918a.404.404 0 0 1-.404-.392l-.23-7.61a.404.404 0 0 1 .404-.415h2.629c.228 0 .41.188.404.416l-.233 7.61Z" fill="currentColor" /></symbol><symbol viewBox="0 0 384 512" id="angle-double-left"><path d="M20.2 247.5 167 99.5c4.7-4.7 12.3-4.7 17 0l19.8 19.8c4.7 4.7 4.7 12.3 0 17L85.3 256l118.5 119.7c4.7 4.7 4.7 12.3 0 17L184 412.5c-4.7 4.7-12.3 4.7-17 0l-146.8-148c-4.7-4.7-4.7-12.3 0-17zm160 17 146.8 148c4.7 4.7 12.3 4.7 17 0l19.8-19.8c4.7-4.7 4.7-12.3 0-17L245.3 256l118.5-119.7c4.7-4.7 4.7-12.3 0-17L344 99.5c-4.7-4.7-12.3-4.7-17 0l-146.8 148c-4.7 4.7-4.7 12.3 0 17z" /></symbol><symbol viewBox="0 0 384 512" id="angle-double-right"><path d="M363.8 264.5 217 412.5c-4.7 4.7-12.3 4.7-17 0l-19.8-19.8c-4.7-4.7-4.7-12.3 0-17L298.7 256 180.2 136.3c-4.7-4.7-4.7-12.3 0-17L200 99.5c4.7-4.7 12.3-4.7 17 0l146.8 148c4.7 4.7 4.7 12.3 0 17zm-160-17L57 99.5c-4.7-4.7-12.3-4.7-17 0l-19.8 19.8c-4.7 4.7-4.7 12.3 0 17L138.7 256 20.2 375.7c-4.7 4.7-4.7 12.3 0 17L40 412.5c4.7 4.7 12.3 4.7 17 0l146.8-148c4.7-4.7 4.7-12.3 0-17z" /></symbol><symbol fill="none" viewBox="0 0 24 24" id="angle-down"><path fill-rule="evenodd" clip-rule="evenodd" d="M4.136 8.097a1.25 1.25 0 0 1 1.767.039l5.697 5.956 5.697-5.956a1.25 1.25 0 1 1 1.806 1.728l-6.6 6.9a1.25 1.25 0 0 1-1.806 0l-6.6-6.9a1.25 1.25 0 0 1 .039-1.767Z" fill="currentColor" /></symbol><symbol fill="none" viewBox="0 0 11 18" id="angle-left"><path fill-rule="evenodd" clip-rule="evenodd" d="M10.297.744a1.344 1.344 0 0 1-.03 1.915L3.835 8.838l6.434 6.178c.542.52.555 1.378.029 1.915a1.38 1.38 0 0 1-1.936.028L.915 9.81a1.347 1.347 0 0 1 0-1.943L8.361.716a1.38 1.38 0 0 1 1.936.028Z" fill="currentColor" /></symbol><symbol fill="none" viewBox="0 0 11 18" id="angle-right"><path fill-rule="evenodd" clip-rule="evenodd" d="M.584.751A1.354 1.354 0 0 1 2.5.71l7.475 7.15a1.354 1.354 0 0 1 0 1.957l-7.475 7.15A1.354 1.354 0 0 1 .627 15.01l6.452-6.171L.627 2.666A1.354 1.354 0 0 1 .584.751Z" fill="currentColor" /></symbol><symbol viewBox="0 0 320 512" id="angle-up"><path d="m168.5 164.2 148 146.8c4.7 4.7 4.7 12.3 0 17l-19.8 19.8c-4.7 4.7-12.3 4.7-17 0L160 229.3 40.3 347.8c-4.7 4.7-12.3 4.7-17 0L3.5 328c-4.7-4.7-4.7-12.3 0-17l148-146.8c4.7-4.7 12.3-4.7 17 0z" /></symbol><symbol fill="none" viewBox="0 0 16 20" id="arrow-up"><path d="M8.35.634a1.05 1.05 0 0 0-.157-.04.925.925 0 0 0-.148-.021c-.02-.001-.038-.012-.058-.012-.02 0-.038.011-.058.012a1.07 1.07 0 0 0-.149.022 1.025 1.025 0 0 0-.265.083C7.47.7 7.43.729 7.388.757c-.028.018-.06.024-.088.045-.017.013-.024.033-.04.047a1.163 1.163 0 0 0-.086.086c-.014.016-.033.022-.047.039l-6.053 7.57a1.098 1.098 0 1 0 1.718 1.373l4.094-5.119v13.541a1.1 1.1 0 0 0 2.2 0V4.796l4.094 5.12a1.099 1.099 0 0 0 1.96-.688c0-.24-.079-.483-.24-.686L8.845.973C8.833.956 8.813.949 8.8.934a1.26 1.26 0 0 0-.09-.089C8.694.832 8.69.813 8.674.8c-.027-.022-.06-.027-.09-.046-.042-.028-.08-.056-.125-.078a1.093 1.093 0 0 0-.11-.042Z" fill="#fff" /></symbol><symbol fill="none" viewBox="0 0 20 20" id="calendar"><path d="M14.338 4.33h-.455V4a.667.667 0 1 0-1.333 0v.33H7.648V4a.666.666 0 1 0-1.333 0v.33h-.522a2.462 2.462 0 0 0-2.46 2.46v6.882a2.462 2.462 0 0 0 2.46 2.459h8.544a2.462 2.462 0 0 0 2.46-2.46V6.79a2.462 2.462 0 0 0-2.46-2.459ZM5.793 5.663h.444v.585a.666.666 0 1 0 1.333 0v-.585h4.877v.585a.667.667 0 1 0 1.334 0v-.585h.557c.621 0 1.127.505 1.127 1.127v1.112h-10.8V6.789c0-.62.506-1.125 1.128-1.125Zm8.544 9.136H5.793c-.621 0-1.127-.505-1.127-1.127V9.233h10.798v4.439c0 .621-.506 1.127-1.127 1.127Z" fill="#000" /><path d="M13.73 10.159H6.399a.666.666 0 1 0 0 1.333h7.334a.667.667 0 1 0-.001-1.334ZM13.73 12.416H6.399a.666.666 0 1 0 0 1.333h7.334a.667.667 0 1 0-.001-1.333Z" fill="#000" /></symbol><symbol viewBox="0 0 22 22" id="close"><path d="M21.9 2.2 19.7 0l-8.8 8.8L2.1 0-.1 2.2 8.7 11l-8.8 8.8L2.1 22l8.8-8.8 8.8 8.8 2.2-2.2-8.8-8.8z" fill="currentColor" /></symbol><symbol fill="none" viewBox="0 0 20 20" id="close-inverted"><path d="M9.91 0A9.908 9.908 0 0 0 0 9.91a9.908 9.908 0 0 0 9.91 9.91 9.908 9.908 0 0 0 9.91-9.91A9.908 9.908 0 0 0 9.91 0Zm4.86 12.511a.48.48 0 0 1 0 .68l-1.583 1.578a.48.48 0 0 1-.68 0L9.91 12.148l-2.601 2.621a.48.48 0 0 1-.68 0l-1.578-1.582a.48.48 0 0 1 0-.68L7.672 9.91 5.051 7.309a.48.48 0 0 1 0-.68l1.582-1.582a.48.48 0 0 1 .68 0L9.91 7.672l2.601-2.621a.48.48 0 0 1 .68 0l1.582 1.582a.48.48 0 0 1 0 .68L12.148 9.91l2.621 2.601Z" fill="currentColor" /></symbol><symbol fill="none" viewBox="0 0 24 24" id="diagonal-arrow"><path fill-rule="evenodd" clip-rule="evenodd" d="M8.5 7a1.1 1.1 0 0 1 1.1-1.1h8A1.1 1.1 0 0 1 18.7 7v8a1.1 1.1 0 0 1-2.2 0V9.756l-8.722 8.722a1.1 1.1 0 1 1-1.555-1.556L15.045 8.1H9.6A1.1 1.1 0 0 1 8.5 7Z" fill="currentColor" /></symbol><symbol fill="none" viewBox="0 0 10 16" id="facebook"><path d="M7.314 2.95c-.405.324-.567 1.052-.567 1.943h2.59v2.752h-2.59v8.258H3.185V7.645H.999V4.893h2.186c.08-.81-.729-4.534 3.48-4.858 1.134-.08 2.672 0 2.672 0v2.672c-.81.08-1.538 0-2.023.243Z" fill="currentColor" /></symbol><symbol fill="none" viewBox="0 0 17 17" id="flickr"><path d="M15.284.998H2.712c-.946 0-1.714.768-1.714 1.714v12.572c0 .946.768 1.714 1.714 1.714h12.572c.946 0 1.714-.768 1.714-1.714V2.712c0-.946-.768-1.714-1.714-1.714Zm-9.125 10.25A2.266 2.266 0 0 1 3.89 8.98a2.266 2.266 0 0 1 2.268-2.268A2.266 2.266 0 0 1 8.427 8.98a2.266 2.266 0 0 1-2.268 2.268Zm5.678 0A2.266 2.266 0 0 1 9.57 8.98a2.267 2.267 0 0 1 2.267-2.268 2.266 2.266 0 0 1 2.268 2.268 2.266 2.266 0 0 1-2.268 2.268Z" fill="currentColor" /></symbol><symbol fill="none" viewBox="0 0 32 28" id="grid"><path d="M18.5 0h12A1.5 1.5 0 0 1 32 1.5v10a1.5 1.5 0 0 1-1.5 1.5h-12a1.5 1.5 0 0 1-1.5-1.5v-10A1.5 1.5 0 0 1 18.5 0Zm-5 0h-12A1.5 1.5 0 0 0 0 1.5v10A1.5 1.5 0 0 0 1.5 13h12a1.5 1.5 0 0 0 1.5-1.5v-10A1.5 1.5 0 0 0 13.5 0ZM0 16.5v10A1.5 1.5 0 0 0 1.5 28h12a1.5 1.5 0 0 0 1.5-1.5v-10a1.5 1.5 0 0 0-1.5-1.5h-12A1.5 1.5 0 0 0 0 16.5ZM18.5 28h12a1.5 1.5 0 0 0 1.5-1.5v-10a1.5 1.5 0 0 0-1.5-1.5h-12a1.5 1.5 0 0 0-1.5 1.5v10a1.5 1.5 0 0 0 1.5 1.5Z" fill="currentColor" /></symbol><symbol fill="none" viewBox="0 0 7 22" id="info"><path d="M4.158 18.625a1.714 1.714 0 0 0-.025.325c0 .4.15.6.45.6a.88.88 0 0 0 .425-.125c.167-.083.4-.225.7-.425l.325.85c-.283.383-.725.775-1.325 1.175-.583.4-1.325.6-2.225.6-.766 0-1.366-.142-1.8-.425-.416-.3-.625-.683-.625-1.15 0-.1.009-.183.025-.25l.65-4.925.7-5.225-1.4-.75.2-1.075 4.825-.65.65.3-1.55 11.15Zm-.025-13.6c-.5 0-.95-.2-1.35-.6-.383-.4-.575-.85-.575-1.35 0-.683.234-1.258.7-1.725.467-.483 1.084-.725 1.85-.725.584 0 1.05.192 1.4.575.35.383.525.825.525 1.325 0 .733-.216 1.333-.65 1.8-.433.467-1.066.7-1.9.7Z" fill="#2E2D29" /></symbol><symbol fill="none" viewBox="0 0 16 16" id="instagram"><path d="M11.502 1.523c1.6 0 2.895 1.295 2.895 2.895v7.16c0 1.6-1.295 2.895-2.895 2.895H4.418a2.893 2.893 0 0 1-2.895-2.895v-7.16c0-1.6 1.295-2.895 2.895-2.895h7.084Zm0-1.524H4.418A4.422 4.422 0 0 0-.001 4.418v7.16a4.421 4.421 0 0 0 4.419 4.419h7.16a4.421 4.421 0 0 0 4.419-4.419v-7.16C15.92 1.98 13.94-.001 11.502-.001Z" fill="currentColor" /><path d="M7.922 5.332a2.569 2.569 0 0 1 2.59 2.59 2.569 2.569 0 0 1-2.59 2.59 2.569 2.569 0 0 1-2.59-2.59 2.569 2.569 0 0 1 2.59-2.59Zm0-1.524a4.097 4.097 0 0 0-4.114 4.114 4.097 4.097 0 0 0 4.114 4.113 4.096 4.096 0 0 0 4.114-4.113c0-2.286-1.753-4.114-4.114-4.114ZM12.34 4.646a.99.99 0 1 0 0-1.98.99.99 0 0 0 0 1.98Z" fill="currentColor" /></symbol><symbol fill="none" viewBox="0 0 15 14" id="linkedin"><path d="M3.456 4.706H.044v9.291h3.412v-9.29ZM8.642 5.626v-.92H5.23v9.291h3.412V7.914c0-1.21 2.893-1.455 2.893.254v5.829h3.33V7.501c.007-2.795-3.277-3.794-6.223-1.875ZM3.501 1.687c0 .934-.781 1.687-1.75 1.687-.97 0-1.752-.753-1.752-1.687C0 .752.781-.001 1.75-.001c.97 0 1.751.753 1.751 1.688Z" fill="currentColor" /></symbol><symbol fill="none" viewBox="0 0 32 28" id="list"><path d="M9.333 11.5v5a1.5 1.5 0 0 1-1.5 1.5H1.5A1.5 1.5 0 0 1 0 16.5v-5A1.5 1.5 0 0 1 1.5 10h6.333a1.5 1.5 0 0 1 1.5 1.5ZM0 21.5v5A1.5 1.5 0 0 0 1.5 28h6.333a1.5 1.5 0 0 0 1.5-1.5v-5a1.5 1.5 0 0 0-1.5-1.5H1.5A1.5 1.5 0 0 0 0 21.5ZM7.833 0H1.5A1.5 1.5 0 0 0 0 1.5v5A1.5 1.5 0 0 0 1.5 8h6.333a1.5 1.5 0 0 0 1.5-1.5v-5a1.5 1.5 0 0 0-1.5-1.5Zm5 28H30.5a1.5 1.5 0 0 0 1.5-1.5v-5a1.5 1.5 0 0 0-1.5-1.5H12.833a1.5 1.5 0 0 0-1.5 1.5v5a1.5 1.5 0 0 0 1.5 1.5Zm-1.5-26.5v5a1.5 1.5 0 0 0 1.5 1.5H30.5A1.5 1.5 0 0 0 32 6.5v-5A1.5 1.5 0 0 0 30.5 0H12.833a1.5 1.5 0 0 0-1.5 1.5Zm1.5 16.5H30.5a1.5 1.5 0 0 0 1.5-1.5v-5a1.5 1.5 0 0 0-1.5-1.5H12.833a1.5 1.5 0 0 0-1.5 1.5v5a1.5 1.5 0 0 0 1.5 1.5Z" fill="currentColor" /></symbol><symbol fill="none" viewBox="0 0 20 20" id="location"><path d="M9.683 2.5a5.523 5.523 0 0 0-5.516 5.517c0 2.48 3.19 9.509 5.516 9.509s5.518-7.03 5.518-9.51A5.523 5.523 0 0 0 9.683 2.5Zm0 13.256c-1.037-.524-3.767-5.471-3.767-7.739A3.772 3.772 0 0 1 9.683 4.25a3.772 3.772 0 0 1 3.768 3.768c0 2.266-2.73 7.214-3.768 7.738Z" fill="#000" /><path d="M9.683 9.583a1.765 1.765 0 1 0 0-3.53 1.765 1.765 0 0 0 0 3.53Z" fill="#000" /></symbol><symbol fill="none" viewBox="0 0 14 15" id="lock-solid"><path d="M9.417 5.75h-.123v-.972c0-1.139-.97-2.065-2.163-2.065h-.7c-1.192 0-2.162.926-2.162 2.065v.971h-.06A1.46 1.46 0 0 0 2.75 7.208v3.247a1.46 1.46 0 0 0 1.459 1.459h5.208a1.46 1.46 0 0 0 1.459-1.459V7.208a1.46 1.46 0 0 0-1.459-1.459Zm-3.982-.972c0-.496.447-.899.996-.899h.7c.549 0 .996.403.996.899v.971H5.435v-.971Z" fill="currentColor" /></symbol><symbol fill="none" viewBox="0 0 18 13" id="mail"><path d="M15.07-.001H2.852A2.356 2.356 0 0 0 .499 2.352v7.693a2.356 2.356 0 0 0 2.353 2.353H15.07a2.356 2.356 0 0 0 2.353-2.353V2.351A2.355 2.355 0 0 0 15.07-.001Zm-12.218 1.9H15.07c.163 0 .301.092.38.222L9.23 5.623a.545.545 0 0 1-.539 0L2.472 2.121a.445.445 0 0 1 .38-.222Zm12.218 8.598H2.852a.452.452 0 0 1-.452-.452V4.26L7.76 7.28a2.46 2.46 0 0 0 2.404 0L15.52 4.26v5.785a.453.453 0 0 1-.452.452Z" fill="currentColor" /></symbol><symbol viewBox="0 0 20 20" id="minus"><path d="M19.6 7.7c-.3-.3-.6-.4-1-.4H1.4c-.4 0-.7.1-1 .4-.3.2-.4.6-.4.9v2.7c0 .4.1.7.4 1s.6.4 1 .4h17.3c.4 0 .7-.1 1-.4s.4-.6.4-1V8.6c-.1-.3-.2-.7-.5-.9z" /></symbol><symbol fill="none" viewBox="0 0 33 33" id="photos"><path d="M20.47 23.158v.734l-13.355.002-.001-9.195h.658v-2.75h-.658a2.752 2.752 0 0 0-2.749 2.749v9.196a2.751 2.751 0 0 0 2.749 2.748h13.355a2.75 2.75 0 0 0 2.749-2.748v-.736H20.47Z" fill="#fff" /><path d="M25.21 21.783H11.854a2.751 2.751 0 0 1-2.749-2.748V9.838a2.752 2.752 0 0 1 2.75-2.748h13.353a2.751 2.751 0 0 1 2.749 2.748v9.197a2.751 2.751 0 0 1-2.749 2.748Zm-.002-11.945-13.353.002.001 9.195 13.354-.002-.002-9.195Z" fill="#fff" /></symbol><symbol fill="none" viewBox="0 0 13 14" id="play"><path d="M12.171 5.546 1.829.141A1.25 1.25 0 0 0 0 1.25v10.902a1.25 1.25 0 0 0 1.837 1.104l10.342-5.497a1.251 1.251 0 0 0-.008-2.212Z" fill="#fff" /></symbol><symbol fill="none" viewBox="0 0 12 12" id="plus"><path d="M11.195 5.564H7.031V1.4a.733.733 0 0 0-1.466 0v4.164H1.4a.734.734 0 0 0 0 1.467h4.164v4.164a.734.734 0 0 0 1.466 0V7.03h4.164a.733.733 0 0 0 .001-1.467Z" fill="currentColor" /></symbol><symbol fill="none" viewBox="0 0 80 80" id="quote-left"><path d="M27.484 63.035c-2.178 0-4.158-.759-5.94-2.277-1.716-1.584-3.069-3.63-4.059-6.138-.99-2.508-1.485-5.181-1.485-8.019 0-4.62.825-8.943 2.475-12.969 1.65-4.092 3.696-7.557 6.138-10.395 2.442-2.904 4.785-4.983 7.029-6.237h.099l3.861 3.465v1.584c-1.65 1.518-3.201 3.696-4.653 6.534-1.386 2.838-2.079 6.336-2.079 10.494 0 2.046.297 3.729.891 5.049.594 1.32 1.452 2.706 2.574 4.158.99 1.32 1.716 2.508 2.178 3.564.462.99.693 2.244.693 3.762 0 2.112-.759 3.894-2.277 5.346-1.452 1.386-3.267 2.079-5.445 2.079Zm28.512 0c-2.178 0-4.158-.759-5.94-2.277-1.716-1.584-3.069-3.63-4.059-6.138-.99-2.508-1.485-5.181-1.485-8.019 0-4.62.825-8.943 2.475-12.969 1.65-4.092 3.696-7.557 6.138-10.395 2.442-2.904 4.785-4.983 7.029-6.237h.099l3.861 3.465v1.584c-1.65 1.518-3.201 3.729-4.653 6.633-1.452 2.838-2.178 6.303-2.178 10.395 0 2.046.297 3.729.891 5.049.594 1.32 1.452 2.706 2.574 4.158.99 1.32 1.716 2.508 2.178 3.564.462.99.693 2.244.693 3.762 0 2.112-.726 3.894-2.178 5.346-1.452 1.386-3.267 2.079-5.445 2.079Z" fill="currentColor" /></symbol><symbol fill="none" viewBox="0 0 16 16" id="remove"><path fill-rule="evenodd" clip-rule="evenodd" d="M8 16A8 8 0 1 0 8 0a8 8 0 0 0 0 16ZM6.707 5.293a1 1 0 0 0-1.414 1.414L6.586 8 5.293 9.293a1 1 0 0 0 1.414 1.414L8 9.414l1.293 1.293a1 1 0 0 0 1.414-1.414L9.414 8l1.293-1.293a1 1 0 0 0-1.414-1.414L8 6.586 6.707 5.293Z" fill="currentColor" /></symbol><symbol fill="none" viewBox="0 0 22 21" id="rss"><path d="M6.428 17.958a2.964 2.964 0 1 1-5.928 0 2.964 2.964 0 0 1 5.928 0Zm8.13 2.187C14.172 12.99 8.44 7.251 1.278 6.865a.74.74 0 0 0-.778.74v2.224c0 .39.3.716.689.742 5.176.337 9.325 4.475 9.663 9.662a.741.741 0 0 0 .741.69h2.225a.74.74 0 0 0 .74-.778Zm6.677.014C20.846 9.337 12.139.579 1.264.188A.74.74 0 0 0 .5.928v2.226c0 .399.316.724.715.74 8.849.363 15.95 7.466 16.314 16.313a.743.743 0 0 0 .74.715h2.225a.74.74 0 0 0 .74-.763Z" fill="currentColor" /></symbol><symbol fill="none" viewBox="0 0 30 30" id="search"><path d="M18.314.643c-6.212 0-11.266 5.044-11.266 11.245 0 2.39.757 4.604 2.034 6.427l-8.07 8.055a1.75 1.75 0 1 0 2.48 2.473l8.025-8.01a11.208 11.208 0 0 0 6.797 2.299c6.212 0 11.265-5.044 11.265-11.245C29.58 5.685 24.526.643 18.314.643Zm0 18.989c-4.279 0-7.759-3.475-7.759-7.745s3.48-7.745 7.759-7.745c4.278 0 7.758 3.475 7.758 7.745s-3.482 7.745-7.758 7.745Z" fill="currentColor" /></symbol><symbol fill="none" viewBox="0 0 16 13" id="twitter"><path d="M13.054 1.029c-1.909-2.211-6.107-.686-5.42 2.897C3.664 3.85 1.297.953 1.068.648c-1.298 2.363.535 3.965.993 4.27-.458-.077-.84-.077-1.527-.458.076 1.22.687 2.745 2.595 3.202-.305.077-1.145.153-1.45.077.458 1.525 1.985 2.21 2.977 2.21C2.748 11.4.916 11.4 0 11.247c1.45 1.144 5.344 2.44 9.467.229 2.825-1.525 4.886-5.261 4.428-8.235.763-.534 1.527-1.449 1.603-1.677-.764.305-1.298.457-1.832.457.534-.229 1.221-1.067 1.374-1.753-.84.533-1.832.762-1.985.762Z" fill="currentColor" /></symbol><symbol fill="none" viewBox="0 0 17 14" id="virtual"><path d="M11.703 12.076H5.251a.95.95 0 0 0 0 1.9h6.452a.95.95 0 0 0 0-1.9ZM14.652 0H2.301A2.304 2.304 0 0 0 0 2.302v6.147a2.304 2.304 0 0 0 2.301 2.302h12.351a2.304 2.304 0 0 0 2.302-2.302V2.301A2.304 2.304 0 0 0 14.652 0Zm.402 8.449c0 .222-.18.401-.401.401H2.301a.402.402 0 0 1-.401-.401V2.301c0-.221.18-.401.401-.401h12.351c.222 0 .401.18.401.401v6.148h.001Z" fill="#000" /></symbol><symbol fill="none" viewBox="0 0 16 12" id="youtube"><path d="M15.996 5.256C15.956-.097 14.55.29 13.713.16 12.527-.023 3.693-.073 2.328.13 1.037.32.04.61 0 5.747c-.04 5.136 1.476 5.225 2.313 5.294 1.595.134 9.77.278 11.644 0 .917-.138 2.079-.435 2.039-5.784ZM6.62 8.361V2.834l4.301 2.779L6.62 8.36Z" fill="currentColor" /></symbol></defs><use id="alert-announcement-usage" xlink:href="#alert-announcement" class="sprite-symbol-usage" /><use id="alert-emergency-usage" xlink:href="#alert-emergency" class="sprite-symbol-usage" /><use id="alert-information-usage" xlink:href="#alert-information" class="sprite-symbol-usage" /><use id="alert-success-usage" xlink:href="#alert-success" class="sprite-symbol-usage" /><use id="alert-warning-usage" xlink:href="#alert-warning" class="sprite-symbol-usage" /><use id="angle-double-left-usage" xlink:href="#angle-double-left" class="sprite-symbol-usage" /><use id="angle-double-right-usage" xlink:href="#angle-double-right" class="sprite-symbol-usage" /><use id="angle-down-usage" xlink:href="#angle-down" class="sprite-symbol-usage" /><use id="angle-left-usage" xlink:href="#angle-left" class="sprite-symbol-usage" /><use id="angle-right-usage" xlink:href="#angle-right" class="sprite-symbol-usage" /><use id="angle-up-usage" xlink:href="#angle-up" class="sprite-symbol-usage" /><use id="arrow-up-usage" xlink:href="#arrow-up" class="sprite-symbol-usage" /><use id="calendar-usage" xlink:href="#calendar" class="sprite-symbol-usage" /><use id="close-usage" xlink:href="#close" class="sprite-symbol-usage" /><use id="close-inverted-usage" xlink:href="#close-inverted" class="sprite-symbol-usage" /><use id="diagonal-arrow-usage" xlink:href="#diagonal-arrow" class="sprite-symbol-usage" /><use id="facebook-usage" xlink:href="#facebook" class="sprite-symbol-usage" /><use id="flickr-usage" xlink:href="#flickr" class="sprite-symbol-usage" /><use id="grid-usage" xlink:href="#grid" class="sprite-symbol-usage" /><use id="info-usage" xlink:href="#info" class="sprite-symbol-usage" /><use id="instagram-usage" xlink:href="#instagram" class="sprite-symbol-usage" /><use id="linkedin-usage" xlink:href="#linkedin" class="sprite-symbol-usage" /><use id="list-usage" xlink:href="#list" class="sprite-symbol-usage" /><use id="location-usage" xlink:href="#location" class="sprite-symbol-usage" /><use id="lock-solid-usage" xlink:href="#lock-solid" class="sprite-symbol-usage" /><use id="mail-usage" xlink:href="#mail" class="sprite-symbol-usage" /><use id="minus-usage" xlink:href="#minus" class="sprite-symbol-usage" /><use id="photos-usage" xlink:href="#photos" class="sprite-symbol-usage" /><use id="play-usage" xlink:href="#play" class="sprite-symbol-usage" /><use id="plus-usage" xlink:href="#plus" class="sprite-symbol-usage" /><use id="quote-left-usage" xlink:href="#quote-left" class="sprite-symbol-usage" /><use id="remove-usage" xlink:href="#remove" class="sprite-symbol-usage" /><use id="rss-usage" xlink:href="#rss" class="sprite-symbol-usage" /><use id="search-usage" xlink:href="#search" class="sprite-symbol-usage" /><use id="twitter-usage" xlink:href="#twitter" class="sprite-symbol-usage" /><use id="virtual-usage" xlink:href="#virtual" class="sprite-symbol-usage" /><use id="youtube-usage" xlink:href="#youtube" class="sprite-symbol-usage" /></svg>