<svg width="107" height="48" fill="none" xmlns="http://www.w3.org/2000/svg"><path d="M28.061 22.135c-3.798 0-4.088-2.867-4.088-3.75 0-1.04.266-2.867 2.685-3.762 2.492-.919 3.024-1.015 4.742-1.56v-.447c0-.835 0-1.028-.17-1.549-.326-.98-1.27-1.608-2.564-1.608-1.282 0-2.346.713-2.818 1.742l-.702-.412c.448-1.584 2.032-3.157 4.778-3.157 1.948 0 3.23.557 4.004 1.742.592.944.64 2.262.64 3.629 0 1.21-.035 2.54-.06 3.628-.024.75-.036 1.391-.036 1.778 0 .98.157 1.742.98 1.742.338 0 .411-.085.701-.326l.448.52c-.738.967-1.548 1.754-2.915 1.754-1.1 0-1.875-.533-2.129-1.416-.617.666-1.73 1.452-3.496 1.452Zm3.35-7.342c-1.85.556-2.49.87-3.06 1.161-.81.4-1.22 1.222-1.22 2.19 0 .75.265 2.02 2.08 2.02.604 0 1.463-.122 2.2-.654v-4.717ZM.11 21.385c0-1.403.012-2.6-.109-4.04h.835c.012.895.254 1.548.64 1.984.593.665 1.96 1.076 3.242 1.076 2.661 0 3.895-1.004 3.895-3.169 0-1.85-1.15-2.625-2.734-3.701l-.242-.17-1.669-1.112C1.645 10.717.46 9.483.46 7.015c0-1.197.46-5.128 6.313-5.128 1.476 0 3.424.157 4.585.375A45.744 45.744 0 0 0 11.32 4.1c0 .883 0 1.174.037 2.25h-.714c-.024-.943-.278-1.548-.69-1.96-.568-.556-1.814-.822-3.132-.822-3.109 0-3.472 1.585-3.472 2.782 0 1.645.847 2.202 2.686 3.423l2.128 1.403c1.803 1.198 3.508 2.335 3.508 5.334 0 5.068-4.717 5.613-6.75 5.613-1.838-.012-3.313-.242-4.813-.738Zm37.75-12.81c.713.061 1.778-.011 2.818-.193.883-.157 1.197-.278 1.863-.605l.278.17V9.06a6.881 6.881 0 0 1 4.052-1.343c2.516 0 4.16 1.173 4.632 3.314.133.532.182 1.814.182 2.504v4.076c0 2.31.097 2.951.52 3.363.218.193.738.399 1.355.399v.653c-.895-.049-2.492-.133-3.46-.133-1.282 0-2.721.06-3.495.145v-.641c.69-.073 1.16-.278 1.415-.508.399-.4.472-1.21.532-2.951.012-.52.036-1.61.036-2.42 0-1.04 0-2.128-.12-3.193-.206-1.814-1.162-2.649-2.964-2.649-1.258 0-2.032.29-2.625.581v7.342c0 2.31.097 2.951.532 3.363.218.193.763.41 1.343.399v.653c-1.161-.06-2.54-.133-3.435-.133-1.863 0-2.443.036-3.52.145v-.665c.605-.012 1.186-.218 1.512-.593.423-.484.448-1.67.448-4.052v-3.992c0-1.73-.037-2.455-.279-2.83-.193-.29-.665-.52-1.632-.508v-.81h.012ZM55.216 21.35c.568.012 1.185-.206 1.524-.593.435-.484.46-1.67.46-4.04v-6.93h-1.827v-.787c.774-.302 1.44-.641 1.826-.943 0-1.234.037-2.83.206-3.702.544-2.878 2.431-4.342 5.6-4.342 1.391 0 2.722.472 3.52 1.161l.048.29-1.39 1.924h-.34c-.471-1.161-1.185-1.827-2.43-1.827-.436 0-1.04.133-1.404.508-.592.605-.701 1.5-.701 3.278v2.698h3.12v1.73h-3.12v7.752c0 1.839.06 2.734.302 3.097.387.58 1.621.653 2.226.629v.738a73.406 73.406 0 0 0-3.81-.133c-1.73 0-2.867.048-3.798.145v-.653h-.012Zm16.087.907c-4.27 0-6.81-2.661-6.81-7.1 0-3.46 1.863-7.487 7.112-7.487 4.257 0 6.81 2.649 6.81 7.1-.025 3.447-1.875 7.487-7.112 7.487Zm.169-12.979c-.835 0-1.488.218-1.984.63-1.112.943-1.681 2.648-1.681 5.08 0 .943.17 5.636 3.617 5.636.822 0 1.487-.218 1.971-.63 1.125-.943 1.693-2.66 1.693-5.091-.012-.92-.181-5.625-3.616-5.625Zm8.334-.75c.943.049 1.983-.06 3.06-.254.834-.145 1.355-.326 1.657-.471l.254.12v1.21c.677-.629 1.73-1.294 3.23-1.294 1.088 0 1.814.302 2.43.859v.435l-1.173 2.153h-.568c-.375-.653-1.077-1.258-2.322-1.258-.593 0-1.09.145-1.525.448v7.051c0 1.839.06 2.71.303 3.073.387.592 1.548.653 2.213.629v.774c-.955-.049-2.612-.133-3.798-.133-1.354 0-2.685.024-3.798.145v-.702c.774-.036 1.222-.254 1.524-.592.436-.484.46-1.633.46-4.016v-3.992c0-1.73-.012-2.48-.278-2.83-.23-.314-.738-.496-1.633-.508v-.847h-.036ZM99.46.811c.846 0 1.947-.158 3.278-.388.762-.133 1.27-.266 1.512-.362l.241.145c-.121 1.149-.121 3.75-.121 5.588v11.394c0 1.705.025 2.758.267 3.096.217.315.737.532 1.608.532v.75c-.883 0-1.923.11-2.999.29-.714.121-1.283.23-1.549.388l-.387-.133v-1.174c-.689.508-2.068 1.319-3.894 1.319-3.835 0-6.314-2.661-6.314-6.774 0-1.379.266-2.673.75-3.761 1.173-2.54 3.604-3.992 6.676-3.992 1.125 0 2.129.145 2.722.266v-3c0-1.741-.024-2.673-.278-3.035-.194-.29-.484-.424-1.524-.508V.81h.012Zm-.484 19.413c.955 0 1.597-.146 2.298-.569v-9.362c-.23-.217-1.076-.931-2.782-.931-2.721 0-4.04 1.863-4.04 5.697-.012 1.609.472 5.165 4.524 5.165Zm-76.395.399c-.423.508-1.512 1.596-3.786 1.596-2.153 0-3.362-.774-3.894-2.503-.218-.69-.218-2.032-.218-2.843 0-2.237.024-4.028.048-6.096l.012-.98h-1.838v-.544a6.8 6.8 0 0 0 1.754-.968c1.076-.834 1.778-1.886 2.6-3.362h.617v3.133h4.742v1.73h-4.742v7.33c0 2.188.4 3.446 2.468 3.446.967 0 1.608-.314 2.007-.52l.23.58ZM89.156 33.734c-.242 0-.533.085-.726.23-.157.12-.194.314-.194.435 0 .23.085.448.242.871l1.306 3.472c.194.52.34.955.436 1.258l1.597-4.754c.193-.544.217-.677.217-.883 0-.12-.072-.254-.157-.35-.157-.146-.423-.23-.75-.255v-.508c.194 0 .617.025.81.037.182.012.569.036.871.036.593 0 1.415-.048 1.778-.085v.52c-.242.037-.798-.048-1.233 1.307l-3.411 9.132c-.496 1.318-1.113 2.95-3.508 2.95-.956 0-1.645-.229-2.14-.713v-.242l.846-1.028h.242c.254.557.713.786 1.355.786 1.088 0 1.56-.93 2.31-2.902l.205-.545-2.903-7.438c-.024-.049-.06-.158-.109-.279a17.61 17.61 0 0 0-.241-.544c-.17-.35-.496-.508-.871-.484v-.532c.556.049 1.5.085 1.983.085.327 0 .81-.024 1.234-.049.242-.012.641-.036.823-.036v.508h-.013Zm-31.763-.157c.605.036 1.258-.036 1.947-.157.532-.097.871-.206 1.053-.303l.157.085v.774c.423-.4 1.1-.822 2.056-.822.702 0 1.161.193 1.548.544v.278l-.75 1.379h-.363c-.241-.411-.689-.81-1.487-.81-.375 0-.69.096-.98.278v4.5c0 1.172.036 1.729.194 1.959.242.375.98.41 1.415.399v.496a47.635 47.635 0 0 0-2.431-.085c-.86 0-1.718.012-2.42.097v-.448c.496-.024.775-.157.968-.375.278-.314.29-1.04.29-2.564V36.25c0-1.1-.012-1.585-.169-1.814-.145-.206-.472-.315-1.04-.327v-.532h.012ZM17.357 42.31c-2.54 0-3.991-.786-4.584-2.48-.29-.87-.29-1.887-.29-2.794v-4.778c0-1.451-.06-1.669-.34-1.91-.12-.11-.434-.255-.858-.267v-.496c.605.06 1.597.097 2.214.097 1.04 0 1.596-.024 2.274-.097v.508c-.4-.012-.738.097-.956.351-.278.315-.29.859-.29 2.37v4.234c0 2.492.218 4.137 3.084 4.137 2.855 0 3.072-1.681 3.072-4.246v-4.68c0-1.452-.072-1.67-.338-1.912-.158-.145-.508-.254-.86-.266v-.483c.557.012 1.283.084 1.972.084.666 0 1.33-.012 2.117-.097v.508c-.423-.012-.738.097-.955.351-.279.315-.303.859-.303 2.37v3.581c0 1.137 0 2.431-.363 3.435-.629 1.694-2.08 2.48-4.596 2.48Zm17.127-.544c.508-.061.81-.11 1.04-.375.279-.315.29-1.04.29-2.577v-2.552c0-1.1-.023-1.645-.18-1.887-.146-.206-.388-.29-1.017-.339v-.508c.375.061 1.294-.036 2.044-.181.387-.06.75-.194.98-.314l.194.193c-.06.569-.073 1.863-.073 3.532v2.6c0 1.174.036 1.718.194 1.948.157.242.556.399 1.088.423v.424a36.623 36.623 0 0 0-2.25-.085c-.895 0-1.838.036-2.322.097v-.4h.012Zm2.214-10.245c-.702 0-1.162-.448-1.162-1.113 0-.69.484-1.15 1.198-1.15.701 0 1.173.448 1.173 1.114 0 .677-.484 1.149-1.21 1.149Zm35.766 10.245c.496-.061.798-.11 1.04-.375.278-.315.29-1.04.29-2.577v-2.552c0-1.1-.024-1.645-.181-1.887-.145-.206-.387-.29-1.016-.339v-.508c.375.061 1.306-.036 2.044-.181.387-.06.75-.194.98-.314l.193.193c-.06.569-.072 1.863-.072 3.532v2.6c0 1.174.036 1.718.193 1.948.157.242.557.399 1.089.423v.424a36.235 36.235 0 0 0-2.25-.085c-.895 0-1.838.036-2.322.097v-.4h.012Zm2.201-10.245c-.701 0-1.16-.448-1.16-1.113 0-.69.483-1.15 1.197-1.15.689 0 1.16.448 1.16 1.114.013.677-.471 1.149-1.197 1.149Zm-9.47 10.341c0-.919-.049-1.875-.11-2.358h.593c.012.508.133.87.387 1.173.351.435.787.593 1.573.593h.109c.98 0 1.487-.412 1.487-1.234 0-.665-.423-.944-1.137-1.391l-1.27-.786c-.677-.412-1.451-1.04-1.451-2.262 0-1.04.423-1.778 1.282-2.202.556-.278 1.355-.314 1.778-.314.738 0 1.766.097 2.359.23-.037.242-.06.87-.06 1.076 0 .182.011 1.028.035 1.186h-.58c0-.375-.097-.726-.339-1.029-.218-.278-.75-.508-1.415-.508-.907 0-1.367.387-1.367 1.137 0 .63.484.92.907 1.174l.049.024 1.197.713c.81.472 1.815 1.053 1.815 2.492 0 2.347-2.141 2.71-3.411 2.71-.847-.013-1.609-.121-2.431-.424Zm18.856-.58c-.266.326-.967 1.016-2.407 1.016-1.379 0-2.14-.484-2.48-1.597-.144-.435-.144-1.294-.144-1.814 0-1.428.012-2.565.024-3.895v-.617H77.87v-.35a4.272 4.272 0 0 0 1.124-.617c.69-.533 1.125-1.21 1.657-2.141h.388v2.008h3.023v1.112H81.04v4.681c0 1.403.253 2.202 1.572 2.202.617 0 1.028-.206 1.282-.34l.157.352Zm-40.64-8.032c-.182 0-.581.025-.823.037-.46.024-.968.048-1.306.048-.653 0-1.621-.06-1.923-.085v.532c.096 0 .616-.048.87.52.11.23.206.448.23.52.049.122.097.255.121.315l2.867 7.221.883-.157 3.157-7.1.109-.218c.036-.085.084-.193.29-.568.206-.363.593-.557.931-.532l.025-.545c-.363.024-1.15.085-1.73.085-.303 0-.617-.024-.92-.036-.217-.012-.592-.037-.81-.037v.508c.29-.012.617.121.75.242.073.06.157.218.157.339 0 .193-.036.363-.242.895l-1.717 4.258c-.085-.255-.194-.605-.363-1.053l-1.222-3.205c-.181-.484-.217-.677-.217-.895 0-.121.024-.218.12-.327.17-.181.46-.278.775-.278l-.012-.484Zm-19.631.363c.447.036 1.137-.012 1.802-.12.556-.098.762-.182 1.185-.388l.182.109v.714a4.419 4.419 0 0 1 2.588-.86c1.609 0 2.65.75 2.951 2.118.085.338.121 1.149.121 1.596v2.6c0 1.476.06 1.876.34 2.142.144.12.47.254.87.254v.41c-.58-.023-1.597-.084-2.201-.084-.81 0-1.742.036-2.238.097v-.411c.448-.049.75-.182.895-.327.254-.254.302-.774.339-1.875.012-.326.024-1.028.024-1.548 0-.665 0-1.355-.073-2.032-.133-1.161-.738-1.693-1.887-1.693-.798 0-1.294.181-1.669.375v4.68c0 1.476.06 1.875.339 2.142.133.12.484.254.859.254v.41c-.738-.036-1.621-.084-2.19-.084-1.185 0-1.56.024-2.25.097v-.423c.388 0 .763-.146.968-.375.266-.303.29-1.065.29-2.589V36.25c0-1.1-.024-1.572-.18-1.814-.122-.182-.436-.327-1.041-.327v-.496h-.024Zm29.234 8.685c-2.685 0-4.16-1.549-4.16-4.367 0-.496.12-4.838 4.197-4.838 1.221 0 2.261.508 2.782 1.343.52.834.592 1.68.592 2.419v.471h-5.6c0 .46.036.81.085 1.125.302 1.718 1.258 2.553 2.939 2.553.943 0 1.548-.206 2.117-.52l.266.447c-.617.798-1.827 1.367-3.218 1.367Zm-2.165-5.963h3.508c0-1.053-.206-2.262-1.754-2.262-1.44 0-1.73 1.342-1.754 2.262Z" fill="#fff"/></svg>